<svg width="235" height="235" viewBox="0 0 235 235" fill="none" xmlns="http://www.w3.org/2000/svg">
<circle cx="125" cy="125" r="5" fill="#E6E6E6"/>
<circle cx="125" cy="35" r="5" fill="#E6E6E6"/>
<circle cx="125" cy="215" r="5" fill="#E6E6E6"/>
<circle cx="125" cy="140" r="5" fill="#E6E6E6"/>
<circle cx="125" cy="50" r="5" fill="#E6E6E6"/>
<circle cx="125" cy="230" r="5" fill="#E6E6E6"/>
<circle cx="125" cy="155" r="5" fill="#E6E6E6"/>
<circle cx="125" cy="65" r="5" fill="#E6E6E6"/>
<circle cx="125" cy="170" r="5" fill="#E6E6E6"/>
<circle cx="125" cy="80" r="5" fill="#E6E6E6"/>
<circle cx="125" cy="5" r="5" fill="#E6E6E6"/>
<circle cx="125" cy="185" r="5" fill="#E6E6E6"/>
<circle cx="125" cy="95" r="5" fill="#E6E6E6"/>
<circle cx="125" cy="20" r="5" fill="#E6E6E6"/>
<circle cx="125" cy="200" r="5" fill="#E6E6E6"/>
<circle cx="125" cy="110" r="5" fill="#E6E6E6"/>
<circle cx="5" cy="125" r="5" fill="#E6E6E6"/>
<circle cx="5" cy="215" r="5" fill="#E6E6E6"/>
<circle cx="5" cy="140" r="5" fill="#E6E6E6"/>
<circle cx="5" cy="230" r="5" fill="#E6E6E6"/>
<circle cx="5" cy="155" r="5" fill="#E6E6E6"/>
<circle cx="5" cy="170" r="5" fill="#E6E6E6"/>
<circle cx="5" cy="185" r="5" fill="#E6E6E6"/>
<circle cx="5" cy="200" r="5" fill="#E6E6E6"/>
<circle cx="185" cy="125" r="5" fill="#E6E6E6"/>
<circle cx="185" cy="35" r="5" fill="#E6E6E6"/>
<circle cx="185" cy="215" r="5" fill="#E6E6E6"/>
<circle cx="185" cy="140" r="5" fill="#E6E6E6"/>
<circle cx="185" cy="50" r="5" fill="#E6E6E6"/>
<circle cx="185" cy="230" r="5" fill="#E6E6E6"/>
<circle cx="185" cy="155" r="5" fill="#E6E6E6"/>
<circle cx="185" cy="65" r="5" fill="#E6E6E6"/>
<circle cx="185" cy="170" r="5" fill="#E6E6E6"/>
<circle cx="185" cy="80" r="5" fill="#E6E6E6"/>
<circle cx="185" cy="5" r="5" fill="#E6E6E6"/>
<circle cx="185" cy="185" r="5" fill="#E6E6E6"/>
<circle cx="185" cy="95" r="5" fill="#E6E6E6"/>
<circle cx="185" cy="20" r="5" fill="#E6E6E6"/>
<circle cx="185" cy="200" r="5" fill="#E6E6E6"/>
<circle cx="185" cy="110" r="5" fill="#E6E6E6"/>
<circle cx="65" cy="125" r="5" fill="#E6E6E6"/>
<circle cx="65" cy="215" r="5" fill="#E6E6E6"/>
<circle cx="65" cy="140" r="5" fill="#E6E6E6"/>
<circle cx="65" cy="230" r="5" fill="#E6E6E6"/>
<circle cx="65" cy="155" r="5" fill="#E6E6E6"/>
<circle cx="65" cy="170" r="5" fill="#E6E6E6"/>
<circle cx="65" cy="185" r="5" fill="#E6E6E6"/>
<circle cx="65" cy="200" r="5" fill="#E6E6E6"/>
<circle cx="155" cy="125" r="5" fill="#E6E6E6"/>
<circle cx="155" cy="35" r="5" fill="#E6E6E6"/>
<circle cx="155" cy="215" r="5" fill="#E6E6E6"/>
<circle cx="155" cy="140" r="5" fill="#E6E6E6"/>
<circle cx="155" cy="50" r="5" fill="#E6E6E6"/>
<circle cx="155" cy="230" r="5" fill="#E6E6E6"/>
<circle cx="155" cy="155" r="5" fill="#E6E6E6"/>
<circle cx="155" cy="65" r="5" fill="#E6E6E6"/>
<circle cx="155" cy="170" r="5" fill="#E6E6E6"/>
<circle cx="155" cy="80" r="5" fill="#E6E6E6"/>
<circle cx="155" cy="5" r="5" fill="#E6E6E6"/>
<circle cx="155" cy="185" r="5" fill="#E6E6E6"/>
<circle cx="155" cy="95" r="5" fill="#E6E6E6"/>
<circle cx="155" cy="20" r="5" fill="#E6E6E6"/>
<circle cx="155" cy="200" r="5" fill="#E6E6E6"/>
<circle cx="155" cy="110" r="5" fill="#E6E6E6"/>
<circle cx="35" cy="125" r="5" fill="#E6E6E6"/>
<circle cx="35" cy="215" r="5" fill="#E6E6E6"/>
<circle cx="35" cy="140" r="5" fill="#E6E6E6"/>
<circle cx="35" cy="230" r="5" fill="#E6E6E6"/>
<circle cx="35" cy="155" r="5" fill="#E6E6E6"/>
<circle cx="35" cy="170" r="5" fill="#E6E6E6"/>
<circle cx="35" cy="185" r="5" fill="#E6E6E6"/>
<circle cx="35" cy="200" r="5" fill="#E6E6E6"/>
<circle cx="215" cy="125" r="5" fill="#E6E6E6"/>
<circle cx="215" cy="35" r="5" fill="#E6E6E6"/>
<circle cx="215" cy="215" r="5" fill="#E6E6E6"/>
<circle cx="215" cy="140" r="5" fill="#E6E6E6"/>
<circle cx="215" cy="50" r="5" fill="#E6E6E6"/>
<circle cx="215" cy="230" r="5" fill="#E6E6E6"/>
<circle cx="215" cy="155" r="5" fill="#E6E6E6"/>
<circle cx="215" cy="65" r="5" fill="#E6E6E6"/>
<circle cx="215" cy="170" r="5" fill="#E6E6E6"/>
<circle cx="215" cy="80" r="5" fill="#E6E6E6"/>
<circle cx="215" cy="5" r="5" fill="#E6E6E6"/>
<circle cx="215" cy="185" r="5" fill="#E6E6E6"/>
<circle cx="215" cy="95" r="5" fill="#E6E6E6"/>
<circle cx="215" cy="20" r="5" fill="#E6E6E6"/>
<circle cx="215" cy="200" r="5" fill="#E6E6E6"/>
<circle cx="215" cy="110" r="5" fill="#E6E6E6"/>
<circle cx="95" cy="125" r="5" fill="#E6E6E6"/>
<circle cx="95" cy="215" r="5" fill="#E6E6E6"/>
<circle cx="95" cy="140" r="5" fill="#E6E6E6"/>
<circle cx="95" cy="230" r="5" fill="#E6E6E6"/>
<circle cx="95" cy="155" r="5" fill="#E6E6E6"/>
<circle cx="95" cy="170" r="5" fill="#E6E6E6"/>
<circle cx="95" cy="185" r="5" fill="#E6E6E6"/>
<circle cx="95" cy="200" r="5" fill="#E6E6E6"/>
<circle cx="140" cy="125" r="5" fill="#E6E6E6"/>
<circle cx="140" cy="35" r="5" fill="#E6E6E6"/>
<circle cx="140" cy="215" r="5" fill="#E6E6E6"/>
<circle cx="140" cy="140" r="5" fill="#E6E6E6"/>
<circle cx="140" cy="50" r="5" fill="#E6E6E6"/>
<circle cx="140" cy="230" r="5" fill="#E6E6E6"/>
<circle cx="140" cy="155" r="5" fill="#E6E6E6"/>
<circle cx="140" cy="65" r="5" fill="#E6E6E6"/>
<circle cx="140" cy="170" r="5" fill="#E6E6E6"/>
<circle cx="140" cy="80" r="5" fill="#E6E6E6"/>
<circle cx="140" cy="5" r="5" fill="#E6E6E6"/>
<circle cx="140" cy="185" r="5" fill="#E6E6E6"/>
<circle cx="140" cy="95" r="5" fill="#E6E6E6"/>
<circle cx="140" cy="20" r="5" fill="#E6E6E6"/>
<circle cx="140" cy="200" r="5" fill="#E6E6E6"/>
<circle cx="140" cy="110" r="5" fill="#E6E6E6"/>
<circle cx="20" cy="125" r="5" fill="#E6E6E6"/>
<circle cx="20" cy="215" r="5" fill="#E6E6E6"/>
<circle cx="20" cy="140" r="5" fill="#E6E6E6"/>
<circle cx="20" cy="230" r="5" fill="#E6E6E6"/>
<circle cx="20" cy="155" r="5" fill="#E6E6E6"/>
<circle cx="20" cy="170" r="5" fill="#E6E6E6"/>
<circle cx="20" cy="185" r="5" fill="#E6E6E6"/>
<circle cx="20" cy="200" r="5" fill="#E6E6E6"/>
<circle cx="200" cy="125" r="5" fill="#E6E6E6"/>
<circle cx="200" cy="35" r="5" fill="#E6E6E6"/>
<circle cx="200" cy="215" r="5" fill="#E6E6E6"/>
<circle cx="200" cy="140" r="5" fill="#E6E6E6"/>
<circle cx="200" cy="50" r="5" fill="#E6E6E6"/>
<circle cx="200" cy="230" r="5" fill="#E6E6E6"/>
<circle cx="200" cy="155" r="5" fill="#E6E6E6"/>
<circle cx="200" cy="65" r="5" fill="#E6E6E6"/>
<circle cx="200" cy="170" r="5" fill="#E6E6E6"/>
<circle cx="200" cy="80" r="5" fill="#E6E6E6"/>
<circle cx="200" cy="5" r="5" fill="#E6E6E6"/>
<circle cx="200" cy="185" r="5" fill="#E6E6E6"/>
<circle cx="200" cy="95" r="5" fill="#E6E6E6"/>
<circle cx="200" cy="20" r="5" fill="#E6E6E6"/>
<circle cx="200" cy="200" r="5" fill="#E6E6E6"/>
<circle cx="200" cy="110" r="5" fill="#E6E6E6"/>
<circle cx="80" cy="125" r="5" fill="#E6E6E6"/>
<circle cx="80" cy="215" r="5" fill="#E6E6E6"/>
<circle cx="80" cy="140" r="5" fill="#E6E6E6"/>
<circle cx="80" cy="230" r="5" fill="#E6E6E6"/>
<circle cx="80" cy="155" r="5" fill="#E6E6E6"/>
<circle cx="80" cy="170" r="5" fill="#E6E6E6"/>
<circle cx="80" cy="185" r="5" fill="#E6E6E6"/>
<circle cx="80" cy="200" r="5" fill="#E6E6E6"/>
<circle cx="170" cy="125" r="5" fill="#E6E6E6"/>
<circle cx="170" cy="35" r="5" fill="#E6E6E6"/>
<circle cx="170" cy="215" r="5" fill="#E6E6E6"/>
<circle cx="170" cy="140" r="5" fill="#E6E6E6"/>
<circle cx="170" cy="50" r="5" fill="#E6E6E6"/>
<circle cx="170" cy="230" r="5" fill="#E6E6E6"/>
<circle cx="170" cy="155" r="5" fill="#E6E6E6"/>
<circle cx="170" cy="65" r="5" fill="#E6E6E6"/>
<circle cx="170" cy="170" r="5" fill="#E6E6E6"/>
<circle cx="170" cy="80" r="5" fill="#E6E6E6"/>
<circle cx="170" cy="5" r="5" fill="#E6E6E6"/>
<circle cx="170" cy="185" r="5" fill="#E6E6E6"/>
<circle cx="170" cy="95" r="5" fill="#E6E6E6"/>
<circle cx="170" cy="20" r="5" fill="#E6E6E6"/>
<circle cx="170" cy="200" r="5" fill="#E6E6E6"/>
<circle cx="170" cy="110" r="5" fill="#E6E6E6"/>
<circle cx="50" cy="125" r="5" fill="#E6E6E6"/>
<circle cx="50" cy="215" r="5" fill="#E6E6E6"/>
<circle cx="50" cy="140" r="5" fill="#E6E6E6"/>
<circle cx="50" cy="230" r="5" fill="#E6E6E6"/>
<circle cx="50" cy="155" r="5" fill="#E6E6E6"/>
<circle cx="50" cy="170" r="5" fill="#E6E6E6"/>
<circle cx="50" cy="185" r="5" fill="#E6E6E6"/>
<circle cx="50" cy="200" r="5" fill="#E6E6E6"/>
<circle cx="230" cy="125" r="5" fill="#E6E6E6"/>
<circle cx="230" cy="35" r="5" fill="#E6E6E6"/>
<circle cx="230" cy="215" r="5" fill="#E6E6E6"/>
<circle cx="230" cy="140" r="5" fill="#E6E6E6"/>
<circle cx="230" cy="50" r="5" fill="#E6E6E6"/>
<circle cx="230" cy="230" r="5" fill="#E6E6E6"/>
<circle cx="230" cy="155" r="5" fill="#E6E6E6"/>
<circle cx="230" cy="65" r="5" fill="#E6E6E6"/>
<circle cx="230" cy="170" r="5" fill="#E6E6E6"/>
<circle cx="230" cy="80" r="5" fill="#E6E6E6"/>
<circle cx="230" cy="5" r="5" fill="#E6E6E6"/>
<circle cx="230" cy="185" r="5" fill="#E6E6E6"/>
<circle cx="230" cy="95" r="5" fill="#E6E6E6"/>
<circle cx="230" cy="20" r="5" fill="#E6E6E6"/>
<circle cx="230" cy="200" r="5" fill="#E6E6E6"/>
<circle cx="230" cy="110" r="5" fill="#E6E6E6"/>
<circle cx="110" cy="125" r="5" fill="#E6E6E6"/>
<circle cx="110" cy="215" r="5" fill="#E6E6E6"/>
<circle cx="110" cy="140" r="5" fill="#E6E6E6"/>
<circle cx="110" cy="230" r="5" fill="#E6E6E6"/>
<circle cx="110" cy="155" r="5" fill="#E6E6E6"/>
<circle cx="110" cy="170" r="5" fill="#E6E6E6"/>
<circle cx="110" cy="185" r="5" fill="#E6E6E6"/>
<circle cx="110" cy="200" r="5" fill="#E6E6E6"/>
</svg>
