<svg width="60" height="34" viewBox="0 0 60 34" fill="none" xmlns="http://www.w3.org/2000/svg">
<path d="M20.6967 27C20.52 27 20.3405 26.9329 20.2037 26.7977C19.9321 26.5283 19.9321 26.0915 20.2037 25.823L38.808 7.43218C39.0815 7.16184 39.5243 7.16184 39.7959 7.43218C40.0676 7.70253 40.0685 8.13747 39.7959 8.4069L21.1916 26.7977C21.0549 26.9329 20.8772 27 20.6986 27H20.6967ZM37.1802 25.3908H26.2111C25.8259 25.3908 25.5134 25.0818 25.5134 24.7011C25.5134 24.3205 25.8259 24.0115 26.2111 24.0115H37.1802C37.5643 24.0115 37.8778 23.7016 37.8778 23.3218V12.5816C37.8778 12.2 38.1904 11.892 38.5755 11.892C38.9606 11.892 39.2732 12.2 39.2732 12.5816V23.3218C39.2732 24.4621 38.3336 25.3908 37.1802 25.3908ZM21.3665 22.5237C20.9814 22.5237 20.6688 22.2147 20.6688 21.834V11.903C20.6688 10.7628 21.6083 9.83402 22.7618 9.83402H24.7971C25.9087 8.07586 27.852 7 29.971 7C31.7347 7 33.4128 7.75402 34.5709 9.07172C34.8239 9.35862 34.7942 9.79448 34.503 10.0446C34.2146 10.2956 33.7728 10.2671 33.5188 9.97839C32.6258 8.9623 31.3328 8.37931 29.971 8.37931C28.2194 8.37931 26.6241 9.33103 25.8083 10.8639C25.6594 11.1416 25.3394 11.2869 25.0325 11.2133H22.7618C22.3776 11.2133 22.0642 11.5241 22.0642 11.903V21.834C22.0642 22.2147 21.7516 22.5237 21.3665 22.5237Z" fill="white" fill-opacity="0.4"/>
<path d="M26.1479 17.8294C25.7618 17.8294 25.4502 17.5204 25.4502 17.1397C25.4502 14.6754 27.4781 12.6708 29.971 12.6708C30.3562 12.6708 30.6687 12.9797 30.6687 13.3604C30.6687 13.7411 30.3562 14.0501 29.971 14.0501C28.2464 14.0501 26.8455 15.4368 26.8455 17.1397C26.8455 17.5204 26.532 17.8294 26.1479 17.8294V17.8294ZM29.971 21.6115C29.5859 21.6115 29.2734 21.3016 29.2734 20.9218C29.2734 20.542 29.5859 20.2322 29.971 20.2322C31.6957 20.2322 33.0966 18.8437 33.0966 17.1407C33.0966 16.76 33.4101 16.451 33.7942 16.451C34.1784 16.451 34.4919 16.76 34.4919 17.1407C34.4919 19.605 32.464 21.6096 29.971 21.6096V21.6115Z" fill="white" fill-opacity="0.4"/>
</svg>
