<svg width="16" height="16" viewBox="0 0 16 16" fill="#DD6E20" xmlns="http://www.w3.org/2000/svg">
<path opacity="0.4" d="M10.7933 1.33331H5.21325C2.77992 1.33331 1.33325 2.77998 1.33325 5.20664V10.7866C1.33325 13.2133 2.77992 14.66 5.20659 14.66H10.7866C13.2133 14.66 14.6599 13.2133 14.6599 10.7866V5.20664C14.6666 2.77998 13.2199 1.33331 10.7933 1.33331Z" fill="inherit"/>
<path fill-rule="evenodd" clip-rule="evenodd" d="M10.8334 1.33381V8.28035C10.8334 8.70701 10.7067 9.02701 10.4867 9.15368C10.2601 9.28701 9.90008 9.22035 9.50008 8.98035L8.62008 8.45368C8.28008 8.24701 7.72008 8.24701 7.38008 8.45368L6.50008 8.98035C6.10008 9.22035 5.74008 9.28035 5.51342 9.15368C5.29342 9.02701 5.16675 8.70701 5.16675 8.28035V1.33386C5.18226 1.33374 5.19782 1.33368 5.21341 1.33368H10.7934C10.8068 1.33368 10.8201 1.33372 10.8334 1.33381Z" fill="inherit"/>
</svg>
