<svg width="16" height="16" viewBox="0 0 16 16" fill="none" xmlns="http://www.w3.org/2000/svg">
<path d="M12.6003 10.0199C11.1269 10.0199 9.93359 11.2132 9.93359 12.6865C9.93359 14.1599 11.1269 15.3532 12.6003 15.3532C14.0736 15.3532 15.2669 14.1599 15.2669 12.6865C15.2669 11.2132 14.0736 10.0199 12.6003 10.0199ZM13.6669 13.7865C13.5669 13.8865 13.4402 13.9332 13.3136 13.9332C13.1869 13.9332 13.0602 13.8865 12.9602 13.7865L12.6069 13.4332L12.2402 13.7999C12.1402 13.8999 12.0136 13.9465 11.8869 13.9465C11.7603 13.9465 11.6336 13.8999 11.5336 13.7999C11.3402 13.6065 11.3402 13.2865 11.5336 13.0932L11.9002 12.7265L11.5469 12.3732C11.3536 12.1799 11.3536 11.8599 11.5469 11.6665C11.7402 11.4732 12.0602 11.4732 12.2536 11.6665L12.6069 12.0199L12.9402 11.6865C13.1336 11.4932 13.4536 11.4932 13.6469 11.6865C13.8402 11.8799 13.8402 12.1999 13.6469 12.3932L13.3136 12.7265L13.6669 13.0799C13.8602 13.2732 13.8602 13.5932 13.6669 13.7865Z" fill="#DD6E20"/>
<path d="M14.6667 5.02666V6H1.33333V5.02666C1.33333 3.5 2.57335 2.26666 4.10001 2.26666H11.9C13.4266 2.26666 14.6667 3.5 14.6667 5.02666Z" fill="#DD6E20"/>
<path opacity="0.4" d="M1.33333 6V10.9733C1.33333 12.5 2.56668 13.7333 4.09334 13.7333H8.26668C8.65335 13.7333 8.98666 13.4067 8.95333 13.02C8.85999 12 9.18667 10.8933 10.0933 10.0133C10.4667 9.64667 10.9267 9.36667 11.4267 9.20667C12.26 8.94 13.0667 8.97333 13.78 9.21333C14.2133 9.36 14.6667 9.04667 14.6667 8.58667V6H1.33333ZM5.33333 11.5H4C3.72667 11.5 3.5 11.2733 3.5 11C3.5 10.7267 3.72667 10.5 4 10.5H5.33333C5.60667 10.5 5.83333 10.7267 5.83333 11C5.83333 11.2733 5.60667 11.5 5.33333 11.5Z" fill="#DD6E20"/>
<path d="M5.83333 11C5.83333 11.2733 5.60667 11.5 5.33333 11.5H4C3.72667 11.5 3.5 11.2733 3.5 11C3.5 10.7267 3.72667 10.5 4 10.5H5.33333C5.60667 10.5 5.83333 10.7267 5.83333 11Z" fill="#DD6E20"/>
</svg>
