<svg width="32" height="32" viewBox="0 0 32 32" fill="#DD7824" xmlns="http://www.w3.org/2000/svg">
<path opacity="0.4" d="M23.267 23.0664C21.027 23.0664 18.9603 22.013 17.6136 20.1597C17.2936 19.7197 17.387 19.0931 17.827 18.7597C18.267 18.4264 18.8937 18.5331 19.227 18.9731C20.2003 20.2931 21.667 21.0531 23.267 21.0531C26.0537 21.0531 28.3337 18.7864 28.3337 15.9864C28.3337 13.1864 26.067 10.9197 23.267 10.9197C21.3737 10.9197 19.587 11.9331 18.6136 13.5464L15.0803 19.4264C13.747 21.6531 11.307 23.0264 8.72033 23.0264C4.827 23.0264 1.65364 19.853 1.65364 15.9597C1.65364 12.0664 4.827 8.89307 8.72033 8.89307C10.9603 8.89307 13.027 9.94639 14.3737 11.7997C14.6937 12.2397 14.6003 12.8664 14.1603 13.1997C13.707 13.533 13.0937 13.4264 12.7603 12.9864C11.787 11.6664 10.3203 10.9064 8.72033 10.9064C5.93367 10.9064 3.65364 13.1731 3.65364 15.9731C3.65364 18.7731 5.92033 21.0397 8.72033 21.0397C10.6137 21.0397 12.4003 20.0264 13.3737 18.413L16.907 12.533C18.2403 10.3064 20.6803 8.93306 23.267 8.93306C27.1603 8.93306 30.3337 12.1064 30.3337 15.9997C30.3337 19.893 27.1603 23.0664 23.267 23.0664Z" fill="inherit"/>
<path d="M8.66667 18.6668C10.1394 18.6668 11.3333 17.4729 11.3333 16.0002C11.3333 14.5274 10.1394 13.3335 8.66667 13.3335C7.19391 13.3335 6 14.5274 6 16.0002C6 17.4729 7.19391 18.6668 8.66667 18.6668Z" fill="inherit"/>
<path d="M23.3333 18.6668C24.8061 18.6668 26 17.4729 26 16.0002C26 14.5274 24.8061 13.3335 23.3333 13.3335C21.8606 13.3335 20.6667 14.5274 20.6667 16.0002C20.6667 17.4729 21.8606 18.6668 23.3333 18.6668Z" fill="inherit"/>
</svg>
