<svg width="314" height="59" viewBox="0 0 314 59" fill="none" xmlns="http://www.w3.org/2000/svg">
<path d="M29.0566 58.1132C45.1041 58.1132 58.1132 45.1041 58.1132 29.0566C58.1132 13.0091 45.1041 0 29.0566 0C13.0091 0 0 13.0091 0 29.0566C0 45.1041 13.0091 58.1132 29.0566 58.1132Z" fill="#F77D27"/>
<path fill-rule="evenodd" clip-rule="evenodd" d="M42.9496 35.2014C40.5906 40.5268 35.2588 44.242 29.0594 44.242C23.4004 44.242 18.4644 41.1462 15.8526 36.556H22.4982V37.3058L25.8726 35.4312L22.4982 33.369V34.4938H14.8771C14.2297 32.806 13.875 30.9732 13.875 29.0574C13.875 20.6714 20.6734 13.873 29.0594 13.873C34.641 13.873 39.5192 16.8846 42.1578 21.3716H36.3704V20.2468L32.9962 22.3088L36.3704 24.1834V23.4336H43.1684C43.2738 23.698 43.3722 23.9662 43.463 24.2376C45.3686 26.2456 48.9984 26.5366 51.7084 25.348C53.0246 23.1884 55.402 21.7464 58.116 21.7464C62.2574 21.7464 65.6146 25.1036 65.6146 29.245C65.6146 33.3862 62.2574 36.7434 58.116 36.7434C55.596 36.7434 53.3662 35.5002 52.0068 33.5938C48.1806 32.6192 45.7436 32.6192 42.9496 35.2014Z" fill="white"/>
<path d="M82.4118 41.263C80.0566 41.263 77.9214 40.7568 76.0066 39.7444C74.1136 38.7098 72.6168 37.29 71.5162 35.4852C70.4378 33.6582 69.8984 31.6002 69.8984 29.311C69.8984 27.022 70.4378 24.9748 71.5162 23.17C72.6168 21.343 74.1136 19.9233 76.0066 18.9108C77.9214 17.8763 80.0676 17.3591 82.4448 17.3591C84.4478 17.3591 86.2526 17.7112 87.8594 18.4156C89.4882 19.1199 90.853 20.1324 91.9536 21.4532L88.5198 24.6228C86.957 22.8178 85.02 21.9154 82.7088 21.9154C81.2782 21.9154 80.0016 22.2346 78.879 22.8728C77.7564 23.4892 76.876 24.3586 76.2376 25.4812C75.6214 26.6038 75.3132 27.8804 75.3132 29.311C75.3132 30.7418 75.6214 32.0184 76.2376 33.141C76.876 34.2636 77.7564 35.144 78.879 35.7824C80.0016 36.3986 81.2782 36.7068 82.7088 36.7068C85.02 36.7068 86.957 35.7934 88.5198 33.9664L91.9536 37.136C90.853 38.4786 89.4882 39.5022 87.8594 40.2066C86.2306 40.9108 84.4148 41.263 82.4118 41.263Z" fill="#F77E23"/>
<path d="M102.712 41.131C100.841 41.131 99.1572 40.7458 97.6604 39.9754C96.1856 39.183 95.0302 38.0934 94.1936 36.7068C93.3572 35.32 92.939 33.7462 92.939 31.9854C92.939 30.2246 93.3572 28.6508 94.1936 27.264C95.0302 25.8774 96.1856 24.7988 97.6604 24.0284C99.1572 23.236 100.841 22.8398 102.712 22.8398C104.583 22.8398 106.256 23.236 107.73 24.0284C109.205 24.7988 110.361 25.8774 111.197 27.264C112.034 28.6508 112.452 30.2246 112.452 31.9854C112.452 33.7462 112.034 35.32 111.197 36.7068C110.361 38.0934 109.205 39.183 107.73 39.9754C106.256 40.7458 104.583 41.131 102.712 41.131ZM102.712 36.9048C104.033 36.9048 105.111 36.4646 105.948 35.5842C106.806 34.6818 107.235 33.4822 107.235 31.9854C107.235 30.4886 106.806 29.3 105.948 28.4196C105.111 27.5172 104.033 27.066 102.712 27.066C101.391 27.066 100.302 27.5172 99.4434 28.4196C98.5848 29.3 98.1556 30.4886 98.1556 31.9854C98.1556 33.4822 98.5848 34.6818 99.4434 35.5842C100.302 36.4646 101.391 36.9048 102.712 36.9048Z" fill="#F77E23"/>
<path d="M126.36 22.8398C128.562 22.8398 130.333 23.5002 131.676 24.8208C133.041 26.1414 133.723 28.1004 133.723 30.6978V40.8668H128.573V31.4902C128.573 30.0814 128.264 29.036 127.648 28.3536C127.032 27.6492 126.14 27.297 124.974 27.297C123.675 27.297 122.641 27.7042 121.87 28.5186C121.1 29.311 120.715 30.4996 120.715 32.0844V40.8668H115.564V23.104H120.484V25.184C121.166 24.4356 122.013 23.8634 123.026 23.4672C124.038 23.049 125.15 22.8398 126.36 22.8398Z" fill="#F77E23"/>
<path d="M149.519 40.0084C149.012 40.3826 148.385 40.6688 147.637 40.8668C146.91 41.043 146.14 41.131 145.326 41.131C143.213 41.131 141.573 40.5918 140.406 39.5132C139.262 38.4346 138.689 36.8498 138.689 34.7588V27.4622H135.949V23.5002H138.689V19.175H143.84V23.5002H148.264V27.4622H143.84V34.6928C143.84 35.4412 144.027 36.0244 144.401 36.4426C144.797 36.8388 145.348 37.037 146.052 37.037C146.866 37.037 147.56 36.8168 148.132 36.3766L149.519 40.0084Z" fill="#F77E23"/>
<path d="M168.931 32.0514C168.931 32.1174 168.898 32.5798 168.832 33.4382H155.395C155.637 34.5386 156.209 35.4082 157.111 36.0464C158.014 36.6848 159.136 37.004 160.479 37.004C161.404 37.004 162.218 36.8718 162.922 36.6078C163.649 36.3216 164.32 35.8814 164.936 35.287L167.677 38.2586C166.004 40.1736 163.561 41.131 160.347 41.131C158.344 41.131 156.572 40.7458 155.031 39.9754C153.491 39.183 152.302 38.0934 151.466 36.7068C150.629 35.32 150.211 33.7462 150.211 31.9854C150.211 30.2466 150.618 28.6838 151.433 27.297C152.269 25.8884 153.403 24.7988 154.833 24.0284C156.286 23.236 157.904 22.8398 159.687 22.8398C161.426 22.8398 162.999 23.214 164.408 23.9624C165.817 24.7108 166.917 25.7892 167.71 27.198C168.524 28.5846 168.931 30.2026 168.931 32.0514ZM159.72 26.7358C158.553 26.7358 157.574 27.066 156.781 27.7262C155.989 28.3866 155.505 29.289 155.329 30.4336H164.078C163.902 29.311 163.418 28.4196 162.625 27.7592C161.833 27.077 160.864 26.7358 159.72 26.7358Z" fill="#F77E23"/>
<path d="M182.827 22.8398C185.028 22.8398 186.8 23.5002 188.142 24.8208C189.507 26.1414 190.189 28.1004 190.189 30.6978V40.8668H185.039V31.4902C185.039 30.0814 184.731 29.036 184.114 28.3536C183.498 27.6492 182.606 27.297 181.44 27.297C180.141 27.297 179.107 27.7042 178.336 28.5186C177.566 29.311 177.181 30.4996 177.181 32.0844V40.8668H172.03V23.104H176.95V25.184C177.632 24.4356 178.479 23.8634 179.492 23.4672C180.504 23.049 181.616 22.8398 182.827 22.8398Z" fill="#F77E23"/>
<path d="M205.984 40.0084C205.478 40.3826 204.852 40.6688 204.102 40.8668C203.376 41.043 202.606 41.131 201.792 41.131C199.679 41.131 198.039 40.5918 196.872 39.5132C195.728 38.4346 195.155 36.8498 195.155 34.7588V27.4622H192.415V23.5002H195.155V19.175H200.306V23.5002H204.73V27.4622H200.306V34.6928C200.306 35.4412 200.494 36.0244 200.868 36.4426C201.264 36.8388 201.814 37.037 202.518 37.037C203.332 37.037 204.026 36.8168 204.598 36.3766L205.984 40.0084Z" fill="#F77E23"/>
<path d="M208.546 23.104H213.696V40.8668H208.546V23.104ZM211.122 20.6276C210.174 20.6276 209.404 20.3526 208.81 19.8023C208.216 19.252 207.918 18.5697 207.918 17.7553C207.918 16.9408 208.216 16.2585 208.81 15.7082C209.404 15.158 210.174 14.8828 211.122 14.8828C212.068 14.8828 212.838 15.1469 213.432 15.6752C214.026 16.2035 214.324 16.8638 214.324 17.6562C214.324 18.5146 214.026 19.23 213.432 19.8023C212.838 20.3526 212.068 20.6276 211.122 20.6276Z" fill="#F77E23"/>
<path d="M226.598 41.131C224.728 41.131 223.044 40.7458 221.548 39.9754C220.072 39.183 218.916 38.0934 218.08 36.7068C217.244 35.32 216.826 33.7462 216.826 31.9854C216.826 30.2246 217.244 28.6508 218.08 27.264C218.916 25.8774 220.072 24.7988 221.548 24.0284C223.044 23.236 224.728 22.8398 226.598 22.8398C228.47 22.8398 230.142 23.236 231.618 24.0284C233.092 24.7988 234.248 25.8774 235.084 27.264C235.92 28.6508 236.338 30.2246 236.338 31.9854C236.338 33.7462 235.92 35.32 235.084 36.7068C234.248 38.0934 233.092 39.183 231.618 39.9754C230.142 40.7458 228.47 41.131 226.598 41.131ZM226.598 36.9048C227.92 36.9048 228.998 36.4646 229.834 35.5842C230.692 34.6818 231.122 33.4822 231.122 31.9854C231.122 30.4886 230.692 29.3 229.834 28.4196C228.998 27.5172 227.92 27.066 226.598 27.066C225.278 27.066 224.188 27.5172 223.33 28.4196C222.472 29.3 222.042 30.4886 222.042 31.9854C222.042 33.4822 222.472 34.6818 223.33 35.5842C224.188 36.4646 225.278 36.9048 226.598 36.9048Z" fill="#F77E23"/>
<path d="M250.248 22.8398C252.448 22.8398 254.22 23.5002 255.564 24.8208C256.928 26.1414 257.61 28.1004 257.61 30.6978V40.8668H252.46V31.4902C252.46 30.0814 252.152 29.036 251.536 28.3536C250.918 27.6492 250.028 27.297 248.86 27.297C247.562 27.297 246.528 27.7042 245.758 28.5186C244.988 29.311 244.602 30.4996 244.602 32.0844V40.8668H239.452V23.104H244.37V25.184C245.054 24.4356 245.9 23.8634 246.912 23.4672C247.926 23.049 249.038 22.8398 250.248 22.8398Z" fill="#F77E23"/>
<path d="M269.114 22.8398C271.864 22.8398 273.978 23.5002 275.452 24.8208C276.928 26.1194 277.664 28.0894 277.664 30.7308V40.8668H272.844V38.6548C271.876 40.3056 270.072 41.131 267.43 41.131C266.066 41.131 264.876 40.8998 263.864 40.4376C262.874 39.9754 262.114 39.337 261.586 38.5226C261.058 37.7082 260.794 36.7838 260.794 35.7492C260.794 34.0984 261.41 32.7998 262.642 31.8534C263.896 30.9068 265.822 30.4336 268.42 30.4336H272.514C272.514 29.311 272.174 28.4526 271.49 27.8584C270.808 27.242 269.784 26.9338 268.42 26.9338C267.474 26.9338 266.538 27.088 265.614 27.396C264.712 27.6822 263.94 28.0784 263.302 28.5846L261.454 24.9858C262.422 24.3036 263.578 23.7752 264.92 23.401C266.286 23.027 267.682 22.8398 269.114 22.8398ZM268.718 37.6642C269.598 37.6642 270.38 37.4662 271.062 37.07C271.744 36.6518 272.228 36.0464 272.514 35.254V33.4382H268.982C266.868 33.4382 265.812 34.1314 265.812 35.5182C265.812 36.1786 266.066 36.7068 266.572 37.103C267.1 37.4772 267.814 37.6642 268.718 37.6642Z" fill="#F77E23"/>
<path d="M286.916 25.4482C287.532 24.5896 288.358 23.9404 289.392 23.5002C290.448 23.06 291.66 22.8398 293.024 22.8398V27.5942C292.452 27.5502 292.066 27.5282 291.868 27.5282C290.394 27.5282 289.238 27.9464 288.402 28.7828C287.564 29.5972 287.146 30.8298 287.146 32.4806V40.8668H281.996V23.104H286.916V25.4482Z" fill="#F77E23"/>
<path d="M314.338 22L306.314 40.8524C305.5 42.8994 304.488 44.3412 303.278 45.1776C302.088 46.014 300.646 46.4322 298.952 46.4322C298.028 46.4322 297.114 46.2892 296.212 46.003C295.31 45.7168 294.572 45.3206 294 44.8144L295.882 41.1496C296.278 41.5018 296.728 41.7768 297.236 41.975C297.764 42.173 298.28 42.2722 298.786 42.2722C299.492 42.2722 300.064 42.096 300.504 41.7438C300.944 41.4136 301.34 40.8524 301.692 40.06L301.758 39.895L294.066 22H299.382L304.366 34.051L309.386 22H314.338Z" fill="#F77E23"/>
</svg>
