<svg width="24" height="24" viewBox="0 0 24 24" fill="none" xmlns="http://www.w3.org/2000/svg">
<path opacity="0.4" d="M19 9C19 10.45 18.57 11.78 17.83 12.89C16.75 14.49 15.04 15.62 13.05 15.91C12.71 15.97 12.36 16 12 16C11.64 16 11.29 15.97 10.95 15.91C8.96 15.62 7.25 14.49 6.17 12.89C5.43 11.78 5 10.45 5 9C5 5.13 8.13 2 12 2C15.87 2 19 5.13 19 9Z" fill="#DD6E20"/>
<path d="M21.25 18.47L19.6 18.86C19.23 18.95 18.94 19.23 18.86 19.6L18.51 21.07C18.32 21.87 17.3 22.11 16.77 21.48L12 16L7.23 21.49C6.7 22.12 5.68 21.88 5.49 21.08L5.14 19.61C5.05 19.24 4.76 18.95 4.4 18.87L2.75 18.48C1.99 18.3 1.72 17.35 2.27 16.8L6.17 12.9C7.25 14.5 8.96 15.63 10.95 15.92C11.29 15.98 11.64 16.01 12 16.01C12.36 16.01 12.71 15.98 13.05 15.92C15.04 15.63 16.75 14.5 17.83 12.9L21.73 16.8C22.28 17.34 22.01 18.29 21.25 18.47Z" fill="#DD6E20"/>
<path d="M12.58 5.98L13.17 7.15999C13.25 7.31999 13.46 7.48 13.65 7.51L14.72 7.68999C15.4 7.79999 15.56 8.3 15.07 8.79L14.24 9.61998C14.1 9.75998 14.02 10.03 14.07 10.23L14.31 11.26C14.5 12.07 14.07 12.39 13.35 11.96L12.35 11.37C12.17 11.26 11.87 11.26 11.69 11.37L10.69 11.96C9.97 12.38 9.54 12.07 9.73 11.26L9.97 10.23C10.01 10.04 9.94 9.75998 9.8 9.61998L8.97 8.79C8.48 8.3 8.64 7.80999 9.32 7.68999L10.39 7.51C10.57 7.48 10.78 7.31999 10.86 7.15999L11.45 5.98C11.74 5.34 12.26 5.34 12.58 5.98Z" fill="#DD6E20"/>
</svg>
