<svg width="32" height="32" viewBox="0 0 32 32" fill="none" xmlns="http://www.w3.org/2000/svg">
<path d="M17.7333 10.8133L19.4933 14.3333C19.7333 14.8133 20.3733 15.2933 20.9066 15.3733L24.0933 15.9066C26.1333 16.2533 26.6133 17.72 25.1466 19.1866L22.6666 21.6666C22.2533 22.08 22.0133 22.8933 22.1466 23.48L22.8533 26.56C23.4133 28.9866 22.12 29.9333 19.9733 28.6666L16.9866 26.8933C16.4399 26.5733 15.56 26.5733 15.0133 26.8933L12.0266 28.6666C9.87994 29.9333 8.5866 28.9866 9.1466 26.56L9.85331 23.48C9.98664 22.9066 9.74662 22.0933 9.33329 21.6666L6.85331 19.1866C5.38664 17.72 5.86661 16.24 7.90661 15.9066L11.0933 15.3733C11.6266 15.28 12.2666 14.8133 12.5066 14.3333L14.2666 10.8133C15.2133 8.90663 16.7866 8.90663 17.7333 10.8133Z" fill="#DD7824"/>
<path opacity="0.4" d="M8 13C7.45333 13 7 12.5467 7 12V2.66669C7 2.12002 7.45333 1.66669 8 1.66669C8.54667 1.66669 9 2.12002 9 2.66669V12C9 12.5467 8.54667 13 8 13Z" fill="#DD7824"/>
<path opacity="0.4" d="M24 13C23.4533 13 23 12.5467 23 12V2.66669C23 2.12002 23.4533 1.66669 24 1.66669C24.5467 1.66669 25 2.12002 25 2.66669V12C25 12.5467 24.5467 13 24 13Z" fill="#DD7824"/>
<path opacity="0.4" d="M16 6.33335C15.4533 6.33335 15 5.88002 15 5.33335V2.66669C15 2.12002 15.4533 1.66669 16 1.66669C16.5467 1.66669 17 2.12002 17 2.66669V5.33335C17 5.88002 16.5467 6.33335 16 6.33335Z" fill="#DD7824"/>
</svg>
