<svg width="24" height="24" viewBox="0 0 24 24" fill="none" xmlns="http://www.w3.org/2000/svg">
<path opacity="0.4" d="M21.0496 11.71V17.7C21.0496 20.46 18.8096 22.7 16.0496 22.7H7.30957C7.07957 22.7 6.84958 22.68 6.62958 22.65C6.99958 22.49 7.32958 22.2699 7.62958 21.9999C7.66958 21.9699 7.69955 21.94 7.72955 21.9C7.99955 21.67 8.22956 21.3799 8.41956 21.0599C8.78956 20.4599 8.99957 19.7499 8.99957 18.9999C8.99957 17.9499 8.58957 17 7.92957 16.28C7.82957 16.17 7.71955 16.0599 7.59955 15.9699C6.89955 15.3599 5.99957 14.9999 4.99957 14.9999C4.28957 14.9999 3.61955 15.19 3.03955 15.52C2.84955 15.62 2.66957 15.7399 2.49957 15.8799C2.42957 15.9299 2.36957 15.9899 2.30957 16.0499V11.78C3.06957 12.6 4.14958 13.0699 5.31958 13.0699C6.57958 13.0699 7.78956 12.4399 8.54956 11.4299C9.22956 12.4399 10.3896 13.0699 11.6796 13.0699C12.9596 13.0699 14.0996 12.4699 14.7896 11.4699C15.5596 12.4599 16.7496 13.0699 17.9896 13.0699C19.1996 13.0699 20.2996 12.58 21.0496 11.71Z" fill="#DD6E20"/>
<path d="M14.67 1.57007H8.66996L7.92997 8.93005C7.86997 9.61005 7.96995 10.2501 8.21995 10.8301C8.79995 12.1901 10.16 13.0701 11.68 13.0701C13.22 13.0701 14.55 12.2101 15.15 10.8401C15.33 10.4101 15.44 9.91009 15.45 9.40009V9.21008L14.67 1.57007Z" fill="#DD6E20"/>
<path opacity="0.6" d="M22.04 8.59009L21.76 5.81006C21.34 2.79006 19.97 1.56006 17.04 1.56006H13.2L13.94 9.06006C13.95 9.16006 13.96 9.27008 13.96 9.46008C14.02 9.98008 14.18 10.4601 14.42 10.8901C15.14 12.2101 16.54 13.0601 18 13.0601C19.33 13.0601 20.53 12.4701 21.28 11.4301C21.87 10.6401 22.14 9.63009 22.04 8.59009Z" fill="#DD6E20"/>
<path opacity="0.6" d="M6.27031 1.57007C3.33031 1.57007 1.97027 2.80004 1.54027 5.85004L1.27031 8.60004C1.17031 9.67004 1.46032 10.7101 2.09032 11.5201C2.85032 12.5101 4.0203 13.0701 5.3203 13.0701C6.7803 13.0701 8.18031 12.22 8.89031 10.92C9.15031 10.47 9.32029 9.95003 9.37029 9.41003L10.1503 1.58008H6.27031V1.57007Z" fill="#DD6E20"/>
<path d="M7.92999 16.28C7.82999 16.17 7.71998 16.06 7.59998 15.97C6.89998 15.36 6 15 5 15C4.29 15 3.61998 15.19 3.03998 15.52C2.84998 15.62 2.67 15.74 2.5 15.88C1.58 16.61 1 17.74 1 19C1 19.75 1.21002 20.46 1.58002 21.06C1.67002 21.22 1.78002 21.37 1.90002 21.51C1.92002 21.54 1.94997 21.56 1.96997 21.59C2.68997 22.45 3.78 23 5 23C6.01 23 6.93001 22.63 7.63 22C7.67 21.97 7.69998 21.94 7.72998 21.9C7.99998 21.67 8.22998 21.38 8.41998 21.06C8.78998 20.46 9 19.75 9 19C9 17.95 8.58999 17 7.92999 16.28ZM6.5 19.73H5.75V20.51C5.75 20.92 5.41 21.26 5 21.26C4.59 21.26 4.25 20.92 4.25 20.51V19.73H3.5C3.09 19.73 2.75 19.39 2.75 18.98C2.75 18.57 3.09 18.23 3.5 18.23H4.25V17.52C4.25 17.11 4.59 16.77 5 16.77C5.41 16.77 5.75 17.11 5.75 17.52V18.23H6.5C6.91 18.23 7.25 18.57 7.25 18.98C7.25 19.39 6.91 19.73 6.5 19.73Z" fill="#DD6E20"/>
</svg>
