<svg width="16" height="16" viewBox="0 0 16 16" fill="none" xmlns="http://www.w3.org/2000/svg">
<path opacity="0.4" d="M13.0267 4.36001L10.98 2.31334C10.3533 1.68667 9.50666 1.34001 8.62 1.34001H5.33333C3.33333 1.34001 2 2.67334 2 4.67334V11.34C2 13.34 3.33333 14.6733 5.33333 14.6733H10.6667C12.6667 14.6733 14 13.34 14 11.34V6.71999C14 5.82666 13.6467 4.98001 13.0267 4.36001Z" fill="#DD6E20"/>
<path d="M6.33362 12.5C6.20695 12.5 6.08029 12.4533 5.98029 12.3533L4.64695 11.02C4.45362 10.8266 4.45362 10.5066 4.64695 10.3133L5.98029 8.97996C6.17362 8.78663 6.49362 8.78663 6.68695 8.97996C6.88028 9.17329 6.88028 9.49329 6.68695 9.68663L5.70695 10.6666L6.68695 11.6466C6.88028 11.84 6.88028 12.16 6.68695 12.3533C6.58695 12.4533 6.46029 12.5 6.33362 12.5Z" fill="#DD6E20"/>
<path d="M9.66697 12.5C9.54031 12.5 9.41364 12.4533 9.31364 12.3533C9.12031 12.16 9.12031 11.84 9.31364 11.6466L10.2936 10.6666L9.31364 9.68663C9.12031 9.49329 9.12031 9.17329 9.31364 8.97996C9.50697 8.78663 9.82697 8.78663 10.0203 8.97996L11.3536 10.3133C11.547 10.5066 11.547 10.8266 11.3536 11.02L10.0203 12.3533C9.92031 12.4533 9.79364 12.5 9.66697 12.5Z" fill="#DD6E20"/>
</svg>
