<svg width="16" height="17" viewBox="0 0 16 17" fill="none" xmlns="http://www.w3.org/2000/svg">
<path opacity="0.4" d="M7.99998 15.1666C11.6819 15.1666 14.6666 12.1818 14.6666 8.49992C14.6666 4.81802 11.6819 1.83325 7.99998 1.83325C4.31808 1.83325 1.33331 4.81802 1.33331 8.49992C1.33331 12.1818 4.31808 15.1666 7.99998 15.1666Z" fill="#DD6E20"/>
<path d="M7.05364 10.8867C6.92031 10.8867 6.79364 10.8334 6.70031 10.7401L4.81364 8.8534C4.62031 8.66006 4.62031 8.34007 4.81364 8.14673C5.00697 7.9534 5.32697 7.9534 5.52031 8.14673L7.05364 9.68007L10.4803 6.2534C10.6736 6.06007 10.9936 6.06007 11.187 6.2534C11.3803 6.44673 11.3803 6.76673 11.187 6.96006L7.40697 10.7401C7.31364 10.8334 7.18697 10.8867 7.05364 10.8867Z" fill="#DD6E20"/>
</svg>
