<svg width="20" height="20" viewBox="0 0 20 20" fill="white" xmlns="http://www.w3.org/2000/svg">
<path opacity="0.4" d="M17.575 17.9167C17.575 18.15 17.3917 18.3334 17.1584 18.3334H2.84172C2.60838 18.3334 2.42505 18.15 2.42505 17.9167C2.42505 14.4667 5.82505 11.6667 10 11.6667C10.8584 11.6667 11.6917 11.7833 12.4584 12.0083C11.9667 12.5917 11.6667 13.35 11.6667 14.1667C11.6667 14.7917 11.8417 15.3834 12.15 15.8834C12.3167 16.1667 12.5334 16.425 12.7834 16.6417C13.3667 17.175 14.1417 17.5 15 17.5C15.9334 17.5 16.7751 17.1167 17.3751 16.5C17.5084 16.95 17.575 17.425 17.575 17.9167Z" fill="inherit"/>
<path d="M17.475 11.9417C16.875 11.2583 15.9834 10.8333 15 10.8333C14.0667 10.8333 13.2167 11.2167 12.6084 11.8417C12.025 12.4417 11.6667 13.2666 11.6667 14.1666C11.6667 14.7916 11.8417 15.3833 12.15 15.8833C12.3167 16.1666 12.5334 16.425 12.7834 16.6416C13.3667 17.175 14.1417 17.5 15 17.5C16.2167 17.5 17.275 16.85 17.85 15.8833C18.025 15.6 18.1584 15.275 18.2334 14.9416C18.3 14.6916 18.3334 14.4333 18.3334 14.1666C18.3334 13.3166 18.0084 12.5333 17.475 11.9417ZM16.25 14.775H15.625V15.425C15.625 15.7667 15.3417 16.05 15 16.05C14.6584 16.05 14.375 15.7667 14.375 15.425V14.775H13.75C13.4084 14.775 13.125 14.4916 13.125 14.15C13.125 13.8083 13.4084 13.525 13.75 13.525H14.375V12.9333C14.375 12.5917 14.6584 12.3083 15 12.3083C15.3417 12.3083 15.625 12.5917 15.625 12.9333V13.525H16.25C16.5917 13.525 16.875 13.8083 16.875 14.15C16.875 14.4916 16.5917 14.775 16.25 14.775Z" fill="inherit"/>
<path d="M9.99998 10C12.3012 10 14.1666 8.13454 14.1666 5.83335C14.1666 3.53217 12.3012 1.66669 9.99998 1.66669C7.69879 1.66669 5.83331 3.53217 5.83331 5.83335C5.83331 8.13454 7.69879 10 9.99998 10Z" fill="inherit"/>
</svg>
