<svg width="16" height="16" viewBox="0 0 16 16" fill="#DD6E20" xmlns="http://www.w3.org/2000/svg">
<path d="M11.0997 13.4667V13.66C10.113 14.2933 8.93302 14.6667 7.66635 14.6667C6.37969 14.6667 5.17969 14.28 4.17969 13.62V13.4667C4.17969 11.9133 5.73302 10.6466 7.63969 10.6466C9.55302 10.6466 11.0997 11.9133 11.0997 13.4667Z" fill="inherit"/>
<path opacity="0.4" d="M14 8.33333C14 10.5667 12.8467 12.5267 11.1 13.66V13.4667C11.1 11.9133 9.55333 10.6466 7.64 10.6466C5.73333 10.6466 4.18 11.9133 4.18 13.4667V13.62C2.46667 12.4867 1.33333 10.5467 1.33333 8.33333C1.33333 4.83333 4.16667 2 7.66667 2C8.54 2 9.37333 2.17333 10.1333 2.49333C10.0467 2.75999 10 3.04 10 3.33333C10 3.83333 10.14 4.30666 10.3867 4.70666C10.52 4.93333 10.6933 5.13998 10.8933 5.31331C11.36 5.73998 11.98 6 12.6667 6C12.96 6 13.24 5.95332 13.5 5.85999C13.82 6.61999 14 7.46 14 8.33333Z" fill="inherit"/>
<path d="M14.6467 1.55333C14.1667 1.00667 13.4533 0.666656 12.6667 0.666656C11.92 0.666656 11.24 0.973338 10.7533 1.47334C10.4733 1.76 10.26 2.10665 10.1333 2.49332C10.0467 2.75998 10 3.03999 10 3.33332C10 3.83332 10.14 4.30665 10.3867 4.70665C10.52 4.93332 10.6933 5.13997 10.8933 5.3133C11.36 5.73997 11.98 5.99999 12.6667 5.99999C12.96 5.99999 13.24 5.95331 13.5 5.85998C14.1133 5.66664 14.6267 5.24666 14.9467 4.70665C15.0867 4.47999 15.1933 4.21999 15.2533 3.95332C15.3067 3.75332 15.3333 3.54666 15.3333 3.33332C15.3333 2.65332 15.0733 2.02667 14.6467 1.55333ZM13.66 3.81998H13.1667V4.34C13.1667 4.61333 12.94 4.84 12.6667 4.84C12.3933 4.84 12.1667 4.61333 12.1667 4.34V3.81998H11.6733C11.4 3.81998 11.1733 3.59331 11.1733 3.31998C11.1733 3.04664 11.4 2.81998 11.6733 2.81998H12.1667V2.34667C12.1667 2.07334 12.3933 1.84667 12.6667 1.84667C12.94 1.84667 13.1667 2.07334 13.1667 2.34667V2.81998H13.66C13.9333 2.81998 14.16 3.04664 14.16 3.31998C14.16 3.59331 13.94 3.81998 13.66 3.81998Z" fill="inherit"/>
<path d="M7.64026 9.81991C8.67487 9.81991 9.51359 8.98119 9.51359 7.94657C9.51359 6.91196 8.67487 6.07324 7.64026 6.07324C6.60564 6.07324 5.76693 6.91196 5.76693 7.94657C5.76693 8.98119 6.60564 9.81991 7.64026 9.81991Z" fill="inherit"/>
</svg>
