<svg width="72" height="30" viewBox="0 0 72 30" fill="none" xmlns="http://www.w3.org/2000/svg">
<path d="M71.7757 15.4318C71.7757 10.3277 69.3034 6.30028 64.5782 6.30028C59.8329 6.30028 56.9619 10.3278 56.9619 15.392C56.9619 21.3931 60.3515 24.4236 65.2161 24.4236C67.5887 24.4236 69.3831 23.8853 70.7389 23.1278V19.1401C69.3833 19.8181 67.828 20.2368 65.8542 20.2368C63.9202 20.2368 62.2056 19.5589 61.9863 17.2063H71.7359C71.7359 16.9469 71.7757 15.9102 71.7757 15.4318ZM61.9265 13.5377C61.9265 11.2848 63.3022 10.3476 64.5583 10.3476C65.7744 10.3476 67.0705 11.2848 67.0705 13.5377H61.9265ZM49.2662 6.30028C47.3121 6.30028 46.056 7.21738 45.3583 7.85551L45.099 6.61935H40.7128V29.8665L45.6972 28.81L45.7172 23.1676C46.435 23.686 47.4915 24.4236 49.2461 24.4236C52.815 24.4236 56.0648 21.5526 56.0648 15.2324C56.0449 9.45042 52.7551 6.30028 49.266 6.30028H49.2662ZM48.0698 20.0373C46.8935 20.0373 46.1955 19.6187 45.7172 19.1003L45.6972 11.7034C46.2156 11.1252 46.9333 10.7265 48.0698 10.7265C49.8841 10.7265 51.1402 12.7601 51.1402 15.3719C51.1402 18.0436 49.904 20.0373 48.0698 20.0373ZM33.8542 5.12397L38.8586 4.04734V0L33.8542 1.05673V5.12383V5.12397ZM33.8542 6.63925H38.8586V24.0847H33.8542V6.63925ZM28.491 8.11458L28.172 6.63925H23.8654V24.0847H28.8499V12.2617C30.0261 10.7265 32.02 11.0057 32.638 11.2249V6.63925C32 6.39995 29.6673 5.96131 28.491 8.11458ZM18.5221 2.3128L13.6573 3.34949L13.6374 19.3196C13.6374 22.2705 15.8505 24.4436 18.8013 24.4436C20.4362 24.4436 21.6324 24.1445 22.2903 23.7857V19.7383C21.6524 19.9975 18.5021 20.9146 18.5021 17.9638V10.8859H22.2903V6.63925H18.5021L18.5221 2.3128ZM5.04421 11.7034C5.04421 10.9259 5.6822 10.6267 6.73907 10.6267C8.25421 10.6267 10.1682 11.0854 11.6835 11.9028V7.21738C10.0287 6.55949 8.39383 6.30028 6.73907 6.30028C2.69159 6.30028 0 8.41374 0 11.9428C0 17.4454 7.57626 16.5683 7.57626 18.9409C7.57626 19.8579 6.77888 20.1571 5.66229 20.1571C4.00752 20.1571 1.89407 19.4791 0.219252 18.562V23.3072C2.0735 24.1047 3.94766 24.4436 5.66229 24.4436C9.8093 24.4436 12.6604 22.3901 12.6604 18.8212C12.6405 12.8798 5.04421 13.9364 5.04421 11.7034Z" fill="#635BFF"/>
</svg>
