<?xml version="1.0" encoding="iso-8859-1"?>
<!-- Generator: Adobe Illustrator 19.0.0, SVG Export Plug-In . SVG Version: 6.00 Build 0)  -->
<svg version="1.1" id="Layer_1" xmlns="http://www.w3.org/2000/svg" xmlns:xlink="http://www.w3.org/1999/xlink" x="0px" y="0px"
	 viewBox="0 0 512 512" style="enable-background:new 0 0 512 512;" xml:space="preserve">
<g>
	<g>
		<g>
			<path d="M202.105,91.621H363.79c16.344,0,29.642-13.297,29.642-29.642c0-5.188-1.382-10.317-3.996-14.83
				c-2.238-3.863-7.181-5.182-11.047-2.945c-3.863,2.238-5.183,7.184-2.944,11.047c1.207,2.085,1.819,4.348,1.819,6.728
				c0,7.43-6.044,13.474-13.474,13.474H202.106c-7.43,0-13.474-6.044-13.474-13.474s6.043-13.475,13.473-13.475h121.475
				c2.891,0,5.56-1.542,7.004-4.046c1.443-2.504,1.44-5.588-0.009-8.089c-1.207-2.085-1.818-4.348-1.818-6.728
				c0-7.43,6.044-13.474,13.474-13.474h140.126c7.43,0,13.474,6.044,13.474,13.474c0,7.43-6.044,13.474-13.474,13.474h-68.985
				c-4.466,0-8.084,3.62-8.084,8.084s3.619,8.084,8.084,8.084h68.985c16.344,0,29.642-13.297,29.642-29.642
				C512,13.297,498.702,0,482.358,0H342.232c-16.344,0-29.642,13.297-29.642,29.642c0,0.901,0.042,1.8,0.124,2.695H202.105
				c-16.344,0-29.642,13.297-29.642,29.642C172.463,78.324,185.761,91.621,202.105,91.621z"/>
			<path d="M493.137,334.147H374.568c-10.401,0-18.863,8.463-18.863,18.863v19.402c0,4.465,3.618,8.084,8.084,8.084
				c4.466,0,8.084-3.62,8.084-8.084V353.01c0-1.485,1.208-2.695,2.695-2.695h118.568c1.486,0,2.695,1.209,2.695,2.695v32.337
				c0,1.485-1.208,2.695-2.695,2.695h-204.8c-10.401,0-18.863,8.463-18.863,18.863v88.926h-48.505V460.8
				c0-10.401-8.463-18.863-18.863-18.863h-45.811v-307.2H374.38c0.129,0.003,0.252,0.003,0.376,0H409.6v114.3
				c-12.428,3.527-21.558,14.977-21.558,28.521c0,16.345,13.298,29.642,29.642,29.642s29.642-13.297,29.642-29.642
				c0-4.465-3.618-8.084-8.084-8.084c-4.466,0-8.084,3.62-8.084,8.084c0,7.43-6.044,13.474-13.474,13.474
				s-13.474-6.044-13.474-13.474s6.044-13.474,13.474-13.474c4.466,0,8.084-3.62,8.084-8.084V134.737h2.695
				c4.466,0,8.084-3.62,8.084-8.084c0-4.465-3.618-8.084-8.084-8.084h-52.471L322.396,99.08c-4.198-1.525-8.834,0.639-10.361,4.834
				c-1.525,4.195,0.638,8.833,4.834,10.36l11.81,4.294H118.568V8.084c0-4.465-3.62-8.084-8.084-8.084
				c-4.465,0-8.084,3.62-8.084,8.084v110.484H25.9l63.721-72.825c2.939-3.36,2.599-8.467-0.761-11.407
				c-3.36-2.938-8.466-2.599-11.407,0.761L2.029,121.297C0,123.588-0.001,126.385,0,126.689v64.637
				c0,10.401,8.463,18.863,18.863,18.863h21.558c10.401,0,18.863-8.463,18.863-18.863v-56.589h26.947v45.621
				c-0.003,0.126-0.003,0.251,0,0.377v44.894c-0.003,0.126-0.003,0.251,0,0.377v44.894c-0.003,0.126-0.003,0.251,0,0.377v44.894
				c-0.003,0.126-0.003,0.251,0,0.377v44.894c-0.003,0.126-0.003,0.251,0,0.377v44.894c-0.003,0.126-0.003,0.251,0,0.377v34.844
				H29.642c-10.401,0-18.863,8.463-18.863,18.863v35.032H8.084c-4.465,0-8.084,3.62-8.084,8.084C0,508.38,3.62,512,8.084,512
				h140.126c4.465,0,8.084-3.62,8.084-8.084c0-4.465-3.62-8.084-8.084-8.084H26.947V460.8c0-1.485,1.209-2.695,2.695-2.695h172.463
				c1.485,0,2.695,1.209,2.695,2.695v35.032h-24.253c-4.465,0-8.084,3.62-8.084,8.084c0,4.465,3.62,8.084,8.084,8.084h323.368
				c4.466,0,8.084-3.62,8.084-8.084c0-4.465-3.618-8.084-8.084-8.084h-13.474V460.8c0-10.401-8.463-18.863-18.863-18.863h-96.741
				c-4.466,0-8.084,3.62-8.084,8.084c0,4.465,3.619,8.084,8.084,8.084h96.741c1.486,0,2.695,1.209,2.695,2.695v35.032H285.642
				v-37.726h57.398c4.466,0,8.084-3.62,8.084-8.084c0-4.465-3.618-8.084-8.084-8.084h-57.398v-35.032
				c0-1.485,1.208-2.695,2.695-2.695h142.821v22.366c0,4.465,3.618,8.084,8.084,8.084c4.466,0,8.084-3.62,8.084-8.084v-22.366
				h45.811c10.401,0,18.863-8.463,18.863-18.863V353.01C512,342.61,503.537,334.147,493.137,334.147z M43.116,191.326
				c0,1.485-1.209,2.695-2.695,2.695H18.863c-1.485,0-2.695-1.209-2.695-2.695v-56.589h26.947V191.326z M140.126,441.937H102.4
				v-29.204l26.808-8.936c4.236-1.412,6.526-5.991,5.114-10.226c-1.412-4.236-5.992-6.526-10.226-5.114l-21.696,7.232v-28.228
				l26.808-8.936c4.236-1.412,6.526-5.991,5.114-10.226c-1.412-4.237-5.992-6.524-10.226-5.114l-21.696,7.232v-28.228l26.808-8.936
				c4.236-1.412,6.526-5.991,5.114-10.226c-1.412-4.236-5.992-6.526-10.226-5.114l-21.696,7.232v-28.228l26.808-8.936
				c4.236-1.412,6.526-5.991,5.114-10.226c-1.412-4.236-5.992-6.525-10.226-5.114l-21.696,7.232v-28.228l26.808-8.936
				c4.236-1.412,6.526-5.991,5.114-10.226c-1.412-4.237-5.992-6.526-10.226-5.114l-21.696,7.232v-28.228l26.808-8.936
				c4.236-1.412,6.526-5.991,5.114-10.226c-1.412-4.236-5.992-6.524-10.226-5.114l-21.696,7.232v-34.594h37.726V441.937z"/>
			<path d="M134.668,48.018l21.558,7.84c0.913,0.332,1.845,0.489,2.763,0.489c3.303,0,6.404-2.04,7.598-5.324
				c1.526-4.195-0.638-8.833-4.834-10.36l-21.558-7.84c-4.193-1.524-8.833,0.638-10.36,4.834
				C128.308,41.855,130.473,46.493,134.668,48.018z"/>
		</g>
	</g>
</g>
<g>
</g>
<g>
</g>
<g>
</g>
<g>
</g>
<g>
</g>
<g>
</g>
<g>
</g>
<g>
</g>
<g>
</g>
<g>
</g>
<g>
</g>
<g>
</g>
<g>
</g>
<g>
</g>
<g>
</g>
</svg>
