<svg width="60" height="60" viewBox="0 0 60 60" fill="none" xmlns="http://www.w3.org/2000/svg">
<path d="M18.8361 42C18.624 42 18.4086 41.9194 18.2445 41.7572C17.9185 41.4339 17.9185 40.9098 18.2445 40.5876L40.5697 18.5186C40.8978 18.1942 41.4292 18.1942 41.7551 18.5186C42.0811 18.843 42.0822 19.365 41.7551 19.6883L19.4299 41.7572C19.2658 41.9194 19.0526 42 18.8383 42H18.8361ZM38.6162 40.069H25.4533C24.9911 40.069 24.6161 39.6982 24.6161 39.2414C24.6161 38.7846 24.9911 38.4138 25.4533 38.4138H38.6162C39.0772 38.4138 39.4534 38.0419 39.4534 37.5862V24.6979C39.4534 24.24 39.8285 23.8703 40.2906 23.8703C40.7527 23.8703 41.1278 24.24 41.1278 24.6979V37.5862C41.1278 38.9545 40.0004 40.069 38.6162 40.069ZM19.6398 36.6284C19.1777 36.6284 18.8026 36.2577 18.8026 35.8008V23.8836C18.8026 22.5153 19.93 21.4008 21.3142 21.4008H23.7566C25.0905 19.291 27.4223 18 29.9652 18C32.0816 18 34.0953 18.9048 35.4851 20.4861C35.7887 20.8303 35.753 21.3534 35.4036 21.6535C35.0576 21.9548 34.5273 21.9206 34.2226 21.5741C33.151 20.3548 31.5994 19.6552 29.9652 19.6552C27.8633 19.6552 25.9489 20.7972 24.9699 22.6367C24.7913 22.9699 24.4073 23.1443 24.039 23.056H21.3142C20.8532 23.056 20.477 23.429 20.477 23.8836V35.8008C20.477 36.2577 20.1019 36.6284 19.6398 36.6284Z" fill="white" fill-opacity="0.4"/>
<path d="M25.3774 30.9953C24.9142 30.9953 24.5402 30.6245 24.5402 30.1677C24.5402 27.2104 26.9737 24.8049 29.9652 24.8049C30.4274 24.8049 30.8024 25.1757 30.8024 25.6325C30.8024 26.0893 30.4274 26.4601 29.9652 26.4601C27.8957 26.4601 26.2146 28.1241 26.2146 30.1677C26.2146 30.6245 25.8384 30.9953 25.3774 30.9953V30.9953ZM29.9652 35.5338C29.5031 35.5338 29.128 35.1619 29.128 34.7062C29.128 34.2504 29.5031 33.8786 29.9652 33.8786C32.0348 33.8786 33.7159 32.2124 33.7159 30.1688C33.7159 29.712 34.0921 29.3412 34.5531 29.3412C35.0141 29.3412 35.3903 29.712 35.3903 30.1688C35.3903 33.126 32.9568 35.5316 29.9652 35.5316V35.5338Z" fill="white" fill-opacity="0.4"/>
</svg>
