<svg width="400" height="300" viewBox="0 0 400 300" fill="none" xmlns="http://www.w3.org/2000/svg">
<g clip-path="url(#clip0_108_355)">
<rect width="400" height="300" rx="12" fill="white"/>
<path d="M29 38C29 33.5817 32.5817 30 37 30H364C368.418 30 372 33.5817 372 38V252H29V38Z" fill="#F9F9F9"/>
<path d="M263.337 68.9893C258.889 68.9858 254.501 70.0699 250.518 72.1563C246.536 74.2426 243.067 77.2743 240.385 81.0127C237.506 79.7077 234.365 79.1762 231.244 79.4659C228.122 79.7556 225.117 80.8574 222.499 82.6724C219.882 84.4874 217.733 86.9589 216.246 89.8648C214.759 92.7708 213.98 96.0204 213.979 99.3218H292.13C292.13 95.3385 291.385 91.3941 289.938 87.714C288.491 84.0339 286.37 80.6901 283.697 77.8735C281.023 75.0568 277.849 72.8225 274.356 71.2982C270.862 69.7738 267.118 68.9893 263.337 68.9893V68.9893Z" fill="#E6E6E6"/>
<path d="M92.1303 187.719C117.738 187.719 138.497 165.849 138.497 138.872C138.497 111.895 117.738 90.0254 92.1303 90.0254C66.5227 90.0254 45.7637 111.895 45.7637 138.872C45.7637 165.849 66.5227 187.719 92.1303 187.719Z" fill="#C6C6C6"/>
<path d="M371.671 251.51H53.652C49.7221 251.498 49.5 251.51 42.5 251.51H29.5L36.9265 238.97L38.9009 235.97L124.616 105.96L133.415 92.61C133.957 91.7883 134.679 91.117 135.521 90.6534C136.362 90.1897 137.297 89.9475 138.247 89.9475C139.196 89.9475 140.132 90.1897 140.973 90.6534C141.815 91.117 142.537 91.7883 143.079 92.61L169.828 133.18V133.19L185.566 157.06L223.136 214.04L280.118 128.35C280.661 127.533 281.382 126.865 282.222 126.404C283.061 125.943 283.994 125.702 284.94 125.702C285.887 125.702 286.82 125.943 287.659 126.404C288.499 126.865 289.22 127.533 289.762 128.35L326.317 183.31L328.415 186.47L370.342 249.51L371.671 251.51Z" fill="#E1E1E1"/>
<path d="M201.8 119.637C196.312 119.633 190.898 120.971 185.984 123.545C181.07 126.119 176.79 129.859 173.482 134.471C169.93 132.861 166.055 132.206 162.203 132.563C158.352 132.92 154.645 134.28 151.415 136.519C148.186 138.758 145.534 141.808 143.699 145.393C141.865 148.978 140.904 152.987 140.903 157.061H237.323C237.323 152.146 236.404 147.28 234.619 142.739C232.833 138.199 230.217 134.073 226.918 130.598C223.62 127.123 219.703 124.367 215.394 122.486C211.084 120.605 206.465 119.637 201.8 119.637V119.637Z" fill="#CCCCCC"/>
<path d="M-0.5 194L73 124.5L121 194L204.5 78.5L249 154.5L283 106.5L400.5 220.5" stroke="white" stroke-width="14"/>
</g>
<rect x="0.5" y="0.5" width="399" height="299" rx="11.5" stroke="#E6E6E6"/>
<defs>
<clipPath id="clip0_108_355">
<rect width="400" height="300" rx="12" fill="white"/>
</clipPath>
</defs>
</svg>
