<svg width="40" height="40" viewBox="0 0 40 40" fill="none" xmlns="http://www.w3.org/2000/svg">
<rect width="40" height="40" rx="4" fill="#FBEEE6"/>
<path opacity="0.4" d="M26.3801 20.84V25.77C26.3801 27.04 25.3901 28.4 24.2001 28.8L21.0101 29.86C20.4501 30.05 19.5401 30.05 18.9901 29.86L15.8001 28.8C14.6001 28.4 13.6201 27.04 13.6201 25.77L13.6301 20.84L18.0501 23.72C19.1301 24.43 20.9101 24.43 21.9901 23.72L26.3801 20.84Z" fill="#DD6E20"/>
<path d="M27.9795 14.4601L21.9895 10.5301C20.9095 9.82006 19.1295 9.82006 18.0495 10.5301L12.0295 14.4601C10.0995 15.7101 10.0995 18.5401 12.0295 19.8001L13.6295 20.8401L18.0495 23.7201C19.1295 24.4301 20.9095 24.4301 21.9895 23.7201L26.3795 20.8401L27.7495 19.9401V23.0001C27.7495 23.4101 28.0895 23.7501 28.4995 23.7501C28.9095 23.7501 29.2495 23.4101 29.2495 23.0001V18.0801C29.6495 16.7901 29.2395 15.2901 27.9795 14.4601Z" fill="#DD6E20"/>
</svg>
