<svg width="40" height="40" viewBox="0 0 40 40" fill="none" xmlns="http://www.w3.org/2000/svg">
<rect width="40" height="40" rx="4" fill="#FBEEE6"/>
<path opacity="0.4" d="M27 17C27 18.45 26.57 19.78 25.83 20.89C24.75 22.49 23.04 23.62 21.05 23.91C20.71 23.97 20.36 24 20 24C19.64 24 19.29 23.97 18.95 23.91C16.96 23.62 15.25 22.49 14.17 20.89C13.43 19.78 13 18.45 13 17C13 13.13 16.13 10 20 10C23.87 10 27 13.13 27 17Z" fill="#DD6E20"/>
<path d="M29.2501 26.47L27.6001 26.86C27.2301 26.95 26.9401 27.23 26.8601 27.6L26.5101 29.07C26.3201 29.87 25.3001 30.11 24.7701 29.48L20.0001 24L15.2301 29.49C14.7001 30.12 13.6801 29.88 13.4901 29.08L13.1401 27.61C13.0501 27.24 12.7601 26.95 12.4001 26.87L10.7501 26.48C9.99008 26.3 9.72008 25.35 10.2701 24.8L14.1701 20.9C15.2501 22.5 16.9601 23.63 18.9501 23.92C19.2901 23.98 19.6401 24.01 20.0001 24.01C20.3601 24.01 20.7101 23.98 21.0501 23.92C23.0401 23.63 24.7501 22.5 25.8301 20.9L29.7301 24.8C30.2801 25.34 30.0101 26.29 29.2501 26.47Z" fill="#DD6E20"/>
<path d="M20.58 13.98L21.17 15.16C21.25 15.32 21.46 15.48 21.65 15.51L22.72 15.69C23.4 15.8 23.56 16.3 23.07 16.79L22.24 17.62C22.1 17.76 22.02 18.03 22.07 18.23L22.31 19.26C22.5 20.07 22.07 20.39 21.35 19.96L20.35 19.37C20.17 19.26 19.87 19.26 19.69 19.37L18.69 19.96C17.97 20.38 17.54 20.07 17.73 19.26L17.97 18.23C18.01 18.04 17.94 17.76 17.8 17.62L16.97 16.79C16.48 16.3 16.64 15.81 17.32 15.69L18.39 15.51C18.57 15.48 18.78 15.32 18.86 15.16L19.45 13.98C19.74 13.34 20.26 13.34 20.58 13.98Z" fill="#DD6E20"/>
</svg>
