<svg width="40" height="40" viewBox="0 0 40 40" fill="none" xmlns="http://www.w3.org/2000/svg">
<rect width="40" height="40" rx="4" fill="#FBEEE6"/>
<path opacity="0.4" d="M20 13.2999V29.3299C19.83 29.3299 19.65 29.2999 19.51 29.2199L19.47 29.1999C17.55 28.1499 14.2 27.0499 12.03 26.7599L11.74 26.7199C10.78 26.5999 10 25.6999 10 24.7399V12.6599C10 11.4699 10.97 10.5699 12.16 10.6699C14.26 10.8399 17.44 11.8999 19.22 13.0099L19.47 13.1599C19.62 13.2499 19.81 13.2999 20 13.2999Z" fill="#DD6E20"/>
<path d="M30 12.67V24.74C30 25.7 29.22 26.6 28.26 26.72L27.93 26.76C25.75 27.05 22.39 28.16 20.47 29.22C20.34 29.3 20.18 29.33 20 29.33V13.3C20.19 13.3 20.38 13.25 20.53 13.16L20.7 13.05C22.48 11.93 25.67 10.86 27.77 10.68H27.83C29.02 10.58 30 11.47 30 12.67Z" fill="#DD6E20"/>
<path d="M15.75 17.24H13.5C13.09 17.24 12.75 16.9 12.75 16.49C12.75 16.08 13.09 15.74 13.5 15.74H15.75C16.16 15.74 16.5 16.08 16.5 16.49C16.5 16.9 16.16 17.24 15.75 17.24Z" fill="#DD6E20"/>
<path d="M16.5 20.24H13.5C13.09 20.24 12.75 19.9 12.75 19.49C12.75 19.08 13.09 18.74 13.5 18.74H16.5C16.91 18.74 17.25 19.08 17.25 19.49C17.25 19.9 16.91 20.24 16.5 20.24Z" fill="#DD6E20"/>
</svg>
