<svg width="16" height="22" viewBox="0 0 16 22" fill="none" xmlns="http://www.w3.org/2000/svg">
<path d="M3.05599 1.418L4.22299 1.067C4.86228 0.874225 5.54987 0.920631 6.15746 1.19756C6.76505 1.47449 7.25112 1.96302 7.52499 2.572L8.42699 4.578C8.66245 5.1018 8.72802 5.68618 8.6145 6.24914C8.50097 6.8121 8.21405 7.32539 7.79399 7.717L6.29999 9.11C6.25632 9.1507 6.22865 9.20568 6.22199 9.265C6.17799 9.662 6.44699 10.435 7.06699 11.51C7.51799 12.291 7.92699 12.84 8.27399 13.147C8.51599 13.362 8.64899 13.408 8.70599 13.392L10.716 12.777C11.2649 12.6091 11.8526 12.6172 12.3967 12.8001C12.9408 12.983 13.414 13.3316 13.75 13.797L15.031 15.573C15.4205 16.1131 15.6009 16.7762 15.5385 17.4392C15.4762 18.1022 15.1754 18.72 14.692 19.178L13.806 20.018C13.3358 20.4633 12.7582 20.7792 12.1296 20.935C11.501 21.0908 10.8428 21.0812 10.219 20.907C7.46499 20.138 4.99599 17.814 2.78399 13.983C0.568988 10.147 -0.208012 6.843 0.507988 4.07C0.669164 3.44634 0.988274 2.8747 1.43456 2.4102C1.88085 1.9457 2.43927 1.60398 3.05599 1.418ZM3.48899 2.855C3.11906 2.96646 2.78407 3.17129 2.51627 3.44977C2.24847 3.72825 2.05689 4.071 1.95999 4.445C1.35799 6.777 2.04699 9.706 4.08299 13.233C6.11599 16.755 8.30499 18.815 10.623 19.463C10.9971 19.5672 11.3919 19.5728 11.7688 19.4792C12.1457 19.3856 12.492 19.1961 12.774 18.929L13.661 18.089C13.8808 17.8808 14.0176 17.5999 14.0459 17.2984C14.0742 16.997 13.9922 16.6955 13.815 16.45L12.535 14.675C12.3822 14.4632 12.167 14.3046 11.9195 14.2214C11.672 14.1381 11.4047 14.1345 11.155 14.211L9.13999 14.828C7.96999 15.176 6.90799 14.235 5.76799 12.26C4.99999 10.93 4.64199 9.9 4.73099 9.099C4.77799 8.683 4.97099 8.299 5.27699 8.013L6.77099 6.62C6.96201 6.44202 7.09251 6.20868 7.14416 5.95275C7.19581 5.69682 7.16603 5.43114 7.05899 5.193L6.15699 3.187C6.03251 2.91041 5.81171 2.68851 5.53573 2.56267C5.25976 2.43683 4.94744 2.41562 4.65699 2.503L3.48899 2.855Z" fill="#9F9F9F"/>
</svg>
