<svg width="14" height="15" viewBox="0 0 14 15" fill="none" xmlns="http://www.w3.org/2000/svg">
<path d="M13.1875 0.890625H4.1875C4.07561 0.890625 3.96831 0.935072 3.88919 1.01419C3.81007 1.09331 3.76562 1.20061 3.76562 1.3125V4.26562H0.8125C0.700612 4.26562 0.593306 4.31007 0.514189 4.38919C0.435072 4.46831 0.390625 4.57561 0.390625 4.6875V13.6875C0.390625 13.7994 0.435072 13.9067 0.514189 13.9858C0.593306 14.0649 0.700612 14.1094 0.8125 14.1094H9.8125C9.92439 14.1094 10.0317 14.0649 10.1108 13.9858C10.1899 13.9067 10.2344 13.7994 10.2344 13.6875V10.7344H13.1875C13.2994 10.7344 13.4067 10.6899 13.4858 10.6108C13.5649 10.5317 13.6094 10.4244 13.6094 10.3125V1.3125C13.6094 1.20061 13.5649 1.09331 13.4858 1.01419C13.4067 0.935072 13.2994 0.890625 13.1875 0.890625ZM9.39062 13.2656H1.23438V5.10938H9.39062V13.2656ZM12.7656 9.89062H10.2344V4.6875C10.2344 4.57561 10.1899 4.46831 10.1108 4.38919C10.0317 4.31007 9.92439 4.26562 9.8125 4.26562H4.60938V1.73438H12.7656V9.89062Z" fill="#667085"/>
</svg>
