<svg width="24" height="20" viewBox="0 0 24 20" fill="none" xmlns="http://www.w3.org/2000/svg">
<path d="M12.459 0.6605C12.3259 0.556744 12.162 0.500397 11.9932 0.500397C11.8245 0.500397 11.6606 0.556744 11.5275 0.6605L0.75 9.06425L1.68225 10.2433L3 9.21575V18.5C3.00079 18.8976 3.15908 19.2787 3.44022 19.5598C3.72135 19.8409 4.10242 19.9992 4.5 20H19.5C19.8976 19.9992 20.2787 19.8409 20.5598 19.5598C20.8409 19.2787 20.9992 18.8976 21 18.5V9.2225L22.3177 10.25L23.25 9.071L12.459 0.6605ZM13.5 18.5H10.5V12.5H13.5V18.5ZM15 18.5V12.5C14.9996 12.1023 14.8414 11.721 14.5602 11.4398C14.279 11.1586 13.8977 11.0004 13.5 11H10.5C10.1023 11.0004 9.721 11.1586 9.43978 11.4398C9.15856 11.721 9.0004 12.1023 9 12.5V18.5H4.5V8.0465L12 2.204L19.5 8.054V18.5H15Z" fill="#DD6E20"/>
</svg>
