<svg width="32" height="32" viewBox="0 0 32 32" fill="none" xmlns="http://www.w3.org/2000/svg">
<rect width="32" height="32" rx="2" fill="#ECF6EC"/>
<path opacity="0.4" d="M21.6746 11.2094H22.8079C22.6496 10.9844 22.4829 10.776 22.3079 10.5677L21.6746 11.2094Z" fill="#4CAF50"/>
<path opacity="0.4" d="M21.4333 9.68423C21.225 9.50923 21.0166 9.34257 20.7916 9.18423V10.3176L21.4333 9.68423Z" fill="#4CAF50"/>
<path opacity="0.4" d="M20.1666 12.459C20.0833 12.459 20.0083 12.4423 19.925 12.409C19.775 12.3423 19.6499 12.2256 19.5833 12.0673C19.5499 11.9923 19.5333 11.909 19.5333 11.8256V8.49231C19.5333 8.48398 19.5416 8.47564 19.5416 8.45898C18.4666 7.95898 17.2666 7.66731 16 7.66731C11.4 7.66731 7.66663 11.4006 7.66663 16.0006C7.66663 20.6006 11.4 24.334 16 24.334C20.6 24.334 24.3333 20.6006 24.3333 16.0006C24.3333 14.734 24.0416 13.534 23.5333 12.4506C23.525 12.4506 23.5166 12.459 23.5 12.459H20.1666Z" fill="#4CAF50"/>
<path d="M22.3163 10.5662L24.7747 8.10787C25.0163 7.8662 25.0163 7.46621 24.7747 7.22454C24.533 6.98287 24.133 6.98287 23.8913 7.22454L21.433 9.68287C21.7497 9.95787 22.0413 10.2579 22.3163 10.5662Z" fill="#4CAF50"/>
<path d="M20.7915 8.5C20.7915 8.15833 20.5081 7.875 20.1665 7.875C19.8331 7.875 19.5665 8.14167 19.5498 8.46667C19.9831 8.675 20.3998 8.90833 20.7915 9.18333V8.5Z" fill="#4CAF50"/>
<path d="M24.125 11.8333C24.125 11.4917 23.8417 11.2083 23.5 11.2083H22.8083C23.0833 11.6 23.325 12.0167 23.525 12.45C23.8583 12.4333 24.125 12.1667 24.125 11.8333Z" fill="#4CAF50"/>
<path d="M17.4583 15.85L16.625 15.5583V13.7083H16.6916C17.1166 13.7083 17.4583 14.0833 17.4583 14.5417C17.4583 14.8833 17.7416 15.1667 18.0833 15.1667C18.425 15.1667 18.7083 14.8833 18.7083 14.5417C18.7083 13.3917 17.8083 12.4583 16.6916 12.4583H16.625V12.25C16.625 11.9083 16.3416 11.625 16 11.625C15.6583 11.625 15.375 11.9083 15.375 12.25V12.4583H15.125C14.1166 12.4583 13.2916 13.3083 13.2916 14.3583C13.2916 15.575 14 15.9667 14.5416 16.1583L15.375 16.45V18.3H15.3083C14.8833 18.3 14.5416 17.925 14.5416 17.4667C14.5416 17.125 14.2583 16.8417 13.9166 16.8417C13.575 16.8417 13.2916 17.125 13.2916 17.4667C13.2916 18.6167 14.1916 19.55 15.3083 19.55H15.375V19.7583C15.375 20.1 15.6583 20.3833 16 20.3833C16.3416 20.3833 16.625 20.1 16.625 19.7583V19.55H16.8749C17.8833 19.55 18.7083 18.7 18.7083 17.65C18.7083 16.425 18 16.0333 17.4583 15.85ZM14.95 14.9667C14.6666 14.8667 14.5416 14.8083 14.5416 14.35C14.5416 13.9917 14.8083 13.7 15.125 13.7H15.375V15.1083L14.95 14.9667ZM16.8749 18.2917H16.625V16.8833L17.05 17.0333C17.3333 17.1333 17.4583 17.1917 17.4583 17.65C17.4583 18 17.1916 18.2917 16.8749 18.2917Z" fill="#4CAF50"/>
</svg>
