<svg width="40" height="40" viewBox="0 0 40 40" fill="none" xmlns="http://www.w3.org/2000/svg">
<rect width="40" height="40" rx="4" fill="#FBEEE6"/>
<path opacity="0.4" d="M29.0496 19.71V25.7C29.0496 28.46 26.8096 30.7 24.0496 30.7H15.3096C15.0796 30.7 14.8496 30.68 14.6296 30.65C14.9996 30.49 15.3296 30.2699 15.6296 29.9999C15.6696 29.9699 15.6996 29.94 15.7296 29.9C15.9996 29.67 16.2296 29.3799 16.4196 29.0599C16.7896 28.4599 16.9996 27.7499 16.9996 26.9999C16.9996 25.9499 16.5896 25 15.9296 24.28C15.8296 24.17 15.7195 24.0599 15.5995 23.9699C14.8995 23.3599 13.9996 22.9999 12.9996 22.9999C12.2896 22.9999 11.6196 23.19 11.0396 23.52C10.8496 23.62 10.6696 23.7399 10.4996 23.8799C10.4296 23.9299 10.3696 23.9899 10.3096 24.0499V19.78C11.0696 20.6 12.1496 21.0699 13.3196 21.0699C14.5796 21.0699 15.7896 20.4399 16.5496 19.4299C17.2296 20.4399 18.3896 21.0699 19.6796 21.0699C20.9596 21.0699 22.0996 20.4699 22.7896 19.4699C23.5596 20.4599 24.7496 21.0699 25.9896 21.0699C27.1996 21.0699 28.2996 20.58 29.0496 19.71Z" fill="#DD6E20"/>
<path d="M22.67 9.57007H16.67L15.93 16.9301C15.87 17.6101 15.97 18.2501 16.22 18.8301C16.8 20.1901 18.16 21.0701 19.68 21.0701C21.22 21.0701 22.5501 20.2101 23.1501 18.8401C23.3301 18.4101 23.44 17.9101 23.45 17.4001V17.2101L22.67 9.57007Z" fill="#DD6E20"/>
<path opacity="0.6" d="M30.0402 16.5901L29.7602 13.8101C29.3402 10.7901 27.9702 9.56006 25.0402 9.56006H21.2002L21.9402 17.0601C21.9502 17.1601 21.9602 17.2701 21.9602 17.4601C22.0202 17.9801 22.1802 18.4601 22.4202 18.8901C23.1402 20.2101 24.5402 21.0601 26.0002 21.0601C27.3302 21.0601 28.5302 20.4701 29.2802 19.4301C29.8702 18.6401 30.1402 17.6301 30.0402 16.5901Z" fill="#DD6E20"/>
<path opacity="0.6" d="M14.2703 9.57007C11.3303 9.57007 9.97027 10.8 9.54027 13.85L9.27031 16.6C9.17031 17.67 9.46032 18.7101 10.0903 19.5201C10.8503 20.5101 12.0203 21.0701 13.3203 21.0701C14.7803 21.0701 16.1803 20.22 16.8903 18.92C17.1503 18.47 17.3203 17.95 17.3703 17.41L18.1503 9.58008H14.2703V9.57007Z" fill="#DD6E20"/>
<path d="M15.93 24.28C15.83 24.17 15.72 24.06 15.6 23.97C14.9 23.36 14 23 13 23C12.29 23 11.62 23.19 11.04 23.52C10.85 23.62 10.67 23.74 10.5 23.88C9.58 24.61 9 25.74 9 27C9 27.75 9.21002 28.46 9.58002 29.06C9.67002 29.22 9.78002 29.37 9.90002 29.51C9.92002 29.54 9.94997 29.56 9.96997 29.59C10.69 30.45 11.78 31 13 31C14.01 31 14.93 30.63 15.63 30C15.67 29.97 15.7 29.94 15.73 29.9C16 29.67 16.23 29.38 16.42 29.06C16.79 28.46 17 27.75 17 27C17 25.95 16.59 25 15.93 24.28ZM14.5 27.73H13.75V28.51C13.75 28.92 13.41 29.26 13 29.26C12.59 29.26 12.25 28.92 12.25 28.51V27.73H11.5C11.09 27.73 10.75 27.39 10.75 26.98C10.75 26.57 11.09 26.23 11.5 26.23H12.25V25.52C12.25 25.11 12.59 24.77 13 24.77C13.41 24.77 13.75 25.11 13.75 25.52V26.23H14.5C14.91 26.23 15.25 26.57 15.25 26.98C15.25 27.39 14.91 27.73 14.5 27.73Z" fill="#DD6E20"/>
</svg>
