<svg width="32" height="32" viewBox="0 0 32 32" fill="none" xmlns="http://www.w3.org/2000/svg">
<rect width="32" height="32" rx="2" fill="#F1E6FF"/>
<path d="M21 16.8333C20.2166 16.8333 19.4916 17.1083 18.9166 17.5667C18.15 18.175 17.6666 19.1167 17.6666 20.1667C17.6666 20.7917 17.8416 21.3833 18.1499 21.8833C18.7249 22.85 19.7833 23.5 21 23.5C21.8416 23.5 22.6083 23.1917 23.1916 22.6667C23.45 22.45 23.675 22.1833 23.85 21.8833C24.1583 21.3833 24.3333 20.7917 24.3333 20.1667C24.3333 18.325 22.8416 16.8333 21 16.8333ZM22.725 19.8083L20.95 21.45C20.8333 21.5583 20.675 21.6167 20.525 21.6167C20.3666 21.6167 20.2083 21.5583 20.0833 21.4333L19.2583 20.6084C19.0166 20.3667 19.0166 19.9666 19.2583 19.725C19.5 19.4833 19.9 19.4833 20.1416 19.725L20.5416 20.125L21.8749 18.8916C22.1249 18.6583 22.5249 18.675 22.7583 18.925C22.9916 19.175 22.975 19.5667 22.725 19.8083Z" fill="#9747FF"/>
<path opacity="0.4" d="M23.575 23.9167C23.575 24.15 23.3916 24.3333 23.1583 24.3333H8.84165C8.60832 24.3333 8.42499 24.15 8.42499 23.9167C8.42499 20.4667 11.825 17.6667 16 17.6667C16.8583 17.6667 17.6917 17.7833 18.4583 18.0083C17.9667 18.5916 17.6667 19.35 17.6667 20.1667C17.6667 20.7917 17.8416 21.3833 18.15 21.8833C18.3166 22.1667 18.5333 22.425 18.7833 22.6416C19.3666 23.175 20.1417 23.5 21 23.5C21.9333 23.5 22.775 23.1167 23.375 22.5C23.5083 22.95 23.575 23.425 23.575 23.9167Z" fill="#9747FF"/>
<path d="M16 16C18.3012 16 20.1667 14.1345 20.1667 11.8333C20.1667 9.53215 18.3012 7.66667 16 7.66667C13.6989 7.66667 11.8334 9.53215 11.8334 11.8333C11.8334 14.1345 13.6989 16 16 16Z" fill="#9747FF"/>
</svg>
