<svg width="22" height="22" viewBox="0 0 22 22" fill="none" xmlns="http://www.w3.org/2000/svg">
<path d="M19.25 11.57V10.4225L20.69 9.1625C20.9554 8.92854 21.1296 8.60827 21.1818 8.2583C21.2339 7.90833 21.1607 7.55119 20.975 7.25L19.205 4.25C19.0735 4.0222 18.8844 3.83299 18.6566 3.70135C18.4289 3.56971 18.1705 3.50027 17.9075 3.5C17.7445 3.49875 17.5824 3.52408 17.4275 3.575L15.605 4.19C15.2904 3.98091 14.9621 3.79299 14.6225 3.6275L14.24 1.7375C14.1714 1.3922 13.9836 1.08203 13.7093 0.861276C13.4351 0.640523 13.092 0.523254 12.74 0.53H9.23001C8.87803 0.523254 8.53489 0.640523 8.26067 0.861276C7.98644 1.08203 7.79859 1.3922 7.73001 1.7375L7.34751 3.6275C7.00546 3.79295 6.67473 3.98086 6.35751 4.19L4.57251 3.545C4.41598 3.50422 4.25389 3.48902 4.09251 3.5C3.82946 3.50027 3.57111 3.56971 3.34338 3.70135C3.11564 3.83299 2.92653 4.0222 2.79501 4.25L1.02501 7.25C0.849947 7.55074 0.784895 7.90299 0.840993 8.24642C0.897091 8.58985 1.07085 8.9031 1.33251 9.1325L2.75001 10.43V11.5775L1.33251 12.8375C1.06346 13.0685 0.884948 13.3873 0.828655 13.7375C0.772363 14.0876 0.841928 14.4463 1.02501 14.75L2.79501 17.75C2.92653 17.9778 3.11564 18.167 3.34338 18.2987C3.57111 18.4303 3.82946 18.4997 4.09251 18.5C4.25552 18.5012 4.41764 18.4759 4.57251 18.425L6.39501 17.81C6.70966 18.0191 7.03789 18.207 7.37751 18.3725L7.76001 20.2625C7.82859 20.6078 8.01644 20.918 8.29067 21.1387C8.56489 21.3595 8.90803 21.4767 9.26001 21.47H12.8C13.152 21.4767 13.4951 21.3595 13.7693 21.1387C14.0436 20.918 14.2314 20.6078 14.3 20.2625L14.6825 18.3725C15.0246 18.2071 15.3553 18.0191 15.6725 17.81L17.4875 18.425C17.6424 18.4759 17.8045 18.5012 17.9675 18.5C18.2306 18.4997 18.4889 18.4303 18.7166 18.2987C18.9444 18.167 19.1335 17.9778 19.265 17.75L20.975 14.75C21.1501 14.4493 21.2151 14.097 21.159 13.7536C21.1029 13.4101 20.9292 13.0969 20.6675 12.8675L19.25 11.57ZM17.9075 17L15.335 16.13C14.7328 16.6401 14.0446 17.0388 13.3025 17.3075L12.77 20H9.23001L8.69751 17.3375C7.96132 17.0612 7.27679 16.6631 6.67251 16.16L4.09251 17L2.32251 14L4.36251 12.2C4.22383 11.4236 4.22383 10.6289 4.36251 9.8525L2.32251 8L4.09251 5L6.66501 5.87C7.26721 5.35992 7.95546 4.96119 8.69751 4.6925L9.23001 2H12.77L13.3025 4.6625C14.0387 4.93882 14.7232 5.33686 15.3275 5.84L17.9075 5L19.6775 8L17.6375 9.8C17.7762 10.5764 17.7762 11.3711 17.6375 12.1475L19.6775 14L17.9075 17Z" fill="#9F9F9F"/>
</svg>
