<svg width="21" height="22" viewBox="0 0 21 22" fill="none" xmlns="http://www.w3.org/2000/svg">
<path d="M17.3533 15C16.9043 15.0017 16.4603 15.0941 16.0478 15.2717C15.6354 15.4493 15.2631 15.7083 14.9533 16.0333L6.82665 11.9667C7.02656 11.3605 7.02656 10.7062 6.82665 10.1L14.9667 5.96C15.5497 6.57442 16.3404 6.9501 17.185 7.01404C18.0296 7.07797 18.8678 6.82558 19.5367 6.30593C20.2056 5.78627 20.6574 5.03648 20.8043 4.20228C20.9511 3.36808 20.7826 2.50907 20.3314 1.79222C19.8802 1.07537 19.1786 0.551879 18.3629 0.323508C17.5472 0.0951358 16.6758 0.178194 15.918 0.55654C15.1601 0.934885 14.5701 1.58149 14.2624 2.37067C13.9547 3.15985 13.9515 4.03523 14.2533 4.82666L6.19332 8.92667C5.75802 8.3943 5.16872 8.00959 4.50619 7.82528C3.84367 7.64097 3.14036 7.66609 2.49267 7.89718C1.84498 8.12826 1.28462 8.55402 0.888395 9.11608C0.49217 9.67814 0.27948 10.349 0.27948 11.0367C0.27948 11.7243 0.49217 12.3952 0.888395 12.9573C1.28462 13.5193 1.84498 13.9451 2.49267 14.1762C3.14036 14.4072 3.84367 14.4324 4.50619 14.248C5.16872 14.0637 5.75802 13.679 6.19332 13.1467L14.2333 17.1933C14.0975 17.5581 14.0275 17.9441 14.0267 18.3333C14.0267 18.9926 14.2221 19.6371 14.5884 20.1852C14.9547 20.7334 15.4753 21.1606 16.0844 21.4129C16.6935 21.6652 17.3637 21.7312 18.0103 21.6026C18.6569 21.474 19.2508 21.1565 19.717 20.6904C20.1832 20.2242 20.5007 19.6302 20.6293 18.9836C20.7579 18.337 20.6919 17.6668 20.4396 17.0577C20.1873 16.4486 19.7601 15.928 19.2119 15.5618C18.6637 15.1955 18.0193 15 17.36 15H17.3533ZM17.3533 1.66667C17.7489 1.66667 18.1356 1.78396 18.4645 2.00373C18.7934 2.22349 19.0497 2.53585 19.2011 2.9013C19.3525 3.26675 19.3921 3.66888 19.3149 4.05685C19.2377 4.44481 19.0472 4.80117 18.7675 5.08088C18.4878 5.36058 18.1315 5.55107 17.7435 5.62824C17.3555 5.70541 16.9534 5.6658 16.588 5.51442C16.2225 5.36305 15.9101 5.1067 15.6904 4.77781C15.4706 4.44891 15.3533 4.06223 15.3533 3.66667C15.3533 3.13623 15.564 2.62752 15.9391 2.25245C16.3142 1.87738 16.8229 1.66667 17.3533 1.66667ZM3.66665 13C3.27109 13 2.88441 12.8827 2.55551 12.6629C2.22661 12.4432 1.97027 12.1308 1.81889 11.7654C1.66752 11.3999 1.62791 10.9978 1.70508 10.6098C1.78225 10.2219 1.97273 9.86549 2.25244 9.58578C2.53214 9.30608 2.88851 9.1156 3.27647 9.03843C3.66443 8.96126 4.06657 9.00086 4.43202 9.15224C4.79747 9.30361 5.10983 9.55996 5.32959 9.88886C5.54935 10.2178 5.66665 10.6044 5.66665 11C5.66665 11.5304 5.45594 12.0391 5.08087 12.4142C4.70579 12.7893 4.19709 13 3.66665 13ZM17.3533 20.3333C16.9578 20.3333 16.5711 20.216 16.2422 19.9963C15.9133 19.7765 15.6569 19.4642 15.5056 19.0987C15.3542 18.7332 15.3146 18.3311 15.3917 17.9432C15.4689 17.5552 15.6594 17.1988 15.9391 16.9191C16.2188 16.6394 16.5752 16.4489 16.9631 16.3718C17.3511 16.2946 17.7532 16.3342 18.1187 16.4856C18.4841 16.6369 18.7965 16.8933 19.0163 17.2222C19.236 17.5511 19.3533 17.9378 19.3533 18.3333C19.3533 18.8638 19.1426 19.3725 18.7675 19.7475C18.3925 20.1226 17.8838 20.3333 17.3533 20.3333Z" fill="#9F9F9F"/>
</svg>
