<svg width="32" height="32" viewBox="0 0 32 32" fill="none" xmlns="http://www.w3.org/2000/svg">
<rect width="32" height="32" rx="2" fill="#FAEFE8"/>
<path d="M15.954 9.37201C16.0366 9.2687 16.1388 9.18279 16.2548 9.11926C16.3708 9.05573 16.4982 9.01584 16.6297 9.00189C16.7612 8.98794 16.8942 9.00021 17.0209 9.03799C17.1476 9.07578 17.2656 9.13832 17.368 9.22201L20.63 11.886C20.8094 12.0325 20.9324 12.2367 20.978 12.4637C21.0236 12.6908 20.9889 12.9266 20.88 13.131C20.5948 13.0438 20.2982 12.9997 20 13H19.7L19.998 12.66L18.28 11.257L16.863 13.001H15.574L17.505 10.625L16.735 9.99601L14.337 13H13.057L15.954 9.37201ZM18.5 18C18.3674 18 18.2402 18.0527 18.1464 18.1465C18.0527 18.2402 18 18.3674 18 18.5C18 18.6326 18.0527 18.7598 18.1464 18.8536C18.2402 18.9473 18.3674 19 18.5 19H19.5C19.6326 19 19.7598 18.9473 19.8536 18.8536C19.9473 18.7598 20 18.6326 20 18.5C20 18.3674 19.9473 18.2402 19.8536 18.1465C19.7598 18.0527 19.6326 18 19.5 18H18.5ZM11 13.5C11 13.3674 11.0527 13.2402 11.1464 13.1465C11.2402 13.0527 11.3674 13 11.5 13H12.058L12.853 12H11.5C11.1022 12 10.7206 12.158 10.4393 12.4393C10.158 12.7206 10 13.1022 10 13.5V19.5C10 20.163 10.2634 20.7989 10.7322 21.2678C11.2011 21.7366 11.837 22 12.5 22H20C20.5304 22 21.0391 21.7893 21.4142 21.4142C21.7893 21.0391 22 20.5304 22 20V16C22 15.4696 21.7893 14.9609 21.4142 14.5858C21.0391 14.2107 20.5304 14 20 14H11.5C11.3674 14 11.2402 13.9473 11.1464 13.8536C11.0527 13.7598 11 13.6326 11 13.5ZM11 19.5V14.915C11.156 14.97 11.325 15 11.5 15H20C20.2652 15 20.5196 15.1054 20.7071 15.2929C20.8946 15.4804 21 15.7348 21 16V20C21 20.2652 20.8946 20.5196 20.7071 20.7071C20.5196 20.8946 20.2652 21 20 21H12.5C12.1022 21 11.7206 20.842 11.4393 20.5607C11.158 20.2794 11 19.8978 11 19.5Z" fill="#DD6E20"/>
</svg>
