<svg width="360" height="360" viewBox="0 0 360 360" fill="none" xmlns="http://www.w3.org/2000/svg">
<path d="M125.578 48C122.18 48.0039 119.425 50.7582 119.422 54.1569V162.048C119.425 165.447 122.18 168.201 125.578 168.205H278.187C281.585 168.201 284.34 165.447 284.343 162.048V54.1569C284.34 50.7582 281.585 48.0039 278.187 48H125.578V48Z" fill="#E6E6E6"/>
<path d="M223.303 162.954H129.891C126.233 162.95 123.268 159.986 123.264 156.328V58.4714C123.268 54.8134 126.233 51.849 129.891 51.8448H273.875C277.533 51.8489 280.498 54.8134 280.502 58.4714V105.755C280.466 137.33 254.878 162.918 223.303 162.954V162.954Z" fill="white"/>
<path d="M186.711 78.9257H164.513C163.343 78.9257 162.394 77.9766 162.394 76.8058C162.394 75.6351 163.343 74.686 164.513 74.686H186.711C187.882 74.686 188.831 75.6351 188.831 76.8058C188.831 77.9766 187.882 78.9257 186.711 78.9257H186.711Z" fill="#C6C6C6"/>
<path d="M236.472 87.5958H164.513C163.343 87.5958 162.394 86.6468 162.394 85.476C162.394 84.3053 163.343 83.3562 164.513 83.3562H236.472C237.642 83.3562 238.591 84.3053 238.591 85.476C238.591 86.6468 237.642 87.5958 236.472 87.5958Z" fill="#E6E6E6"/>
<path d="M236.472 97.5479H164.513C163.343 97.5479 162.394 96.5988 162.394 95.428C162.394 94.2573 163.343 93.3082 164.513 93.3082H236.472C237.642 93.3082 238.591 94.2573 238.591 95.428C238.591 96.5988 237.642 97.5479 236.472 97.5479Z" fill="#E6E6E6"/>
<path d="M236.472 107.5H164.513C163.343 107.5 162.394 106.551 162.394 105.38C162.394 104.209 163.343 103.26 164.513 103.26H236.472C237.642 103.26 238.591 104.209 238.591 105.38C238.591 106.551 237.642 107.5 236.472 107.5Z" fill="#E6E6E6"/>
<path d="M236.472 117.452H164.513C163.343 117.452 162.394 116.503 162.394 115.332C162.394 114.161 163.343 113.212 164.513 113.212H236.472C237.642 113.212 238.591 114.161 238.591 115.332C238.591 116.503 237.642 117.452 236.472 117.452Z" fill="#E6E6E6"/>
<path d="M294.167 123.327H264.043C258.053 123.327 253.196 128.183 253.196 134.174C253.196 140.165 248.34 145.021 242.349 145.021H141.919C135.929 145.021 131.072 140.165 131.072 134.174V134.174L129.086 123.178L129.216 123.327L129.086 123.178L110.882 99.9695C109.673 98.4036 107.801 97.4942 105.823 97.5121H71.6832C68.1344 97.5163 65.2586 100.392 65.2543 103.941L64.5494 123.178H51.6426C40.242 123.178 31 132.42 31 143.821V278.266C31 288.383 39.2015 296.584 49.3186 296.584H294.167C304.278 296.572 312.471 288.377 312.481 278.266V141.641C312.481 131.526 304.282 123.327 294.167 123.327H294.167Z" fill="#E6E6E6"/>
<path d="M129.096 122.682H65.2543V103.445C65.2586 99.8957 68.1344 97.0199 71.6832 97.0156H105.823C107.801 96.9978 109.673 97.9072 110.882 99.473L129.096 122.682V122.682Z" fill="#CCCCCC"/>
<path d="M161.785 281.79H55.1854C48.1595 281.782 42.4658 276.089 42.4579 269.063V239.91C42.4658 232.884 48.1595 227.19 55.1854 227.182H183.13C190.156 227.19 195.85 232.884 195.857 239.91V247.718C195.836 266.527 180.594 281.769 161.785 281.79V281.79Z" fill="white"/>
<path d="M85.8712 249.173H59.5599C55.9956 249.173 53.1062 246.283 53.1062 242.719C53.1062 239.155 55.9956 236.265 59.5599 236.265H85.8712C89.4354 236.261 92.3286 239.146 92.3332 242.711C92.3378 246.275 89.4521 249.168 85.8878 249.173H85.8712H85.8712Z" fill="#C6C6C6"/>
<path d="M175.23 269.527H59.5599C55.9956 269.527 53.1062 266.637 53.1062 263.073C53.1062 259.509 55.9956 256.619 59.5599 256.619H175.23C178.794 256.615 181.688 259.5 181.692 263.065C181.697 266.629 178.811 269.522 175.247 269.527H175.23L175.23 269.527Z" fill="#C6C6C6"/>
<path d="M302.544 312.674C288.095 312.674 276.381 300.96 276.381 286.51C276.381 272.06 288.095 260.346 302.544 260.346C316.994 260.346 328.708 272.06 328.708 286.51C328.708 300.96 316.994 312.674 302.544 312.674Z" fill="#C6C6C6"/>
</svg>
