<svg width="181" height="191" viewBox="0 0 181 191" fill="none" xmlns="http://www.w3.org/2000/svg">
<g clip-path="url(#clip0_107_324)">
<path d="M57.786 145.222H51.1714C49.856 145.222 48.7896 146.291 48.7896 147.61C48.7896 148.928 47.7232 149.997 46.4078 149.997H24.3556C23.0401 149.997 21.9737 148.928 21.9737 147.61L21.5377 145.189L21.5661 145.222L21.5377 145.189L17.5404 140.08C17.275 139.736 16.8639 139.535 16.4296 139.539H8.93316C8.15392 139.54 7.52244 140.173 7.52152 140.955L7.36674 145.189H4.53268C2.02935 145.189 0 147.223 0 149.733V179.328C0 181.555 1.80089 183.36 4.02239 183.36H57.786C60.0062 183.357 61.8052 181.553 61.8073 179.328V149.253C61.8073 147.027 60.0069 145.222 57.786 145.222H57.786Z" fill="#F2F2F2"/>
<path d="M21.5399 145.08H7.52148V140.845C7.52241 140.064 8.15389 139.431 8.93313 139.43H16.4296C16.8639 139.426 17.275 139.626 17.5404 139.971L21.5399 145.08H21.5399Z" fill="#E6E6E6"/>
<path d="M28.7176 180.104H5.31057C3.76782 180.102 2.5176 178.848 2.51587 177.302V170.885C2.5176 169.338 3.76782 168.085 5.31057 168.083H33.4045C34.9473 168.085 36.1975 169.338 36.1992 170.885V172.603C36.1945 176.744 32.8476 180.099 28.7176 180.104V180.104Z" fill="white"/>
<path d="M12.0486 172.924H6.27117C5.48854 172.926 4.85205 172.292 4.84956 171.507C4.84705 170.723 5.47948 170.085 6.26212 170.082H12.0486C12.8312 170.08 13.4677 170.714 13.4702 171.498C13.4727 172.283 12.8403 172.921 12.0576 172.924H12.0486V172.924Z" fill="#F2F2F2"/>
<path d="M31.6699 177.404H6.27117C5.48854 177.407 4.85205 176.773 4.84956 175.988C4.84705 175.203 5.47948 174.565 6.26212 174.563H31.6699C32.4526 174.56 33.0891 175.194 33.0916 175.979C33.0941 176.764 32.4616 177.402 31.679 177.404H31.6699V177.404Z" fill="#F2F2F2"/>
<path d="M60.3347 191.013C55.9467 191.013 52.3895 187.447 52.3895 183.048C52.3895 178.649 55.9466 175.083 60.3347 175.083C64.7227 175.083 68.2799 178.649 68.2799 183.048V183.048C68.2799 187.447 64.7227 191.013 60.3347 191.013Z" fill="#E6E6E6"/>
<path d="M118.823 153.177H77.5424C76.7844 153.177 76.0575 153.479 75.5216 154.016C74.9856 154.553 74.6845 155.282 74.6845 156.042C74.6845 156.802 74.9856 157.53 75.5216 158.068C76.0575 158.605 76.7844 158.907 77.5424 158.907H118.823C119.581 158.907 120.308 158.605 120.844 158.068C121.38 157.53 121.681 156.802 121.681 156.042C121.681 155.282 121.38 154.553 120.844 154.016C120.308 153.479 119.581 153.177 118.823 153.177Z" fill="#E6E6E6"/>
<path d="M178.75 171.322H76.9963C75.7196 171.322 74.6845 172.608 74.6845 174.187C74.6845 175.766 75.7196 177.052 76.9963 177.052H178.75C180.027 177.052 181.062 175.766 181.062 174.187C181.062 172.608 180.027 171.322 178.75 171.322Z" fill="#E6E6E6"/>
<path d="M57.786 75.1886H51.1714C49.856 75.1886 48.7896 76.2577 48.7896 77.5764C48.7896 78.8951 47.7232 79.9641 46.4078 79.9641H24.3556C23.0401 79.9641 21.9737 78.8951 21.9737 77.5764L21.5377 75.1559L21.5661 75.1886L21.5377 75.1559L17.5404 70.0471C17.275 69.7024 16.8639 69.5022 16.4296 69.5062H8.93316C8.15392 69.5071 7.52244 70.1401 7.52152 70.9213L7.36674 75.1559H4.53268C2.02935 75.1559 0 77.1903 0 79.6998V109.295C0 111.522 1.80089 113.327 4.02239 113.327H57.786C60.0062 113.324 61.8052 111.52 61.8073 109.295V79.2199C61.8073 76.9935 60.0069 75.1886 57.786 75.1886H57.786Z" fill="#F2F2F2"/>
<path d="M21.5399 75.0465H7.52148V70.8119C7.52241 70.0308 8.15389 69.3977 8.93313 69.3968H16.4296C16.8639 69.3929 17.275 69.593 17.5404 69.9377L21.5399 75.0465H21.5399Z" fill="#E6E6E6"/>
<path d="M28.7176 110.07H5.31057C3.76782 110.069 2.5176 108.815 2.51587 107.269V100.851C2.5176 99.3048 3.76782 98.0514 5.31057 98.0497H33.4045C34.9473 98.0514 36.1975 99.3048 36.1992 100.851V102.57C36.1945 106.71 32.8476 110.066 28.7176 110.07V110.07Z" fill="white"/>
<path d="M12.0486 102.89H6.27117C5.48854 102.893 4.85205 102.259 4.84956 101.474C4.84705 100.69 5.47948 100.052 6.26212 100.049H12.0486C12.8312 100.047 13.4677 100.681 13.4702 101.465C13.4727 102.25 12.8403 102.888 12.0576 102.89H12.0486V102.89Z" fill="#F2F2F2"/>
<path d="M31.6699 107.371H6.27117C5.48854 107.373 4.85205 106.739 4.84956 105.955C4.84705 105.17 5.47948 104.532 6.26212 104.53H31.6699C32.4526 104.527 33.0891 105.161 33.0916 105.946C33.0941 106.73 32.4616 107.368 31.679 107.371H31.6699V107.371Z" fill="#F2F2F2"/>
<path d="M60.3347 120.98C55.9467 120.98 52.3895 117.414 52.3895 113.015C52.3895 108.616 55.9466 105.05 60.3347 105.05C64.7227 105.05 68.2799 108.616 68.2799 113.015V113.015C68.2799 117.414 64.7227 120.98 60.3347 120.98Z" fill="#E6E6E6"/>
<path d="M118.823 83.1436H77.5424C76.7844 83.1436 76.0575 83.4454 75.5216 83.9827C74.9856 84.52 74.6845 85.2487 74.6845 86.0086C74.6845 86.7684 74.9856 87.4971 75.5216 88.0344C76.0575 88.5717 76.7844 88.8736 77.5424 88.8736H118.823C119.581 88.8736 120.308 88.5717 120.844 88.0344C121.38 87.4971 121.681 86.7684 121.681 86.0086C121.681 85.2487 121.38 84.52 120.844 83.9827C120.308 83.4454 119.581 83.1436 118.823 83.1436Z" fill="#E6E6E6"/>
<path d="M178.75 101.288H76.9963C75.7196 101.288 74.6845 102.575 74.6845 104.153C74.6845 105.732 75.7196 107.018 76.9963 107.018H178.75C180.027 107.018 181.062 105.732 181.062 104.153C181.062 102.575 180.027 101.288 178.75 101.288Z" fill="#E6E6E6"/>
<path d="M57.786 5.15519H51.1714C49.856 5.15519 48.7896 6.22421 48.7896 7.54293C48.7896 8.86163 47.7232 9.93066 46.4078 9.93066H24.3556C23.0401 9.93066 21.9737 8.86163 21.9737 7.54293L21.5377 5.12241L21.5661 5.15518L21.5377 5.12241L17.5404 0.013636C17.275 -0.331036 16.8639 -0.531221 16.4296 -0.527287H8.93316C8.15392 -0.526357 7.52244 0.106684 7.52152 0.887867L7.36674 5.12242H4.53268C2.02935 5.12242 0 7.15681 0 9.66636V39.2611C0 41.4881 1.80089 43.2935 4.02239 43.2935H57.786C60.0062 43.2907 61.8052 41.4868 61.8073 39.2611V9.18647C61.8073 6.96005 60.0069 5.15519 57.786 5.15519H57.786Z" fill="#F2F2F2"/>
<path d="M21.5399 5.01304H7.52148V0.778497C7.52241 -0.00268631 8.15389 -0.635732 8.93313 -0.636662H16.4296C16.8639 -0.640596 17.275 -0.4404 17.5404 -0.0957342L21.5399 5.01304H21.5399Z" fill="#E6E6E6"/>
<path d="M28.7176 40.0369H5.31057C3.76782 40.0351 2.5176 38.7818 2.51587 37.2352V30.8179C2.5176 29.2713 3.76782 28.018 5.31057 28.0162H33.4045C34.9473 28.018 36.1975 29.2713 36.1992 30.8179V32.5367C36.1945 36.677 32.8476 40.0322 28.7176 40.0369V40.0369Z" fill="white"/>
<path d="M12.0486 32.8569H6.27117C5.48854 32.8594 4.85205 32.2254 4.84956 31.4408C4.84705 30.6562 5.47948 30.0181 6.26212 30.0156H12.0486C12.8312 30.0131 13.4677 30.6471 13.4702 31.4317C13.4727 32.2163 12.8403 32.8544 12.0576 32.8569H12.0486V32.8569Z" fill="#F2F2F2"/>
<path d="M31.6699 37.3375H6.27117C5.48854 37.34 4.85205 36.706 4.84956 35.9214C4.84705 35.1368 5.47948 34.4987 6.26212 34.4962H31.6699C32.4526 34.4937 33.0891 35.1277 33.0916 35.9123C33.0941 36.6969 32.4616 37.335 31.679 37.3375H31.6699V37.3375Z" fill="#F2F2F2"/>
<path d="M60.3347 50.9465C55.9467 50.9465 52.3895 47.3805 52.3895 42.9816C52.3895 38.5826 55.9466 35.0166 60.3347 35.0166C64.7227 35.0166 68.2799 38.5826 68.2799 42.9816V42.9816C68.2799 47.3805 64.7227 50.9465 60.3347 50.9465Z" fill="#E6E6E6"/>
<path d="M118.823 13.1101H77.5424C76.7844 13.1101 76.0575 13.4119 75.5216 13.9492C74.9856 14.4865 74.6845 15.2153 74.6845 15.9751C74.6845 16.735 74.9856 17.4637 75.5216 18.001C76.0575 18.5383 76.7844 18.8401 77.5424 18.8401H118.823C119.581 18.8401 120.308 18.5383 120.844 18.001C121.38 17.4637 121.681 16.735 121.681 15.9751C121.681 15.2153 121.38 14.4865 120.844 13.9492C120.308 13.4119 119.581 13.1101 118.823 13.1101Z" fill="#E6E6E6"/>
<path d="M178.75 31.255H76.9963C75.7196 31.255 74.6845 32.5411 74.6845 34.12C74.6845 35.6989 75.7196 36.985 76.9963 36.985H178.75C180.027 36.985 181.062 35.6989 181.062 34.12C181.062 32.5411 180.027 31.255 178.75 31.255Z" fill="#E6E6E6"/>
</g>
<defs>
<clipPath id="clip0_107_324">
<rect width="181" height="191" fill="white"/>
</clipPath>
</defs>
</svg>
