<svg width="181" height="51" viewBox="0 0 181 51" fill="none" xmlns="http://www.w3.org/2000/svg">
<path d="M57.786 5.15519H51.1714C49.856 5.15519 48.7896 6.22421 48.7896 7.54293C48.7896 8.86163 47.7232 9.93066 46.4078 9.93066H24.3556C23.0401 9.93066 21.9737 8.86163 21.9737 7.54293L21.5377 5.12241L21.5661 5.15518L21.5377 5.12241L17.5404 0.013636C17.275 -0.331036 16.8639 -0.531221 16.4296 -0.527287H8.93316C8.15392 -0.526357 7.52244 0.106684 7.52152 0.887867L7.36674 5.12242H4.53268C2.02935 5.12242 0 7.15681 0 9.66636V39.2611C0 41.4881 1.80089 43.2935 4.02239 43.2935H57.786C60.0062 43.2907 61.8052 41.4868 61.8073 39.2611V9.18647C61.8073 6.96005 60.0069 5.15519 57.786 5.15519H57.786Z" fill="#F2F2F2"/>
<path d="M21.5399 5.01304H7.52148V0.778497C7.52241 -0.00268631 8.15389 -0.635732 8.93313 -0.636662H16.4296C16.8639 -0.640596 17.275 -0.4404 17.5404 -0.0957342L21.5399 5.01304H21.5399Z" fill="#E6E6E6"/>
<path d="M28.7176 40.0369H5.31057C3.76782 40.0351 2.5176 38.7818 2.51587 37.2352V30.8179C2.5176 29.2713 3.76782 28.018 5.31057 28.0162H33.4045C34.9473 28.018 36.1975 29.2713 36.1992 30.8179V32.5367C36.1945 36.677 32.8476 40.0322 28.7176 40.0369V40.0369Z" fill="white"/>
<path d="M12.0486 32.8569H6.27117C5.48854 32.8594 4.85205 32.2254 4.84956 31.4408C4.84705 30.6562 5.47948 30.0181 6.26212 30.0156H12.0486C12.8312 30.0131 13.4677 30.6471 13.4702 31.4317C13.4727 32.2163 12.8403 32.8544 12.0576 32.8569H12.0486V32.8569Z" fill="#F2F2F2"/>
<path d="M31.6699 37.3375H6.27117C5.48854 37.34 4.85205 36.706 4.84956 35.9214C4.84705 35.1368 5.47948 34.4987 6.26212 34.4962H31.6699C32.4526 34.4937 33.0891 35.1277 33.0916 35.9123C33.0941 36.6969 32.4616 37.335 31.679 37.3375H31.6699V37.3375Z" fill="#F2F2F2"/>
<path d="M60.3347 50.9465C55.9467 50.9465 52.3895 47.3805 52.3895 42.9816C52.3895 38.5826 55.9466 35.0166 60.3347 35.0166C64.7227 35.0166 68.2799 38.5826 68.2799 42.9816V42.9816C68.2799 47.3805 64.7227 50.9465 60.3347 50.9465Z" fill="#E6E6E6"/>
<path d="M118.823 13.1101H77.5424C76.7844 13.1101 76.0575 13.4119 75.5216 13.9492C74.9856 14.4865 74.6845 15.2153 74.6845 15.9751C74.6845 16.735 74.9856 17.4637 75.5216 18.001C76.0575 18.5383 76.7844 18.8401 77.5424 18.8401H118.823C119.581 18.8401 120.308 18.5383 120.844 18.001C121.38 17.4637 121.681 16.735 121.681 15.9751C121.681 15.2153 121.38 14.4865 120.844 13.9492C120.308 13.4119 119.581 13.1101 118.823 13.1101Z" fill="#E6E6E6"/>
<path d="M178.75 31.255H76.9963C75.7196 31.255 74.6845 32.5411 74.6845 34.12C74.6845 35.6989 75.7196 36.985 76.9963 36.985H178.75C180.027 36.985 181.062 35.6989 181.062 34.12C181.062 32.5411 180.027 31.255 178.75 31.255Z" fill="#E6E6E6"/>
</svg>
