<svg width="647" height="647" viewBox="0 0 647 647" fill="none" xmlns="http://www.w3.org/2000/svg">
<g clip-path="url(#clip0_107_161)">
<path d="M457.553 169.663L445.175 118.383L427.767 46.2829L426.779 42.2129V42.2029L419.897 13.6929C418.765 9.02545 415.921 5.02182 411.99 2.56032C408.059 0.0988247 403.362 -0.61951 398.929 0.562923L353.195 12.8129L67.4402 89.3829C63.0098 90.576 59.2094 93.5718 56.8729 97.713C54.5364 101.854 53.8546 106.803 54.977 111.473L64.8396 152.333L89.8991 256.123L99.3251 295.173L99.809 297.173H101.897L101.413 295.173L92.4052 257.833V257.823L66.2635 149.563L56.9418 110.953C55.9515 106.83 56.5536 102.462 58.6161 98.8069C60.6785 95.1513 64.0329 92.5067 67.9436 91.453L353.1 15.043L399.423 2.63298C403.336 1.58972 407.482 2.22399 410.952 4.39669C414.422 6.56938 416.933 10.1031 417.933 14.223L425.242 44.483L426.229 48.593L443.144 118.663L455.455 169.663L455.968 171.803H458.076L457.553 169.663Z" fill="#CCCCCC"/>
<path d="M150.025 240.887C177.054 240.887 198.965 217.803 198.965 189.329C198.965 160.855 177.054 137.772 150.025 137.772C122.997 137.772 101.086 160.855 101.086 189.329C101.086 217.803 122.997 240.887 150.025 240.887Z" fill="#F2F2F2"/>
<path d="M261.044 169.663L263.389 171.803H226.122C222.085 171.808 218.215 173.499 215.361 176.506C212.506 179.513 210.901 183.59 210.897 187.843V310.203L210.356 339.173L186.54 316.733L184.309 317.333L166.653 300.923C164.054 298.504 160.705 297.17 157.237 297.173H110.782L111.494 295.173L120.777 269.043L173.412 120.793L178.823 105.563C179.155 104.627 179.698 103.789 180.404 103.122C181.111 102.455 181.96 101.977 182.879 101.731C183.799 101.484 184.761 101.476 185.685 101.706C186.608 101.936 187.465 102.398 188.182 103.053L223.597 135.423L244.443 154.483L261.044 169.663Z" fill="#E6E6E6"/>
<path d="M415.996 169.663L418.35 171.803H304.31L305.079 169.663L329.369 102.113C329.703 101.18 330.245 100.346 330.95 99.6806C331.655 99.0156 332.502 98.5397 333.419 98.2933C334.336 98.0469 335.296 98.0373 336.217 98.2653C337.138 98.4933 337.993 98.9522 338.71 99.6029L386.997 143.383L389.778 145.893L415.996 169.663Z" fill="#E6E6E6"/>
<path d="M460.203 190.652C455.755 190.649 451.367 191.733 447.384 193.819C443.401 195.905 439.932 198.937 437.25 202.676C434.372 201.371 431.231 200.839 428.109 201.129C424.987 201.418 421.983 202.52 419.365 204.335C416.747 206.15 414.598 208.622 413.111 211.528C411.624 214.434 410.845 217.683 410.844 220.985H488.995C488.995 217.001 488.251 213.057 486.804 209.377C485.357 205.697 483.236 202.353 480.562 199.536C477.889 196.72 474.714 194.485 471.221 192.961C467.728 191.437 463.984 190.652 460.203 190.652V190.652Z" fill="#E6E6E6"/>
<path d="M568.157 169.663H226.122C222.274 169.67 218.537 171.029 215.505 173.525C212.472 176.021 210.316 179.511 209.378 183.443V183.453C209.038 184.889 208.866 186.363 208.865 187.843V340.143L209.976 341.173L210.896 342.033V187.843C210.901 183.59 212.506 179.513 215.361 176.506C218.215 173.499 222.085 171.808 226.122 171.803H568.157C572.194 171.806 576.065 173.497 578.92 176.504C581.775 179.512 583.38 183.59 583.382 187.843V373.173H584.351C584.706 373.169 585.061 373.186 585.414 373.223V187.843C585.407 183.023 583.587 178.403 580.352 174.995C577.117 171.588 572.732 169.67 568.157 169.663V169.663Z" fill="#3F3D56"/>
<path d="M288.996 309.382C314.603 309.382 335.363 287.512 335.363 260.535C335.363 233.558 314.603 211.688 288.996 211.688C263.388 211.688 242.629 233.558 242.629 260.535C242.629 287.512 263.388 309.382 288.996 309.382Z" fill="#C6C6C6"/>
<path d="M568.537 373.173H250.517C246.588 373.161 242.795 371.651 239.839 368.923L232.7 362.293L233.792 360.633L235.766 357.633L321.481 227.623L330.281 214.273C330.822 213.451 331.545 212.78 332.386 212.316C333.227 211.853 334.163 211.61 335.112 211.61C336.062 211.61 336.997 211.853 337.839 212.316C338.68 212.78 339.402 213.451 339.944 214.273L366.693 254.843V254.853L382.432 278.723L420.002 335.703L476.984 250.013C477.526 249.195 478.248 248.528 479.087 248.067C479.927 247.606 480.859 247.365 481.806 247.365C482.752 247.365 483.685 247.606 484.525 248.067C485.364 248.528 486.086 249.195 486.628 250.013L523.183 304.973L525.28 308.133L567.208 371.173L568.537 373.173Z" fill="#BBBBBB"/>
<path d="M398.665 241.3C393.177 241.296 387.763 242.633 382.849 245.207C377.936 247.782 373.656 251.522 370.347 256.134C366.796 254.524 362.92 253.868 359.069 254.226C355.217 254.583 351.51 255.943 348.281 258.182C345.051 260.421 342.4 263.47 340.565 267.056C338.73 270.641 337.769 274.65 337.768 278.723H434.188C434.188 273.809 433.269 268.943 431.484 264.402C429.699 259.862 427.082 255.736 423.784 252.261C420.485 248.786 416.569 246.03 412.259 244.149C407.949 242.268 403.33 241.3 398.665 241.3V241.3Z" fill="#CCCCCC"/>
<path d="M232.634 359.553L220.826 348.593L220.797 348.573L220.759 348.543L220.731 348.513C220.361 348.233 219.99 347.943 219.63 347.643C219.535 347.573 219.449 347.503 219.364 347.433C219.316 347.393 219.278 347.363 219.231 347.323C219.212 347.313 219.202 347.293 219.183 347.283C218.918 347.063 218.642 346.833 218.377 346.603C218.244 346.503 218.121 346.393 217.988 346.283C217.627 345.973 217.266 345.653 216.905 345.333C216.526 344.993 216.146 344.653 215.766 344.303C215.757 344.293 215.738 344.283 215.728 344.273C215.652 344.203 215.586 344.133 215.51 344.073C215.149 343.733 214.789 343.393 214.428 343.033C214.124 342.743 213.82 342.443 213.526 342.153C213.251 341.883 212.975 341.613 212.71 341.323L212.653 341.263C212.453 341.063 212.254 340.853 212.046 340.633C211.846 340.433 211.656 340.223 211.466 340.013C211.267 339.813 211.077 339.603 210.897 339.393L210.745 339.233L210.697 339.183L208.866 337.473V340.143L209.976 341.173L210.897 342.033L230.403 360.153L232.235 361.863L232.701 362.293L233.137 361.623L233.792 360.633L232.634 359.553ZM516.13 371.173C516.159 371.833 516.206 372.503 516.253 373.173H583.383V371.173H516.13ZM232.634 359.553L220.826 348.593L220.797 348.573L220.759 348.543L220.731 348.513C220.361 348.233 219.99 347.943 219.63 347.643C219.535 347.573 219.449 347.503 219.364 347.433C219.316 347.393 219.278 347.363 219.231 347.323C219.212 347.313 219.202 347.293 219.183 347.283C218.918 347.063 218.642 346.833 218.377 346.603C218.244 346.503 218.121 346.393 217.988 346.283C217.627 345.973 217.266 345.653 216.905 345.333C216.526 344.993 216.146 344.653 215.766 344.303C215.757 344.293 215.738 344.283 215.728 344.273C215.652 344.203 215.586 344.133 215.51 344.073C215.149 343.733 214.789 343.393 214.428 343.033C214.124 342.743 213.82 342.443 213.526 342.153C213.251 341.883 212.975 341.613 212.71 341.323L212.653 341.263C212.453 341.063 212.254 340.853 212.046 340.633C211.846 340.433 211.656 340.223 211.466 340.013C211.267 339.813 211.077 339.603 210.897 339.393L210.745 339.233L210.697 339.183L208.866 337.473V340.143L209.976 341.173L210.897 342.033L230.403 360.153L232.235 361.863L232.701 362.293L233.137 361.623L233.792 360.633L232.634 359.553ZM567.208 371.173H516.13C516.159 371.833 516.206 372.503 516.253 373.173H568.537L567.208 371.173ZM232.634 359.553L220.826 348.593L220.797 348.573L220.759 348.543L220.731 348.513C220.361 348.233 219.99 347.943 219.63 347.643C219.535 347.573 219.449 347.503 219.364 347.433C219.316 347.393 219.278 347.363 219.231 347.323C219.212 347.313 219.202 347.293 219.183 347.283C218.918 347.063 218.642 346.833 218.377 346.603C218.244 346.503 218.121 346.393 217.988 346.283C217.627 345.973 217.266 345.653 216.905 345.333C216.526 344.993 216.146 344.653 215.766 344.303C215.757 344.293 215.738 344.283 215.728 344.273C215.652 344.203 215.586 344.133 215.51 344.073C215.149 343.733 214.789 343.393 214.428 343.033C214.124 342.743 213.82 342.443 213.526 342.153C213.251 341.883 212.975 341.613 212.71 341.323L212.653 341.263C212.453 341.063 212.254 340.853 212.046 340.633C211.846 340.433 211.656 340.223 211.466 340.013C211.267 339.813 211.077 339.603 210.897 339.393L210.745 339.233L210.697 339.183L208.866 337.473V340.143L209.976 341.173L210.897 342.033L230.403 360.153L232.235 361.863L232.701 362.293L233.137 361.623L233.792 360.633L232.634 359.553ZM186.54 316.733L167.906 299.423C164.961 296.683 161.166 295.172 157.237 295.173H101.413L101.897 297.173H157.237C160.705 297.17 164.054 298.504 166.653 300.923L184.309 317.333L208.866 340.143V337.473L186.54 316.733ZM585.414 371.213C585.063 371.183 584.711 371.173 584.351 371.173H250.517C247.309 371.177 244.193 370.035 241.68 367.933C241.481 367.773 241.291 367.603 241.101 367.423L234.476 361.263L233.792 360.633L232.634 359.553L220.826 348.593L220.797 348.573L220.759 348.543L220.731 348.513L212.843 341.173L210.897 339.363L210.745 339.233L210.697 339.183L208.866 337.473L186.54 316.733L167.907 299.423C164.961 296.683 161.166 295.172 157.237 295.173H75.5656C71.2877 295.179 67.1867 296.972 64.1618 300.159C61.1368 303.346 59.4348 307.666 59.4287 312.173V630.173C59.4348 634.68 61.1368 639 64.1618 642.187C67.1867 645.373 71.2877 647.167 75.5656 647.173H584.351C588.629 647.167 592.73 645.373 595.755 642.187C598.78 639 600.482 634.68 600.488 630.173V388.173C600.481 383.861 598.921 379.712 596.123 376.564C593.325 373.416 589.498 371.504 585.414 371.213L585.414 371.213ZM598.589 630.173C598.585 634.15 597.083 637.962 594.414 640.774C591.745 643.586 588.126 645.168 584.351 645.173H75.5655C71.7907 645.168 68.1718 643.586 65.5025 640.774C62.8333 637.962 61.3317 634.15 61.3271 630.173V312.173C61.3317 308.196 62.8333 304.384 65.5025 301.572C68.1718 298.76 71.7907 297.178 75.5655 297.173H157.237C160.705 297.17 164.054 298.504 166.653 300.923L184.309 317.333L208.866 340.143L209.976 341.173L210.897 342.033L230.403 360.153L232.235 361.863L232.7 362.293L239.839 368.923C242.795 371.651 246.588 373.161 250.517 373.173H584.351C584.706 373.169 585.061 373.186 585.414 373.223C588.994 373.508 592.34 375.206 594.782 377.978C597.225 380.75 598.585 384.391 598.589 388.173L598.589 630.173ZM232.634 359.553L220.826 348.593L220.797 348.573L220.759 348.543L220.731 348.513C220.361 348.233 219.99 347.943 219.63 347.643C219.535 347.573 219.449 347.503 219.364 347.433C219.316 347.393 219.278 347.363 219.231 347.323C219.212 347.313 219.202 347.293 219.183 347.283C218.918 347.063 218.642 346.833 218.377 346.603C218.244 346.503 218.121 346.393 217.988 346.283C217.627 345.973 217.266 345.653 216.905 345.333C216.526 344.993 216.146 344.653 215.766 344.303C215.757 344.293 215.738 344.283 215.729 344.273C215.652 344.203 215.586 344.133 215.51 344.073C215.149 343.733 214.789 343.393 214.428 343.033C214.124 342.743 213.82 342.443 213.526 342.153C213.251 341.883 212.975 341.613 212.71 341.323L212.653 341.263C212.453 341.063 212.254 340.853 212.046 340.633C211.846 340.433 211.656 340.223 211.466 340.013C211.267 339.813 211.077 339.603 210.897 339.393L210.745 339.233L210.697 339.183L208.866 337.473V340.143L209.976 341.173L210.897 342.033L230.404 360.153L232.235 361.863L232.701 362.293L233.137 361.623L233.792 360.633L232.634 359.553ZM516.13 371.173C516.159 371.833 516.206 372.503 516.253 373.173H583.383V371.173H516.13ZM232.634 359.553L220.826 348.593L220.797 348.573L220.759 348.543L220.731 348.513C220.361 348.233 219.99 347.943 219.63 347.643C219.535 347.573 219.449 347.503 219.364 347.433C219.316 347.393 219.278 347.363 219.231 347.323C219.212 347.313 219.202 347.293 219.183 347.283C218.918 347.063 218.642 346.833 218.377 346.603C218.244 346.503 218.121 346.393 217.988 346.283C217.627 345.973 217.266 345.653 216.905 345.333C216.526 344.993 216.146 344.653 215.766 344.303C215.757 344.293 215.738 344.283 215.729 344.273C215.652 344.203 215.586 344.133 215.51 344.073C215.149 343.733 214.789 343.393 214.428 343.033C214.124 342.743 213.82 342.443 213.526 342.153C213.251 341.883 212.975 341.613 212.71 341.323L212.653 341.263C212.453 341.063 212.254 340.853 212.046 340.633C211.846 340.433 211.656 340.223 211.466 340.013C211.267 339.813 211.077 339.603 210.897 339.393L210.745 339.233L210.697 339.183L208.866 337.473V340.143L209.976 341.173L210.897 342.033L230.404 360.153L232.235 361.863L232.701 362.293L233.137 361.623L233.792 360.633L232.634 359.553ZM232.634 359.553L220.826 348.593L220.797 348.573L220.759 348.543L220.731 348.513C220.361 348.233 219.99 347.943 219.63 347.643C219.535 347.573 219.449 347.503 219.364 347.433C219.316 347.393 219.278 347.363 219.231 347.323C219.212 347.313 219.202 347.293 219.183 347.283C218.918 347.063 218.642 346.833 218.377 346.603C218.244 346.503 218.121 346.393 217.988 346.283C217.627 345.973 217.266 345.653 216.905 345.333C216.526 344.993 216.146 344.653 215.766 344.303C215.757 344.293 215.738 344.283 215.729 344.273C215.652 344.203 215.586 344.133 215.51 344.073C215.149 343.733 214.789 343.393 214.428 343.033C214.124 342.743 213.82 342.443 213.526 342.153C213.251 341.883 212.975 341.613 212.71 341.323L212.653 341.263C212.453 341.063 212.254 340.853 212.046 340.633C211.846 340.433 211.656 340.223 211.466 340.013C211.267 339.813 211.077 339.603 210.897 339.393L210.745 339.233L210.697 339.183L208.866 337.473V340.143L209.976 341.173L210.897 342.033L230.404 360.153L232.235 361.863L232.701 362.293L233.137 361.623L233.792 360.633L232.634 359.553ZM567.208 371.173H516.13C516.159 371.833 516.206 372.503 516.253 373.173H568.537L567.208 371.173Z" fill="#3F3D56"/>
<path d="M558.324 634.673H96.8466C92.8403 634.668 88.9993 632.989 86.1664 630.005C83.3335 627.02 81.74 622.974 81.7355 618.753V330.322C81.74 326.102 83.3336 322.055 86.1665 319.071C88.9994 316.086 92.8403 314.408 96.8466 314.403C100.39 314.407 103.787 315.892 106.293 318.532C108.799 321.171 110.208 324.75 110.212 328.483V599.753C110.217 603.709 111.71 607.501 114.365 610.298C117.02 613.095 120.62 614.668 124.374 614.673H556.765C558.913 614.648 561.007 615.381 562.713 616.757C564.419 618.132 565.639 620.069 566.177 622.26C566.78 624.338 566.705 626.568 565.964 628.595C565.223 630.623 563.859 632.33 562.089 633.445C560.966 634.215 559.662 634.64 558.324 634.673Z" fill="#F2F2F2"/>
</g>
<defs>
<clipPath id="clip0_107_161">
<rect width="647" height="647" fill="white"/>
</clipPath>
</defs>
</svg>
