<svg width="667" height="667" viewBox="0 0 667 667" fill="none" xmlns="http://www.w3.org/2000/svg">
<path d="M442.4 322H255.21C250.949 321.987 246.837 320.434 243.632 317.627L166.529 249.625C163.882 247.287 160.472 245.998 156.94 246H90.4V16.5C90.4049 12.1254 92.1449 7.93147 95.2382 4.8382C98.3314 1.74492 102.525 0.00494413 106.9 0H425.9C430.275 0.00494149 434.468 1.74492 437.562 4.8382C440.655 7.93148 442.395 12.1254 442.4 16.5L442.4 322Z" fill="#E6E6E6"/>
<path d="M166.9 106.5C186.23 106.5 201.9 90.83 201.9 71.5C201.9 52.17 186.23 36.5 166.9 36.5C147.57 36.5 131.9 52.17 131.9 71.5C131.9 90.83 147.57 106.5 166.9 106.5Z" fill="white"/>
<path d="M302.9 52.75H237.9C236.706 52.75 235.562 53.2241 234.718 54.068C233.874 54.9119 233.4 56.0565 233.4 57.25C233.4 58.4435 233.874 59.5881 234.718 60.432C235.562 61.2759 236.706 61.75 237.9 61.75H302.9C304.093 61.75 305.238 61.2759 306.082 60.432C306.926 59.5881 307.4 58.4435 307.4 57.25C307.4 56.0565 306.926 54.9119 306.082 54.068C305.238 53.2241 304.093 52.75 302.9 52.75Z" fill="white"/>
<path d="M397.26 81.25H237.04C235.03 81.25 233.4 83.27 233.4 85.75C233.4 88.23 235.03 90.25 237.04 90.25H397.26C399.27 90.25 400.9 88.23 400.9 85.75C400.9 83.27 399.27 81.25 397.26 81.25Z" fill="white"/>
<path d="M384.67 141.5H148.13C146.21 141.5 144.65 143.52 144.65 146C144.65 148.48 146.21 150.5 148.13 150.5H384.67C386.59 150.5 388.15 148.48 388.15 146C388.15 143.52 386.59 141.5 384.67 141.5Z" fill="white"/>
<path d="M384.67 169.5H148.13C146.21 169.5 144.65 171.52 144.65 174C144.65 176.48 146.21 178.5 148.13 178.5H384.67C386.59 178.5 388.15 176.48 388.15 174C388.15 171.52 386.59 169.5 384.67 169.5Z" fill="white"/>
<path d="M384.67 197.5H148.13C146.21 197.5 144.65 199.52 144.65 202C144.65 204.48 146.21 206.5 148.13 206.5H384.67C386.59 206.5 388.15 204.48 388.15 202C388.15 199.52 386.59 197.5 384.67 197.5Z" fill="white"/>
<path d="M384.67 225.5H148.13C146.21 225.5 144.65 227.52 144.65 230C144.65 232.48 146.21 234.5 148.13 234.5H384.67C386.59 234.5 388.15 232.48 388.15 230C388.15 227.52 386.59 225.5 384.67 225.5Z" fill="white"/>
<path d="M597.4 322H255.21C251.803 322.006 248.47 321.01 245.625 319.137L245.4 318.989V85.5C245.405 81.1254 247.145 76.9315 250.238 73.8382C253.331 70.7449 257.525 69.0049 261.9 69H580.9C585.274 69.0049 589.468 70.7449 592.562 73.8382C595.655 76.9315 597.395 81.1254 597.4 85.5L597.4 322Z" fill="#C6C6C6"/>
<path d="M321.9 175.5C341.23 175.5 356.9 159.83 356.9 140.5C356.9 121.17 341.23 105.5 321.9 105.5C302.57 105.5 286.9 121.17 286.9 140.5C286.9 159.83 302.57 175.5 321.9 175.5Z" fill="white"/>
<path d="M457.9 121.75H392.9C391.706 121.75 390.562 122.224 389.718 123.068C388.874 123.912 388.4 125.057 388.4 126.25C388.4 127.443 388.874 128.588 389.718 129.432C390.562 130.276 391.706 130.75 392.9 130.75H457.9C459.093 130.75 460.238 130.276 461.082 129.432C461.926 128.588 462.4 127.443 462.4 126.25C462.4 125.057 461.926 123.912 461.082 123.068C460.238 122.224 459.093 121.75 457.9 121.75Z" fill="white"/>
<path d="M552.26 150.25H392.04C390.03 150.25 388.4 152.27 388.4 154.75C388.4 157.23 390.03 159.25 392.04 159.25H552.26C554.27 159.25 555.9 157.23 555.9 154.75C555.9 152.27 554.27 150.25 552.26 150.25Z" fill="white"/>
<path d="M539.67 210.5H303.13C301.21 210.5 299.65 212.52 299.65 215C299.65 217.48 301.21 219.5 303.13 219.5H539.67C541.59 219.5 543.15 217.48 543.15 215C543.15 212.52 541.59 210.5 539.67 210.5Z" fill="white"/>
<path d="M539.67 238.5H303.13C301.21 238.5 299.65 240.52 299.65 243C299.65 245.48 301.21 247.5 303.13 247.5H539.67C541.59 247.5 543.15 245.48 543.15 243C543.15 240.52 541.59 238.5 539.67 238.5Z" fill="white"/>
<path d="M539.67 266.5H303.13C301.21 266.5 299.65 268.52 299.65 271C299.65 273.48 301.21 275.5 303.13 275.5H539.67C541.59 275.5 543.15 273.48 543.15 271C543.15 268.52 541.59 266.5 539.67 266.5Z" fill="white"/>
<path d="M539.67 294.5H303.13C301.21 294.5 299.65 296.52 299.65 299C299.65 301.48 301.21 303.5 303.13 303.5H539.67C541.59 303.5 543.15 301.48 543.15 299C543.15 296.52 541.59 294.5 539.67 294.5Z" fill="white"/>
<path d="M606.9 319.5H255.21C251.829 319.504 248.547 318.362 245.9 316.26C245.69 316.1 245.49 315.93 245.29 315.75L215.52 289.5L168.18 247.75C165.077 245.01 161.08 243.499 156.94 243.5H70.9C66.3932 243.506 62.0729 245.3 58.8862 248.486C55.6994 251.673 53.9063 255.993 53.9 260.5V649.5C53.9063 654.007 55.6994 658.327 58.8862 661.514C62.0729 664.701 66.3932 666.494 70.9 666.5H606.9C611.407 666.494 615.727 664.701 618.914 661.514C622.1 658.327 623.894 654.007 623.9 649.5V336.5C623.894 331.993 622.1 327.673 618.914 324.486C615.727 321.299 611.407 319.506 606.9 319.5V319.5ZM621.9 649.5C621.895 653.477 620.313 657.289 617.501 660.101C614.689 662.913 610.877 664.495 606.9 664.5H70.9C66.9232 664.495 63.1107 662.913 60.2987 660.101C57.4867 657.289 55.9048 653.477 55.9 649.5V260.5C55.9048 256.523 57.4867 252.711 60.2987 249.899C63.1107 247.087 66.9232 245.505 70.9 245.5H156.94C160.593 245.497 164.122 246.831 166.86 249.25L212.5 289.5L243.96 317.25C247.074 319.978 251.07 321.488 255.21 321.5H606.9C610.877 321.505 614.689 323.087 617.501 325.899C620.313 328.711 621.895 332.523 621.9 336.5V649.5Z" fill="#3F3D56"/>
<path d="M493.9 597.5H199.9C195.923 597.496 192.11 595.914 189.298 593.102C186.486 590.29 184.904 586.477 184.9 582.5V420.5C184.904 416.523 186.486 412.71 189.298 409.898C192.11 407.086 195.923 405.504 199.9 405.5H493.9C497.877 405.504 501.69 407.086 504.502 409.898C507.314 412.71 508.895 416.523 508.9 420.5V582.5C508.895 586.477 507.314 590.29 504.502 593.102C501.69 595.914 497.877 597.496 493.9 597.5ZM199.9 407.5C196.453 407.504 193.149 408.875 190.712 411.312C188.275 413.749 186.904 417.053 186.9 420.5V582.5C186.904 585.947 188.275 589.251 190.712 591.688C193.149 594.125 196.453 595.496 199.9 595.5H493.9C497.347 595.496 500.651 594.125 503.088 591.688C505.525 589.251 506.896 585.947 506.9 582.5V420.5C506.896 417.053 505.525 413.749 503.088 411.312C500.651 408.875 497.347 407.504 493.9 407.5H199.9Z" fill="#E6E6E6"/>
<path d="M247.4 500.5C266.73 500.5 282.4 484.83 282.4 465.5C282.4 446.17 266.73 430.5 247.4 430.5C228.07 430.5 212.4 446.17 212.4 465.5C212.4 484.83 228.07 500.5 247.4 500.5Z" fill="#E6E6E6"/>
<path d="M383.4 446.75H318.4C317.206 446.75 316.062 447.224 315.218 448.068C314.374 448.912 313.9 450.057 313.9 451.25C313.9 452.443 314.374 453.588 315.218 454.432C316.062 455.276 317.206 455.75 318.4 455.75H383.4C384.593 455.75 385.738 455.276 386.582 454.432C387.426 453.588 387.9 452.443 387.9 451.25C387.9 450.057 387.426 448.912 386.582 448.068C385.738 447.224 384.593 446.75 383.4 446.75Z" fill="#E6E6E6"/>
<path d="M477.76 475.25H317.54C315.53 475.25 313.9 477.27 313.9 479.75C313.9 482.23 315.53 484.25 317.54 484.25H477.76C479.77 484.25 481.4 482.23 481.4 479.75C481.4 477.27 479.77 475.25 477.76 475.25Z" fill="#E6E6E6"/>
<path d="M465.17 535.5H228.63C226.71 535.5 225.15 537.52 225.15 540C225.15 542.48 226.71 544.5 228.63 544.5H465.17C467.09 544.5 468.65 542.48 468.65 540C468.65 537.52 467.09 535.5 465.17 535.5Z" fill="#E6E6E6"/>
<path d="M465.17 563.5H228.63C226.71 563.5 225.15 565.52 225.15 568C225.15 570.48 226.71 572.5 228.63 572.5H465.17C467.09 572.5 468.65 570.48 468.65 568C468.65 565.52 467.09 563.5 465.17 563.5Z" fill="#E6E6E6"/>
</svg>
