<svg width="66" height="59" viewBox="0 0 66 59" fill="none" xmlns="http://www.w3.org/2000/svg">
<path d="M29.0566 58.1132C45.1041 58.1132 58.1132 45.1041 58.1132 29.0566C58.1132 13.0091 45.1041 0 29.0566 0C13.0091 0 0 13.0091 0 29.0566C0 45.1041 13.0091 58.1132 29.0566 58.1132Z" fill="#F77D27"/>
<path fill-rule="evenodd" clip-rule="evenodd" d="M42.9496 35.2014C40.5906 40.5268 35.2588 44.242 29.0594 44.242C23.4004 44.242 18.4644 41.1462 15.8526 36.556H22.4982V37.3058L25.8726 35.4312L22.4982 33.369V34.4938H14.8771C14.2297 32.806 13.875 30.9732 13.875 29.0574C13.875 20.6714 20.6734 13.873 29.0594 13.873C34.641 13.873 39.5192 16.8846 42.1578 21.3716H36.3704V20.2468L32.9962 22.3088L36.3704 24.1834V23.4336H43.1684C43.2738 23.698 43.3722 23.9662 43.463 24.2376C45.3686 26.2456 48.9984 26.5366 51.7084 25.348C53.0246 23.1884 55.402 21.7464 58.116 21.7464C62.2574 21.7464 65.6146 25.1036 65.6146 29.245C65.6146 33.3862 62.2574 36.7434 58.116 36.7434C55.596 36.7434 53.3662 35.5002 52.0068 33.5938C48.1806 32.6192 45.7436 32.6192 42.9496 35.2014Z" fill="white"/>
</svg>
