<svg width="16" height="17" viewBox="0 0 16 17" fill="#DD6E20" xmlns="http://www.w3.org/2000/svg">
<path opacity="0.4" d="M14.44 7.11615L13.7867 9.90282C13.2267 12.3095 12.12 13.2828 10.04 13.0828C9.70671 13.0562 9.3467 12.9962 8.96004 12.9028L7.84004 12.6362C5.06004 11.9762 4.20004 10.6028 4.85337 7.81615L5.50671 5.02282C5.64004 4.45615 5.80004 3.96282 6.00004 3.55615C6.78004 1.94282 8.1067 1.50949 10.3334 2.03615L11.4467 2.29615C14.24 2.94949 15.0934 4.32949 14.44 7.11615Z" fill="inherit"/>
<path d="M10.0402 13.0829C9.62689 13.3629 9.10689 13.5962 8.47356 13.8029L7.42023 14.1495C4.77356 15.0029 3.38023 14.2895 2.52023 11.6429L1.66689 9.00955C0.813561 6.36288 1.52023 4.96288 4.16689 4.10955L5.22023 3.76288C5.49356 3.67621 5.75356 3.60288 6.00023 3.55621C5.80023 3.96288 5.64023 4.45621 5.50689 5.02288L4.85356 7.81621C4.20023 10.6029 5.06023 11.9762 7.84023 12.6362L8.96023 12.9029C9.34689 12.9962 9.70689 13.0562 10.0402 13.0829Z" fill="inherit"/>
<path d="M11.6602 7.16301C11.6202 7.16301 11.5802 7.15635 11.5335 7.14968L8.30016 6.32968C8.03349 6.26301 7.87349 5.98968 7.94016 5.72301C8.00683 5.45635 8.28016 5.29635 8.54683 5.36301L11.7802 6.18301C12.0468 6.24968 12.2068 6.52301 12.1402 6.78968C12.0868 7.00968 11.8802 7.16301 11.6602 7.16301Z" fill="inherit"/>
<path d="M9.70667 9.41642C9.66667 9.41642 9.62667 9.40976 9.58 9.40309L7.64 8.90976C7.37334 8.84309 7.21334 8.56976 7.28 8.30309C7.34667 8.03642 7.62 7.87642 7.88667 7.94309L9.82667 8.43642C10.0933 8.50309 10.2533 8.77642 10.1867 9.04309C10.1333 9.26976 9.93334 9.41642 9.70667 9.41642Z" fill="inherit"/>
</svg>
