<svg width="32" height="32" viewBox="0 0 32 32" fill="#DD7824" xmlns="http://www.w3.org/2000/svg">
<path opacity="0.4" d="M27.1467 16.9734C26.6533 16.9734 26.24 16.6001 26.1867 16.1068C25.8667 13.1734 24.2933 10.5334 21.8667 8.85343C21.4267 8.54676 21.32 7.94676 21.6267 7.50676C21.9333 7.06676 22.5333 6.9601 22.9733 7.26676C25.8667 9.2801 27.7333 12.4268 28.12 15.9068C28.1733 16.4401 27.7867 16.9201 27.2533 16.9734C27.2133 16.9734 27.1867 16.9734 27.1467 16.9734Z" fill="inherit"/>
<path opacity="0.4" d="M4.98706 17.0398C4.96039 17.0398 4.92039 17.0398 4.89372 17.0398C4.36039 16.9864 3.97372 16.5064 4.02706 15.9731C4.38706 12.4931 6.22706 9.34645 9.09372 7.31978C9.52039 7.01311 10.1337 7.11978 10.4404 7.54645C10.7471 7.98645 10.6404 8.58645 10.2137 8.89311C7.81372 10.5998 6.25372 13.2398 5.96039 16.1598C5.90706 16.6664 5.48039 17.0398 4.98706 17.0398Z" fill="inherit"/>
<path opacity="0.4" d="M21.3195 28.1336C19.6795 28.9203 17.9195 29.3203 16.0795 29.3203C14.1595 29.3203 12.3328 28.8936 10.6261 28.0269C10.1461 27.8003 9.95948 27.2136 10.1995 26.7336C10.4261 26.2536 11.0128 26.0669 11.4928 26.2936C12.3328 26.7203 13.2261 27.0136 14.1328 27.1869C15.3595 27.4269 16.6128 27.4403 17.8395 27.2269C18.7461 27.0669 19.6395 26.7869 20.4661 26.3869C20.9595 26.1603 21.5461 26.3469 21.7595 26.8403C21.9995 27.3203 21.8128 27.9069 21.3195 28.1336Z" fill="inherit"/>
<path d="M16.0673 2.68018C14.0006 2.68018 12.3073 4.36018 12.3073 6.44018C12.3073 8.52018 13.9873 10.2002 16.0673 10.2002C18.1473 10.2002 19.8273 8.52018 19.8273 6.44018C19.8273 4.36018 18.1473 2.68018 16.0673 2.68018Z" fill="inherit"/>
<path d="M6.73395 18.4937C4.66729 18.4937 2.97395 20.1737 2.97395 22.2537C2.97395 24.3337 4.65395 26.0137 6.73395 26.0137C8.81395 26.0137 10.494 24.3337 10.494 22.2537C10.494 20.1737 8.80062 18.4937 6.73395 18.4937Z" fill="inherit"/>
<path d="M25.2667 18.4932C23.2 18.4932 21.5067 20.1732 21.5067 22.2532C21.5067 24.3332 23.1867 26.0132 25.2667 26.0132C27.3467 26.0132 29.0267 24.3332 29.0267 22.2532C29.0267 20.1732 27.3467 18.4932 25.2667 18.4932Z" fill="inherit"/>
</svg>
