<svg width="24" height="24" viewBox="0 0 24 24" fill="#DD7824" xmlns="http://www.w3.org/2000/svg">
<path opacity="0.4" d="M10.24 14.74C9.90999 14.41 9.46999 14.22 8.99999 14.22H3.91999C3.30999 14.22 2.74999 14.53 2.42999 15.05C2.10999 15.56 2.07999 16.17 2.33999 16.71C3.56999 19.23 5.78999 21.21 8.42999 22.14C8.60999 22.2 8.80999 22.24 8.99999 22.24C9.34999 22.24 9.69999 22.13 9.99999 21.92C10.47 21.59 10.75 21.05 10.75 20.48L10.76 15.98C10.75 15.51 10.57 15.07 10.24 14.74Z" fill="inherit"/>
<path d="M22.48 9.6C21.36 4.68 17.05 1.25 12 1.25C6.94999 1.25 2.63999 4.68 1.51999 9.6C1.39999 10.12 1.51999 10.65 1.85999 11.07C2.19999 11.49 2.69999 11.73 3.23999 11.73H20.77C21.31 11.73 21.81 11.49 22.15 11.07C22.48 10.65 22.6 10.11 22.48 9.6Z" fill="inherit"/>
<path opacity="0.4" d="M21.56 15.1C21.24 14.58 20.68 14.26 20.06 14.26L15 14.25C14.53 14.25 14.09 14.43 13.76 14.76C13.43 15.09 13.25 15.53 13.25 16L13.26 20.48C13.26 21.05 13.54 21.59 14.01 21.92C14.31 22.13 14.66 22.24 15.01 22.24C15.2 22.24 15.39 22.21 15.57 22.14C18.19 21.22 20.41 19.25 21.64 16.76C21.9 16.23 21.87 15.61 21.56 15.1Z" fill="inherit"/>
</svg>
