<svg width="24" height="24" viewBox="0 0 24 24" fill="#DD6E20" xmlns="http://www.w3.org/2000/svg">
<path opacity="0.4" d="M18.38 12.84V17.77C18.38 19.04 17.39 20.4 16.2 20.8L13.01 21.86C12.45 22.05 11.54 22.05 10.99 21.86L7.8 20.8C6.6 20.4 5.62 19.04 5.62 17.77L5.63 12.84L10.05 15.72C11.13 16.43 12.91 16.43 13.99 15.72L18.38 12.84Z" fill="inherit"/>
<path d="M19.9795 6.46006L13.9895 2.53006C12.9095 1.82006 11.1295 1.82006 10.0495 2.53006L4.02953 6.46006C2.09953 7.71006 2.09953 10.5401 4.02953 11.8001L5.62953 12.8401L10.0495 15.7201C11.1295 16.4301 12.9095 16.4301 13.9895 15.7201L18.3795 12.8401L19.7495 11.9401V15.0001C19.7495 15.4101 20.0895 15.7501 20.4995 15.7501C20.9095 15.7501 21.2495 15.4101 21.2495 15.0001V10.0801C21.6495 8.79006 21.2395 7.29006 19.9795 6.46006Z" fill="inherit"/>
</svg>
