<svg width="32" height="32" viewBox="0 0 32 32" fill="#DD7824" xmlns="http://www.w3.org/2000/svg">
<path opacity="0.4" d="M21.5867 2.6665H10.4133C5.56 2.6665 2.66667 5.55984 2.66667 10.4132V21.5732C2.66667 26.4398 5.56 29.3332 10.4133 29.3332H21.5733C26.4267 29.3332 29.32 26.4398 29.32 21.5865V10.4132C29.3333 5.55984 26.44 2.6665 21.5867 2.6665Z" fill="inherit"/>
<path d="M22.4406 12.5465C22.3473 12.3198 22.1606 12.1331 21.9339 12.0398C21.8273 11.9998 21.7073 11.9731 21.5873 11.9731H19.1073C18.5873 11.9731 18.1739 12.3865 18.1739 12.9065C18.1739 13.4265 18.5873 13.8398 19.1073 13.8398H19.3473L16.5339 16.6531L15.1739 14.6265C15.0139 14.3998 14.7739 14.2398 14.4939 14.2131C14.2006 14.1865 13.9473 14.2798 13.7473 14.4798L9.77392 18.4531C9.41392 18.8131 9.41392 19.3998 9.77392 19.7731C9.96059 19.9598 10.1873 20.0398 10.4273 20.0398C10.6673 20.0398 10.9073 19.9465 11.0806 19.7731L14.2539 16.5998L15.6139 18.6265C15.7739 18.8531 16.0139 19.0131 16.2939 19.0398C16.5873 19.0665 16.8406 18.9731 17.0406 18.7731L20.6673 15.1465V15.3865C20.6673 15.9065 21.0806 16.3198 21.6006 16.3198C22.1206 16.3198 22.5339 15.9065 22.5339 15.3865V12.8931C22.5073 12.7731 22.4939 12.6531 22.4406 12.5465Z" fill="inherit"/>
</svg>
