<svg width="512" height="512" viewBox="0 0 512 512" fill="none" xmlns="http://www.w3.org/2000/svg">
<path d="M183.295 123.586H55.05C48.363 123.586 42.249 119.808 39.259 113.826L26.483 88.2759L39.259 62.7259C42.249 56.7439 48.362 52.9659 55.05 52.9659H183.296C189.983 52.9659 196.097 56.7439 199.087 62.7259L211.862 88.2759L199.086 113.826C196.096 119.808 189.983 123.586 183.295 123.586Z" fill="#E8E8E8"/>
<path d="M183.295 123.586H55.05C48.363 123.586 42.249 119.808 39.259 113.826L26.483 88.2759L39.259 62.7259C42.249 56.7439 48.362 52.9659 55.05 52.9659H183.296C189.983 52.9659 196.097 56.7439 199.087 62.7259L211.862 88.2759L199.086 113.826C196.096 119.808 189.983 123.586 183.295 123.586Z" fill="#D7D7D7"/>
<path d="M485.517 70.621H26.483C21.608 70.621 17.655 74.574 17.655 79.449V123.587H494.345V79.448C494.345 74.573 490.392 70.621 485.517 70.621Z" fill="#EFF2FA"/>
<path d="M494.345 105.931H17.655V123.586H494.345V105.931Z" fill="#E1E6F2"/>
<path d="M494.345 88.276H217.318C213.975 88.276 210.918 90.165 209.423 93.155L199.087 113.826C196.097 119.808 189.982 123.586 183.296 123.586H55.05C48.363 123.586 42.249 119.808 39.259 113.826L28.922 93.155C27.427 90.165 24.37 88.276 21.027 88.276H17.655C7.904 88.276 0 96.18 0 105.931V441.379C0 451.13 7.904 459.034 17.655 459.034H494.345C504.096 459.034 512 451.13 512 441.379V105.931C512 96.18 504.096 88.276 494.345 88.276Z" fill="#C6C6C6"/>
<path d="M485.517 441.379H26.483C21.608 441.379 17.655 437.426 17.655 432.551C17.655 427.676 21.608 423.723 26.483 423.723H485.517C490.392 423.723 494.345 427.676 494.345 432.551C494.345 437.427 490.392 441.379 485.517 441.379Z" fill="#C6C6C6"/>
<path d="M326.621 220.69H459.035C463.91 220.69 467.863 216.737 467.863 211.862V141.241C467.863 136.366 463.91 132.413 459.035 132.413H326.621C321.746 132.413 317.793 136.366 317.793 141.241V211.862C317.793 216.737 321.746 220.69 326.621 220.69Z" fill="#EFF2FA"/>
<path d="M441.379 167.724H344.276C339.401 167.724 335.448 163.771 335.448 158.896C335.448 154.021 339.401 150.068 344.276 150.068H441.379C446.254 150.068 450.207 154.021 450.207 158.896C450.207 163.772 446.254 167.724 441.379 167.724Z" fill="#C7CFE2"/>
<path d="M441.379 203.034H344.276C339.401 203.034 335.448 199.081 335.448 194.206C335.448 189.331 339.401 185.378 344.276 185.378H441.379C446.254 185.378 450.207 189.331 450.207 194.206C450.207 199.082 446.254 203.034 441.379 203.034Z" fill="#D7DEED"/>
</svg>
