<svg width="647" height="647" viewBox="0 0 647 647" fill="none" xmlns="http://www.w3.org/2000/svg">
<path d="M409.651 220.612L401.371 186.272L389.725 137.989L389.065 135.264V135.257L384.461 116.165C383.704 113.04 381.802 110.359 379.172 108.71C376.543 107.062 373.4 106.581 370.435 107.373L339.842 115.576L148.69 166.852C145.727 167.651 143.185 169.657 141.622 172.43C140.059 175.203 139.603 178.517 140.353 181.644L146.951 209.007L163.714 278.511L170.019 304.661L170.343 306H171.74L171.416 304.661L165.39 279.656V279.649L147.903 207.152L141.668 181.296C141.005 178.536 141.408 175.61 142.788 173.163C144.167 170.715 146.411 168.944 149.027 168.238L339.778 117.069L370.765 108.759C373.383 108.06 376.156 108.485 378.478 109.94C380.799 111.395 382.478 113.761 383.147 116.52L388.036 136.784L388.697 139.536L400.012 186.459L408.247 220.612L408.59 222.045H410L409.651 220.612Z" fill="#CCCCCC"/>
<path d="M204.5 268C222.449 268 237 252.554 237 233.5C237 214.446 222.449 199 204.5 199C186.551 199 172 214.446 172 233.5C172 252.554 186.551 268 204.5 268Z" fill="#F2F2F2"/>
<path d="M278.433 220.581L280 222.013H255.091C252.393 222.016 249.807 223.148 247.899 225.16C245.991 227.172 244.918 229.9 244.915 232.746V314.616L244.553 334L228.635 318.985L227.144 319.387L215.343 308.407C213.606 306.789 211.368 305.896 209.05 305.898H178L178.476 304.56L184.681 287.076L219.861 187.883L223.477 177.692C223.7 177.066 224.062 176.506 224.534 176.059C225.007 175.613 225.574 175.293 226.189 175.128C226.803 174.963 227.447 174.957 228.064 175.111C228.681 175.266 229.254 175.575 229.733 176.013L253.404 197.672L267.337 210.425L278.433 220.581Z" fill="#E6E6E6"/>
<path d="M382.431 220.577L384 222H308L308.512 220.577L324.7 175.667C324.923 175.047 325.284 174.492 325.754 174.05C326.224 173.608 326.788 173.292 327.399 173.128C328.01 172.964 328.65 172.958 329.264 173.109C329.878 173.261 330.448 173.566 330.925 173.998L363.105 203.105L364.959 204.774L382.431 220.577Z" fill="#E6E6E6"/>
<path d="M411.842 235C408.882 234.998 405.963 235.713 403.313 237.088C400.663 238.464 398.354 240.463 396.57 242.928C394.655 242.067 392.565 241.717 390.488 241.908C388.41 242.099 386.411 242.825 384.669 244.022C382.928 245.219 381.498 246.848 380.508 248.764C379.519 250.681 379 252.823 379 255H431C431 252.374 430.504 249.773 429.542 247.346C428.579 244.92 427.168 242.715 425.389 240.858C423.61 239.001 421.498 237.527 419.174 236.522C416.849 235.517 414.358 235 411.842 235V235Z" fill="#E6E6E6"/>
<path d="M484.451 221H255.549C252.973 221.005 250.473 221.913 248.443 223.58C246.414 225.248 244.971 227.58 244.343 230.207V230.213C244.115 231.172 244 232.157 244 233.146V334.899L244.743 335.587L245.359 336.162V233.146C245.362 230.305 246.437 227.581 248.347 225.572C250.257 223.563 252.847 222.433 255.549 222.43H484.451C487.153 222.432 489.744 223.561 491.654 225.571C493.565 227.58 494.639 230.305 494.641 233.146V356.967H495.288C495.526 356.964 495.764 356.975 496 357V233.146C495.996 229.926 494.777 226.84 492.612 224.563C490.448 222.286 487.513 221.005 484.451 221V221Z" fill="#CCCCCC"/>
<path d="M297 314C314.121 314 328 299.449 328 281.5C328 263.551 314.121 249 297 249C279.879 249 266 263.551 266 281.5C266 299.449 279.879 314 297 314Z" fill="#DD6E20"/>
<path d="M484 357H271.884C269.263 356.992 266.733 355.983 264.761 354.159L260 349.727L260.728 348.617L262.045 346.612L319.216 259.704L325.085 250.78C325.446 250.231 325.928 249.782 326.489 249.472C327.051 249.162 327.675 249 328.308 249C328.941 249 329.565 249.162 330.126 249.472C330.688 249.782 331.169 250.231 331.531 250.78L349.372 277.9V277.906L359.87 293.863L384.928 331.952L422.935 274.671C423.297 274.125 423.778 273.678 424.338 273.37C424.898 273.062 425.52 272.901 426.151 272.901C426.783 272.901 427.405 273.062 427.965 273.37C428.525 273.678 429.006 274.125 429.368 274.671L453.749 311.41L455.149 313.523L483.114 355.663L484 357Z" fill="#BBBBBB"/>
<path d="M371.053 268C367.353 267.997 363.703 268.891 360.391 270.61C357.078 272.33 354.193 274.829 351.963 277.91C349.568 276.834 346.956 276.396 344.359 276.635C341.763 276.874 339.264 277.782 337.087 279.278C334.91 280.774 333.122 282.811 331.885 285.206C330.648 287.601 330.001 290.279 330 293H395C395 289.717 394.381 286.466 393.177 283.433C391.974 280.4 390.21 277.644 387.986 275.322C385.762 273.001 383.122 271.159 380.217 269.903C377.311 268.647 374.197 268 371.053 268V268Z" fill="#CCCCCC"/>
<mask id="path-10-inside-1_107_161" fill="white">
<path d="M259.885 347.164L251.984 339.816L251.965 339.802L251.939 339.782L251.921 339.762C251.673 339.574 251.425 339.38 251.184 339.179C251.12 339.132 251.063 339.085 251.006 339.038C250.974 339.011 250.949 338.991 250.917 338.964C250.904 338.957 250.898 338.944 250.885 338.937C250.707 338.79 250.523 338.636 250.346 338.481C250.257 338.414 250.174 338.341 250.085 338.267C249.844 338.059 249.603 337.845 249.361 337.63C249.107 337.402 248.853 337.174 248.599 336.939C248.593 336.933 248.58 336.926 248.574 336.919C248.523 336.872 248.478 336.825 248.428 336.785C248.186 336.557 247.945 336.329 247.703 336.088C247.5 335.894 247.297 335.692 247.1 335.498C246.916 335.317 246.732 335.136 246.554 334.942L246.516 334.901C246.382 334.767 246.249 334.626 246.11 334.479C245.976 334.345 245.849 334.204 245.722 334.063C245.589 333.929 245.461 333.788 245.341 333.647L245.239 333.54L245.207 333.507L243.982 332.36V334.15L244.725 334.841L245.341 335.417L258.392 347.566L259.618 348.713L259.929 349.001L260.221 348.552L260.659 347.888L259.885 347.164ZM449.56 354.955C449.579 355.397 449.611 355.846 449.642 356.295H494.556V354.955H449.56ZM259.885 347.164L251.984 339.816L251.965 339.802L251.939 339.782L251.921 339.762C251.673 339.574 251.425 339.38 251.184 339.179C251.12 339.132 251.063 339.085 251.006 339.038C250.974 339.011 250.949 338.991 250.917 338.964C250.904 338.957 250.898 338.944 250.885 338.937C250.707 338.79 250.523 338.636 250.346 338.481C250.257 338.414 250.174 338.341 250.085 338.267C249.844 338.059 249.603 337.845 249.361 337.63C249.107 337.402 248.853 337.174 248.599 336.939C248.593 336.933 248.58 336.926 248.574 336.919C248.523 336.872 248.478 336.825 248.428 336.785C248.186 336.557 247.945 336.329 247.703 336.088C247.5 335.894 247.297 335.692 247.1 335.498C246.916 335.317 246.732 335.136 246.554 334.942L246.516 334.901C246.382 334.767 246.249 334.626 246.11 334.479C245.976 334.345 245.849 334.204 245.722 334.063C245.589 333.929 245.461 333.788 245.341 333.647L245.239 333.54L245.207 333.507L243.982 332.36V334.15L244.725 334.841L245.341 335.417L258.392 347.566L259.618 348.713L259.929 349.001L260.221 348.552L260.659 347.888L259.885 347.164ZM483.734 354.955H449.56C449.579 355.397 449.611 355.846 449.642 356.295H484.623L483.734 354.955ZM259.885 347.164L251.984 339.816L251.965 339.802L251.939 339.782L251.921 339.762C251.673 339.574 251.425 339.38 251.184 339.179C251.12 339.132 251.063 339.085 251.006 339.038C250.974 339.011 250.949 338.991 250.917 338.964C250.904 338.957 250.898 338.944 250.885 338.937C250.707 338.79 250.523 338.636 250.346 338.481C250.257 338.414 250.174 338.341 250.085 338.267C249.844 338.059 249.603 337.845 249.361 337.63C249.107 337.402 248.853 337.174 248.599 336.939C248.593 336.933 248.58 336.926 248.574 336.919C248.523 336.872 248.478 336.825 248.428 336.785C248.186 336.557 247.945 336.329 247.703 336.088C247.5 335.894 247.297 335.692 247.1 335.498C246.916 335.317 246.732 335.136 246.554 334.942L246.516 334.901C246.382 334.767 246.249 334.626 246.11 334.479C245.976 334.345 245.849 334.204 245.722 334.063C245.589 333.929 245.461 333.788 245.341 333.647L245.239 333.54L245.207 333.507L243.982 332.36V334.15L244.725 334.841L245.341 335.417L258.392 347.566L259.618 348.713L259.929 349.001L260.221 348.552L260.659 347.888L259.885 347.164ZM229.045 318.455L216.578 306.849C214.607 305.012 212.068 303.999 209.439 304H172.09L172.414 305.341H209.439C211.76 305.339 214.001 306.233 215.739 307.855L227.552 318.857L243.982 334.15V332.36L229.045 318.455ZM495.915 354.981C495.68 354.961 495.445 354.955 495.204 354.955H271.85C269.703 354.957 267.618 354.191 265.937 352.782C265.803 352.675 265.676 352.561 265.549 352.44L261.117 348.31L260.659 347.888L259.885 347.164L251.984 339.816L251.965 339.802L251.939 339.782L251.921 339.762L246.643 334.841L245.341 333.627L245.239 333.54L245.207 333.507L243.982 332.36L229.045 318.455L216.578 306.849C214.607 305.012 212.069 303.999 209.439 304H154.796C151.934 304.004 149.191 305.207 147.167 307.343C145.143 309.48 144.004 312.376 144 315.398V528.602C144.004 531.624 145.143 534.52 147.167 536.657C149.191 538.794 151.934 539.996 154.796 540H495.204C498.066 539.996 500.809 538.794 502.833 536.657C504.857 534.52 505.996 531.624 506 528.602V366.352C505.995 363.461 504.952 360.679 503.08 358.569C501.208 356.458 498.647 355.176 495.915 354.981L495.915 354.981ZM504.73 528.602C504.727 531.268 503.722 533.825 501.936 535.71C500.15 537.595 497.729 538.656 495.204 538.659H154.796C152.271 538.656 149.85 537.595 148.064 535.71C146.278 533.825 145.273 531.268 145.27 528.602V315.398C145.273 312.731 146.278 310.175 148.064 308.29C149.85 306.405 152.271 305.344 154.796 305.341H209.439C211.76 305.339 214.001 306.233 215.739 307.855L227.552 318.857L243.982 334.15L244.725 334.841L245.341 335.418L258.392 347.566L259.618 348.713L259.929 349.001L264.705 353.446C266.682 355.275 269.22 356.287 271.85 356.295H495.203C495.441 356.293 495.678 356.304 495.915 356.329C498.31 356.52 500.549 357.659 502.183 359.517C503.817 361.375 504.727 363.817 504.73 366.352L504.73 528.602ZM259.885 347.164L251.984 339.816L251.965 339.802L251.939 339.782L251.921 339.762C251.673 339.574 251.425 339.38 251.184 339.179C251.12 339.132 251.063 339.085 251.006 339.038C250.974 339.011 250.949 338.991 250.917 338.964C250.904 338.957 250.898 338.944 250.885 338.937C250.707 338.79 250.523 338.636 250.346 338.481C250.257 338.414 250.174 338.341 250.085 338.267C249.844 338.059 249.603 337.845 249.361 337.63C249.107 337.402 248.853 337.174 248.599 336.939C248.593 336.933 248.58 336.926 248.574 336.919C248.523 336.872 248.478 336.825 248.428 336.785C248.186 336.557 247.945 336.329 247.704 336.088C247.5 335.894 247.297 335.692 247.1 335.498C246.916 335.317 246.732 335.136 246.554 334.942L246.516 334.901C246.382 334.767 246.249 334.626 246.11 334.479C245.976 334.345 245.849 334.204 245.722 334.063C245.589 333.929 245.462 333.788 245.341 333.647L245.239 333.54L245.208 333.507L243.982 332.36V334.15L244.725 334.841L245.341 335.417L258.392 347.566L259.618 348.713L259.929 349.001L260.221 348.552L260.659 347.888L259.885 347.164ZM449.56 354.955C449.579 355.397 449.611 355.846 449.642 356.295H494.556V354.955H449.56ZM259.885 347.164L251.984 339.816L251.965 339.802L251.939 339.782L251.921 339.762C251.673 339.574 251.425 339.38 251.184 339.179C251.12 339.132 251.063 339.085 251.006 339.038C250.974 339.011 250.949 338.991 250.917 338.964C250.904 338.957 250.898 338.944 250.885 338.937C250.707 338.79 250.523 338.636 250.346 338.481C250.257 338.414 250.174 338.341 250.085 338.267C249.844 338.059 249.603 337.845 249.361 337.63C249.107 337.402 248.853 337.174 248.599 336.939C248.593 336.933 248.58 336.926 248.574 336.919C248.523 336.872 248.478 336.825 248.428 336.785C248.186 336.557 247.945 336.329 247.704 336.088C247.5 335.894 247.297 335.692 247.1 335.498C246.916 335.317 246.732 335.136 246.554 334.942L246.516 334.901C246.382 334.767 246.249 334.626 246.11 334.479C245.976 334.345 245.849 334.204 245.722 334.063C245.589 333.929 245.462 333.788 245.341 333.647L245.239 333.54L245.208 333.507L243.982 332.36V334.15L244.725 334.841L245.341 335.417L258.392 347.566L259.618 348.713L259.929 349.001L260.221 348.552L260.659 347.888L259.885 347.164ZM259.885 347.164L251.984 339.816L251.965 339.802L251.939 339.782L251.921 339.762C251.673 339.574 251.425 339.38 251.184 339.179C251.12 339.132 251.063 339.085 251.006 339.038C250.974 339.011 250.949 338.991 250.917 338.964C250.904 338.957 250.898 338.944 250.885 338.937C250.707 338.79 250.523 338.636 250.346 338.481C250.257 338.414 250.174 338.341 250.085 338.267C249.844 338.059 249.603 337.845 249.361 337.63C249.107 337.402 248.853 337.174 248.599 336.939C248.593 336.933 248.58 336.926 248.574 336.919C248.523 336.872 248.478 336.825 248.428 336.785C248.186 336.557 247.945 336.329 247.704 336.088C247.5 335.894 247.297 335.692 247.1 335.498C246.916 335.317 246.732 335.136 246.554 334.942L246.516 334.901C246.382 334.767 246.249 334.626 246.11 334.479C245.976 334.345 245.849 334.204 245.722 334.063C245.589 333.929 245.462 333.788 245.341 333.647L245.239 333.54L245.208 333.507L243.982 332.36V334.15L244.725 334.841L245.341 335.417L258.392 347.566L259.618 348.713L259.929 349.001L260.221 348.552L260.659 347.888L259.885 347.164ZM483.734 354.955H449.56C449.579 355.397 449.611 355.846 449.642 356.295H484.623L483.734 354.955Z"/>
</mask>
<path d="M259.885 347.164L251.984 339.816L251.965 339.802L251.939 339.782L251.921 339.762C251.673 339.574 251.425 339.38 251.184 339.179C251.12 339.132 251.063 339.085 251.006 339.038C250.974 339.011 250.949 338.991 250.917 338.964C250.904 338.957 250.898 338.944 250.885 338.937C250.707 338.79 250.523 338.636 250.346 338.481C250.257 338.414 250.174 338.341 250.085 338.267C249.844 338.059 249.603 337.845 249.361 337.63C249.107 337.402 248.853 337.174 248.599 336.939C248.593 336.933 248.58 336.926 248.574 336.919C248.523 336.872 248.478 336.825 248.428 336.785C248.186 336.557 247.945 336.329 247.703 336.088C247.5 335.894 247.297 335.692 247.1 335.498C246.916 335.317 246.732 335.136 246.554 334.942L246.516 334.901C246.382 334.767 246.249 334.626 246.11 334.479C245.976 334.345 245.849 334.204 245.722 334.063C245.589 333.929 245.461 333.788 245.341 333.647L245.239 333.54L245.207 333.507L243.982 332.36V334.15L244.725 334.841L245.341 335.417L258.392 347.566L259.618 348.713L259.929 349.001L260.221 348.552L260.659 347.888L259.885 347.164ZM449.56 354.955C449.579 355.397 449.611 355.846 449.642 356.295H494.556V354.955H449.56ZM259.885 347.164L251.984 339.816L251.965 339.802L251.939 339.782L251.921 339.762C251.673 339.574 251.425 339.38 251.184 339.179C251.12 339.132 251.063 339.085 251.006 339.038C250.974 339.011 250.949 338.991 250.917 338.964C250.904 338.957 250.898 338.944 250.885 338.937C250.707 338.79 250.523 338.636 250.346 338.481C250.257 338.414 250.174 338.341 250.085 338.267C249.844 338.059 249.603 337.845 249.361 337.63C249.107 337.402 248.853 337.174 248.599 336.939C248.593 336.933 248.58 336.926 248.574 336.919C248.523 336.872 248.478 336.825 248.428 336.785C248.186 336.557 247.945 336.329 247.703 336.088C247.5 335.894 247.297 335.692 247.1 335.498C246.916 335.317 246.732 335.136 246.554 334.942L246.516 334.901C246.382 334.767 246.249 334.626 246.11 334.479C245.976 334.345 245.849 334.204 245.722 334.063C245.589 333.929 245.461 333.788 245.341 333.647L245.239 333.54L245.207 333.507L243.982 332.36V334.15L244.725 334.841L245.341 335.417L258.392 347.566L259.618 348.713L259.929 349.001L260.221 348.552L260.659 347.888L259.885 347.164ZM483.734 354.955H449.56C449.579 355.397 449.611 355.846 449.642 356.295H484.623L483.734 354.955ZM259.885 347.164L251.984 339.816L251.965 339.802L251.939 339.782L251.921 339.762C251.673 339.574 251.425 339.38 251.184 339.179C251.12 339.132 251.063 339.085 251.006 339.038C250.974 339.011 250.949 338.991 250.917 338.964C250.904 338.957 250.898 338.944 250.885 338.937C250.707 338.79 250.523 338.636 250.346 338.481C250.257 338.414 250.174 338.341 250.085 338.267C249.844 338.059 249.603 337.845 249.361 337.63C249.107 337.402 248.853 337.174 248.599 336.939C248.593 336.933 248.58 336.926 248.574 336.919C248.523 336.872 248.478 336.825 248.428 336.785C248.186 336.557 247.945 336.329 247.703 336.088C247.5 335.894 247.297 335.692 247.1 335.498C246.916 335.317 246.732 335.136 246.554 334.942L246.516 334.901C246.382 334.767 246.249 334.626 246.11 334.479C245.976 334.345 245.849 334.204 245.722 334.063C245.589 333.929 245.461 333.788 245.341 333.647L245.239 333.54L245.207 333.507L243.982 332.36V334.15L244.725 334.841L245.341 335.417L258.392 347.566L259.618 348.713L259.929 349.001L260.221 348.552L260.659 347.888L259.885 347.164ZM229.045 318.455L216.578 306.849C214.607 305.012 212.068 303.999 209.439 304H172.09L172.414 305.341H209.439C211.76 305.339 214.001 306.233 215.739 307.855L227.552 318.857L243.982 334.15V332.36L229.045 318.455ZM495.915 354.981C495.68 354.961 495.445 354.955 495.204 354.955H271.85C269.703 354.957 267.618 354.191 265.937 352.782C265.803 352.675 265.676 352.561 265.549 352.44L261.117 348.31L260.659 347.888L259.885 347.164L251.984 339.816L251.965 339.802L251.939 339.782L251.921 339.762L246.643 334.841L245.341 333.627L245.239 333.54L245.207 333.507L243.982 332.36L229.045 318.455L216.578 306.849C214.607 305.012 212.069 303.999 209.439 304H154.796C151.934 304.004 149.191 305.207 147.167 307.343C145.143 309.48 144.004 312.376 144 315.398V528.602C144.004 531.624 145.143 534.52 147.167 536.657C149.191 538.794 151.934 539.996 154.796 540H495.204C498.066 539.996 500.809 538.794 502.833 536.657C504.857 534.52 505.996 531.624 506 528.602V366.352C505.995 363.461 504.952 360.679 503.08 358.569C501.208 356.458 498.647 355.176 495.915 354.981L495.915 354.981ZM504.73 528.602C504.727 531.268 503.722 533.825 501.936 535.71C500.15 537.595 497.729 538.656 495.204 538.659H154.796C152.271 538.656 149.85 537.595 148.064 535.71C146.278 533.825 145.273 531.268 145.27 528.602V315.398C145.273 312.731 146.278 310.175 148.064 308.29C149.85 306.405 152.271 305.344 154.796 305.341H209.439C211.76 305.339 214.001 306.233 215.739 307.855L227.552 318.857L243.982 334.15L244.725 334.841L245.341 335.418L258.392 347.566L259.618 348.713L259.929 349.001L264.705 353.446C266.682 355.275 269.22 356.287 271.85 356.295H495.203C495.441 356.293 495.678 356.304 495.915 356.329C498.31 356.52 500.549 357.659 502.183 359.517C503.817 361.375 504.727 363.817 504.73 366.352L504.73 528.602ZM259.885 347.164L251.984 339.816L251.965 339.802L251.939 339.782L251.921 339.762C251.673 339.574 251.425 339.38 251.184 339.179C251.12 339.132 251.063 339.085 251.006 339.038C250.974 339.011 250.949 338.991 250.917 338.964C250.904 338.957 250.898 338.944 250.885 338.937C250.707 338.79 250.523 338.636 250.346 338.481C250.257 338.414 250.174 338.341 250.085 338.267C249.844 338.059 249.603 337.845 249.361 337.63C249.107 337.402 248.853 337.174 248.599 336.939C248.593 336.933 248.58 336.926 248.574 336.919C248.523 336.872 248.478 336.825 248.428 336.785C248.186 336.557 247.945 336.329 247.704 336.088C247.5 335.894 247.297 335.692 247.1 335.498C246.916 335.317 246.732 335.136 246.554 334.942L246.516 334.901C246.382 334.767 246.249 334.626 246.11 334.479C245.976 334.345 245.849 334.204 245.722 334.063C245.589 333.929 245.462 333.788 245.341 333.647L245.239 333.54L245.208 333.507L243.982 332.36V334.15L244.725 334.841L245.341 335.417L258.392 347.566L259.618 348.713L259.929 349.001L260.221 348.552L260.659 347.888L259.885 347.164ZM449.56 354.955C449.579 355.397 449.611 355.846 449.642 356.295H494.556V354.955H449.56ZM259.885 347.164L251.984 339.816L251.965 339.802L251.939 339.782L251.921 339.762C251.673 339.574 251.425 339.38 251.184 339.179C251.12 339.132 251.063 339.085 251.006 339.038C250.974 339.011 250.949 338.991 250.917 338.964C250.904 338.957 250.898 338.944 250.885 338.937C250.707 338.79 250.523 338.636 250.346 338.481C250.257 338.414 250.174 338.341 250.085 338.267C249.844 338.059 249.603 337.845 249.361 337.63C249.107 337.402 248.853 337.174 248.599 336.939C248.593 336.933 248.58 336.926 248.574 336.919C248.523 336.872 248.478 336.825 248.428 336.785C248.186 336.557 247.945 336.329 247.704 336.088C247.5 335.894 247.297 335.692 247.1 335.498C246.916 335.317 246.732 335.136 246.554 334.942L246.516 334.901C246.382 334.767 246.249 334.626 246.11 334.479C245.976 334.345 245.849 334.204 245.722 334.063C245.589 333.929 245.462 333.788 245.341 333.647L245.239 333.54L245.208 333.507L243.982 332.36V334.15L244.725 334.841L245.341 335.417L258.392 347.566L259.618 348.713L259.929 349.001L260.221 348.552L260.659 347.888L259.885 347.164ZM259.885 347.164L251.984 339.816L251.965 339.802L251.939 339.782L251.921 339.762C251.673 339.574 251.425 339.38 251.184 339.179C251.12 339.132 251.063 339.085 251.006 339.038C250.974 339.011 250.949 338.991 250.917 338.964C250.904 338.957 250.898 338.944 250.885 338.937C250.707 338.79 250.523 338.636 250.346 338.481C250.257 338.414 250.174 338.341 250.085 338.267C249.844 338.059 249.603 337.845 249.361 337.63C249.107 337.402 248.853 337.174 248.599 336.939C248.593 336.933 248.58 336.926 248.574 336.919C248.523 336.872 248.478 336.825 248.428 336.785C248.186 336.557 247.945 336.329 247.704 336.088C247.5 335.894 247.297 335.692 247.1 335.498C246.916 335.317 246.732 335.136 246.554 334.942L246.516 334.901C246.382 334.767 246.249 334.626 246.11 334.479C245.976 334.345 245.849 334.204 245.722 334.063C245.589 333.929 245.462 333.788 245.341 333.647L245.239 333.54L245.208 333.507L243.982 332.36V334.15L244.725 334.841L245.341 335.417L258.392 347.566L259.618 348.713L259.929 349.001L260.221 348.552L260.659 347.888L259.885 347.164ZM483.734 354.955H449.56C449.579 355.397 449.611 355.846 449.642 356.295H484.623L483.734 354.955Z" fill="white" stroke="#E6E6E6" stroke-width="2" mask="url(#path-10-inside-1_107_161)"/>
<path d="M477.482 532H169.098C166.421 531.997 163.854 530.87 161.961 528.866C160.068 526.863 159.003 524.146 159 521.313V327.687C159.003 324.854 160.068 322.137 161.961 320.134C163.854 318.13 166.421 317.003 169.098 317C171.466 317.003 173.736 318 175.411 319.772C177.085 321.544 178.027 323.946 178.03 326.452V508.558C178.033 511.214 179.031 513.759 180.805 515.637C182.579 517.515 184.984 518.571 187.494 518.574H476.441C477.876 518.557 479.276 519.049 480.416 519.973C481.556 520.896 482.371 522.197 482.731 523.667C483.133 525.062 483.083 526.559 482.588 527.92C482.093 529.281 481.181 530.427 479.999 531.176C479.249 531.692 478.377 531.978 477.482 532Z" fill="#F2F2F2"/>
</svg>
