<svg width="667" height="667" viewBox="0 0 667 667" fill="none" xmlns="http://www.w3.org/2000/svg">
<rect x="166.5" y="133.5" width="278" height="202" rx="9.5" fill="#F2F2F2" stroke="white"/>
<rect x="191" y="147" width="278" height="200" rx="9" fill="#F2F2F2" stroke="white" stroke-width="2"/>
<rect x="212.5" y="161.5" width="289" height="209" rx="8.5" fill="#C6C6C6" stroke="#C6C6C6" stroke-width="3"/>
<circle cx="356.5" cy="262.5" r="59" stroke="#E6E6E6" stroke-width="3"/>
<path d="M340.301 232.182V293.156L390.051 262.252L340.301 232.182Z" fill="white"/>
<path d="M134.5 329.5H513C523.217 329.5 531.5 337.783 531.5 348V548C531.5 558.217 523.217 566.5 513 566.5H153C142.783 566.5 134.5 558.217 134.5 548V329.5Z" fill="white" stroke="#E6E6E6" stroke-width="3"/>
<path d="M153 271.5H210.14C214.53 271.5 218.778 273.062 222.123 275.905L525.582 533.905C538.696 545.055 530.812 566.5 513.599 566.5H153C142.783 566.5 134.5 558.217 134.5 548V290C134.5 279.783 142.783 271.5 153 271.5Z" fill="white" stroke="#F2F2F2" stroke-width="3"/>
<path d="M288 332L529.5 537" stroke="white" stroke-width="4"/>
<path d="M441.491 519H235.509C232.723 518.997 230.052 517.893 228.082 515.93C226.111 513.968 225.003 511.307 225 508.531V395.469C225.003 392.693 226.111 390.032 228.082 388.07C230.052 386.107 232.723 385.003 235.509 385H441.491C444.277 385.003 446.948 386.107 448.918 388.07C450.889 390.032 451.997 392.693 452 395.469V508.531C451.997 511.307 450.889 513.968 448.918 515.93C446.948 517.893 444.277 518.997 441.491 519ZM235.509 386.396C233.095 386.399 230.779 387.355 229.072 389.056C227.364 390.757 226.404 393.063 226.401 395.469V508.531C226.404 510.937 227.364 513.243 229.072 514.944C230.779 516.645 233.095 517.601 235.509 517.604H441.491C443.906 517.601 446.221 516.645 447.928 514.944C449.636 513.243 450.596 510.937 450.599 508.531V395.469C450.596 393.063 449.636 390.757 447.928 389.056C446.221 387.355 443.906 386.399 441.491 386.396H235.509Z" fill="#E6E6E6"/>
<path d="M268.5 451C282.031 451 293 440.031 293 426.5C293 412.969 282.031 402 268.5 402C254.969 402 244 412.969 244 426.5C244 440.031 254.969 451 268.5 451Z" fill="#E6E6E6"/>
<path d="M363.838 414H318.162C317.324 414 316.519 414.316 315.926 414.879C315.333 415.441 315 416.204 315 417C315 417.796 315.333 418.559 315.926 419.121C316.519 419.684 317.324 420 318.162 420H363.838C364.676 420 365.481 419.684 366.074 419.121C366.667 418.559 367 417.796 367 417C367 416.204 366.667 415.441 366.074 414.879C365.481 414.316 364.676 414 363.838 414Z" fill="#E6E6E6"/>
<path d="M430.436 434H317.564C316.148 434 315 435.347 315 437C315 438.653 316.148 440 317.564 440H430.436C431.852 440 433 438.653 433 437C433 435.347 431.852 434 430.436 434Z" fill="#E6E6E6"/>
<path d="M421.556 476H255.444C254.096 476 253 477.347 253 479C253 480.653 254.096 482 255.444 482H421.556C422.904 482 424 480.653 424 479C424 477.347 422.904 476 421.556 476Z" fill="#E6E6E6"/>
<path d="M421.556 496H255.444C254.096 496 253 497.347 253 499C253 500.653 254.096 502 255.444 502H421.556C422.904 502 424 500.653 424 499C424 497.347 422.904 496 421.556 496Z" fill="#E6E6E6"/>
</svg>
