<svg width="667" height="667" viewBox="0 0 667 667" fill="none" xmlns="http://www.w3.org/2000/svg">
<path d="M133 290C133 278.954 141.954 270 153 270H210.14C214.886 270 219.478 271.688 223.094 274.763L526.554 532.763C540.731 544.816 532.207 568 513.599 568H153C141.954 568 133 559.046 133 548V290Z" fill="white"/>
<path d="M212.866 274.359L212.866 274.359C210.779 272.516 208.092 271.499 205.309 271.5L205.309 271.5L144.93 271.5C141.9 271.504 138.995 272.711 136.853 274.854C134.71 276.998 133.504 279.905 133.5 282.937V556.063C133.504 559.095 134.71 562.002 136.853 564.146C138.995 566.289 141.9 567.496 144.931 567.5H521.069C524.1 567.496 527.004 566.289 529.147 564.146C531.29 562.002 532.496 559.095 532.5 556.063V336.299C532.496 333.267 531.29 330.36 529.147 328.216C527.004 326.072 524.1 324.866 521.069 324.862H274.271H274.27V324.362C271.898 324.365 269.595 323.563 267.737 322.087L212.866 274.359ZM212.866 274.359L246.087 303.673L246.418 303.298L246.087 303.673L266.974 322.1C266.975 322.101 266.975 322.101 266.976 322.102C267.121 322.233 267.271 322.36 267.43 322.481L212.866 274.359ZM532.096 556.064V556.064C532.093 558.989 530.93 561.793 528.863 563.861C526.796 565.929 523.994 567.092 521.071 567.096H521.07H144.93H144.929C142.006 567.092 139.204 565.929 137.137 563.861C135.07 561.793 133.907 558.989 133.904 556.064L133.904 556.064L133.904 282.936V282.936C133.907 280.011 135.07 277.207 137.137 275.139C139.204 273.071 142.006 271.908 144.929 271.904L144.93 271.904L205.309 271.904C207.995 271.902 210.588 272.883 212.601 274.663L244.629 302.923L244.298 303.298L244.629 302.923L266.705 322.406L532.096 556.064ZM532.096 556.064V336.298V336.297C532.093 333.373 530.93 330.569 528.863 328.501C526.796 326.433 523.994 325.27 521.071 325.266H521.07M532.096 556.064L521.07 325.266M521.07 325.266L274.272 325.266C274.271 325.266 274.271 325.266 274.27 325.266M521.07 325.266H274.27M274.27 325.266C271.487 325.257 268.8 324.242 266.706 322.407L274.27 325.266Z" fill="white" stroke="#E6E6E6"/>
<rect x="283" y="326" width="249" height="241" rx="11" fill="white"/>
<path d="M406 326H274.648C271.658 325.991 268.773 324.901 266.523 322.931L212.42 275.203C210.563 273.562 208.17 272.657 205.691 272.658H159V111.581C159.003 108.51 160.224 105.567 162.395 103.396C164.566 101.225 167.508 100.003 170.578 100H394.422C397.492 100.003 400.434 101.225 402.605 103.396C404.776 105.567 405.997 108.51 406 111.581L406 326Z" fill="#E6E6E6"/>
<path d="M212.5 175C226.031 175 237 164.031 237 150.5C237 136.969 226.031 126 212.5 126C198.969 126 188 136.969 188 150.5C188 164.031 198.969 175 212.5 175Z" fill="white"/>
<path d="M307.838 137H262.162C261.324 137 260.519 137.316 259.926 137.879C259.333 138.441 259 139.204 259 140C259 140.796 259.333 141.559 259.926 142.121C260.519 142.684 261.324 143 262.162 143H307.838C308.676 143 309.481 142.684 310.074 142.121C310.667 141.559 311 140.796 311 140C311 139.204 310.667 138.441 310.074 137.879C309.481 137.316 308.676 137 307.838 137Z" fill="white"/>
<path d="M373.457 157H261.543C260.138 157 259 158.347 259 160C259 161.653 260.138 163 261.543 163H373.457C374.862 163 376 161.653 376 160C376 158.347 374.862 157 373.457 157Z" fill="white"/>
<path d="M365.556 199H199.444C198.096 199 197 200.571 197 202.5C197 204.429 198.096 206 199.444 206H365.556C366.904 206 368 204.429 368 202.5C368 200.571 366.904 199 365.556 199Z" fill="white"/>
<path d="M365.556 219H199.444C198.096 219 197 220.347 197 222C197 223.653 198.096 225 199.444 225H365.556C366.904 225 368 223.653 368 222C368 220.347 366.904 219 365.556 219Z" fill="white"/>
<path d="M365.556 239H199.444C198.096 239 197 240.347 197 242C197 243.653 198.096 245 199.444 245H365.556C366.904 245 368 243.653 368 242C368 240.347 366.904 239 365.556 239Z" fill="white"/>
<path d="M365.556 258H199.444C198.096 258 197 259.571 197 261.5C197 263.429 198.096 265 199.444 265H365.556C366.904 265 368 263.429 368 261.5C368 259.571 366.904 258 365.556 258Z" fill="white"/>
<path d="M514 326H273.884C271.493 326.004 269.155 325.304 267.158 323.986L267 323.882V159.609C267.003 156.531 268.224 153.58 270.395 151.404C272.566 149.228 275.508 148.003 278.578 148H502.422C505.491 148.003 508.434 149.228 510.605 151.404C512.776 153.58 513.996 156.531 514 159.609L514 326Z" fill="#DD6E20"/>
<path d="M321 223C334.807 223 346 212.031 346 198.5C346 184.969 334.807 174 321 174C307.193 174 296 184.969 296 198.5C296 212.031 307.193 223 321 223Z" fill="white"/>
<path d="M416.838 185H371.162C370.324 185 369.519 185.369 368.926 186.025C368.333 186.682 368 187.572 368 188.5C368 189.428 368.333 190.318 368.926 190.975C369.519 191.631 370.324 192 371.162 192H416.838C417.676 192 418.481 191.631 419.074 190.975C419.667 190.318 420 189.428 420 188.5C420 187.572 419.667 186.682 419.074 186.025C418.481 185.369 417.676 185 416.838 185Z" fill="white"/>
<path d="M482.457 205H370.543C369.138 205 368 206.571 368 208.5C368 210.429 369.138 212 370.543 212H482.457C483.862 212 485 210.429 485 208.5C485 206.571 483.862 205 482.457 205Z" fill="white"/>
<path d="M473.556 248H307.444C306.096 248 305 249.347 305 251C305 252.653 306.096 254 307.444 254H473.556C474.904 254 476 252.653 476 251C476 249.347 474.904 248 473.556 248Z" fill="white"/>
<path d="M473.556 267H307.444C306.096 267 305 268.571 305 270.5C305 272.429 306.096 274 307.444 274H473.556C474.904 274 476 272.429 476 270.5C476 268.571 474.904 267 473.556 267Z" fill="white"/>
<path d="M473.556 287H307.444C306.096 287 305 288.347 305 290C305 291.653 306.096 293 307.444 293H473.556C474.904 293 476 291.653 476 290C476 288.347 474.904 287 473.556 287Z" fill="white"/>
<path d="M473.556 307H307.444C306.096 307 305 308.347 305 310C305 311.653 306.096 313 307.444 313H473.556C474.904 313 476 311.653 476 310C476 308.347 474.904 307 473.556 307Z" fill="white"/>
<path d="M441.491 519H235.509C232.723 518.997 230.052 517.893 228.082 515.93C226.111 513.968 225.003 511.307 225 508.531V395.469C225.003 392.693 226.111 390.032 228.082 388.07C230.052 386.107 232.723 385.003 235.509 385H441.491C444.277 385.003 446.948 386.107 448.918 388.07C450.889 390.032 451.997 392.693 452 395.469V508.531C451.997 511.307 450.889 513.968 448.918 515.93C446.948 517.893 444.277 518.997 441.491 519ZM235.509 386.396C233.095 386.399 230.779 387.355 229.072 389.056C227.364 390.757 226.404 393.063 226.401 395.469V508.531C226.404 510.937 227.364 513.243 229.072 514.944C230.779 516.645 233.095 517.601 235.509 517.604H441.491C443.906 517.601 446.221 516.645 447.928 514.944C449.636 513.243 450.596 510.937 450.599 508.531V395.469C450.596 393.063 449.636 390.757 447.928 389.056C446.221 387.355 443.906 386.399 441.491 386.396H235.509Z" fill="#E6E6E6"/>
<path d="M268.5 451C282.031 451 293 440.031 293 426.5C293 412.969 282.031 402 268.5 402C254.969 402 244 412.969 244 426.5C244 440.031 254.969 451 268.5 451Z" fill="#E6E6E6"/>
<path d="M363.838 414H318.162C317.324 414 316.519 414.316 315.926 414.879C315.333 415.441 315 416.204 315 417C315 417.796 315.333 418.559 315.926 419.121C316.519 419.684 317.324 420 318.162 420H363.838C364.676 420 365.481 419.684 366.074 419.121C366.667 418.559 367 417.796 367 417C367 416.204 366.667 415.441 366.074 414.879C365.481 414.316 364.676 414 363.838 414Z" fill="#E6E6E6"/>
<path d="M430.436 434H317.564C316.148 434 315 435.347 315 437C315 438.653 316.148 440 317.564 440H430.436C431.852 440 433 438.653 433 437C433 435.347 431.852 434 430.436 434Z" fill="#E6E6E6"/>
<path d="M421.556 476H255.444C254.096 476 253 477.347 253 479C253 480.653 254.096 482 255.444 482H421.556C422.904 482 424 480.653 424 479C424 477.347 422.904 476 421.556 476Z" fill="#E6E6E6"/>
<path d="M421.556 496H255.444C254.096 496 253 497.347 253 499C253 500.653 254.096 502 255.444 502H421.556C422.904 502 424 500.653 424 499C424 497.347 422.904 496 421.556 496Z" fill="#E6E6E6"/>
</svg>
